<?xml version="1.0" encoding="UTF-8" standalone="no"?>
<!DOCTYPE svg PUBLIC "-//W3C//DTD SVG 1.1//EN"
 "http://www.w3.org/Graphics/SVG/1.1/DTD/svg11.dtd">
<!-- Generated by graphviz version 2.43.0 (0)
 -->
<!-- Title: %3 Pages: 1 -->
<svg width="2282pt" height="1340pt"
 viewBox="0.00 0.00 2282.34 1340.00" xmlns="http://www.w3.org/2000/svg" xmlns:xlink="http://www.w3.org/1999/xlink">
<g id="graph0" class="graph" transform="scale(1 1) rotate(0) translate(4 1336)">
<title>%3</title>
<polygon fill="white" stroke="transparent" points="-4,4 -4,-1336 2278.34,-1336 2278.34,4 -4,4"/>
<!-- n0 -->
<g id="node1" class="node">
<title>n0</title>
<ellipse fill="none" stroke="black" cx="429.49" cy="-1314" rx="31.7" ry="18"/>
<text text-anchor="middle" x="429.49" y="-1310.3" font-family="Times,serif" font-size="14.00">Goal</text>
</g>
<!-- n1 -->
<g id="node2" class="node">
<title>n1</title>
<ellipse fill="none" stroke="black" cx="346.49" cy="-1242" rx="59.29" ry="18"/>
<text text-anchor="middle" x="346.49" y="-1238.3" font-family="Times,serif" font-size="14.00">MainClass</text>
</g>
<!-- n0&#45;&gt;n1 -->
<g id="edge12" class="edge">
<title>n0&#45;&gt;n1</title>
<path fill="none" stroke="black" d="M412.29,-1298.5C401.15,-1289.1 386.41,-1276.66 373.7,-1265.94"/>
<polygon fill="black" stroke="black" points="375.6,-1262.97 365.7,-1259.2 371.09,-1268.32 375.6,-1262.97"/>
</g>
<!-- n13 -->
<g id="node14" class="node">
<title>n13</title>
<ellipse fill="none" stroke="black" cx="583.49" cy="-1242" rx="89.08" ry="18"/>
<text text-anchor="middle" x="583.49" y="-1238.3" font-family="Times,serif" font-size="14.00">ClassDeclaration</text>
</g>
<!-- n0&#45;&gt;n13 -->
<g id="edge63" class="edge">
<title>n0&#45;&gt;n13</title>
<path fill="none" stroke="black" d="M453.55,-1302.06C476.58,-1291.59 511.86,-1275.56 539.84,-1262.84"/>
<polygon fill="black" stroke="black" points="541.37,-1265.99 549.03,-1258.67 538.47,-1259.62 541.37,-1265.99"/>
</g>
<!-- n2 -->
<g id="node3" class="node">
<title>n2</title>
<ellipse fill="none" stroke="black" cx="97.49" cy="-1170" rx="97.48" ry="18"/>
<text text-anchor="middle" x="97.49" y="-1166.3" font-family="Times,serif" font-size="14.00">Identifier:Factorial</text>
</g>
<!-- n1&#45;&gt;n2 -->
<g id="edge1" class="edge">
<title>n1&#45;&gt;n2</title>
<path fill="none" stroke="black" d="M304.53,-1229.2C264.5,-1217.95 203.76,-1200.87 158.4,-1188.12"/>
<polygon fill="black" stroke="black" points="159.25,-1184.73 148.68,-1185.39 157.36,-1191.47 159.25,-1184.73"/>
</g>
<!-- n3 -->
<g id="node4" class="node">
<title>n3</title>
<ellipse fill="none" stroke="black" cx="274.49" cy="-1170" rx="61.99" ry="18"/>
<text text-anchor="middle" x="274.49" y="-1166.3" font-family="Times,serif" font-size="14.00">Identifier:a</text>
</g>
<!-- n1&#45;&gt;n3 -->
<g id="edge2" class="edge">
<title>n1&#45;&gt;n3</title>
<path fill="none" stroke="black" d="M329.43,-1224.41C320.28,-1215.52 308.86,-1204.41 298.8,-1194.63"/>
<polygon fill="black" stroke="black" points="301.04,-1191.93 291.43,-1187.47 296.16,-1196.95 301.04,-1191.93"/>
</g>
<!-- n4 -->
<g id="node5" class="node">
<title>n4</title>
<ellipse fill="none" stroke="black" cx="423.49" cy="-1170" rx="69.59" ry="18"/>
<text text-anchor="middle" x="423.49" y="-1166.3" font-family="Times,serif" font-size="14.00">MethodBody</text>
</g>
<!-- n1&#45;&gt;n4 -->
<g id="edge11" class="edge">
<title>n1&#45;&gt;n4</title>
<path fill="none" stroke="black" d="M364.35,-1224.76C374.29,-1215.73 386.83,-1204.33 397.81,-1194.35"/>
<polygon fill="black" stroke="black" points="400.42,-1196.71 405.46,-1187.39 395.71,-1191.53 400.42,-1196.71"/>
</g>
<!-- n5 -->
<g id="node6" class="node">
<title>n5</title>
<ellipse fill="none" stroke="black" cx="423.49" cy="-1098" rx="124.58" ry="18"/>
<text text-anchor="middle" x="423.49" y="-1094.3" font-family="Times,serif" font-size="14.00">Statement:S.O.PRINTLN</text>
</g>
<!-- n4&#45;&gt;n5 -->
<g id="edge10" class="edge">
<title>n4&#45;&gt;n5</title>
<path fill="none" stroke="black" d="M423.49,-1151.7C423.49,-1143.98 423.49,-1134.71 423.49,-1126.11"/>
<polygon fill="black" stroke="black" points="426.99,-1126.1 423.49,-1116.1 419.99,-1126.1 426.99,-1126.1"/>
</g>
<!-- n6 -->
<g id="node7" class="node">
<title>n6</title>
<ellipse fill="none" stroke="black" cx="423.49" cy="-1026" rx="62.29" ry="18"/>
<text text-anchor="middle" x="423.49" y="-1022.3" font-family="Times,serif" font-size="14.00">Expression</text>
</g>
<!-- n5&#45;&gt;n6 -->
<g id="edge9" class="edge">
<title>n5&#45;&gt;n6</title>
<path fill="none" stroke="black" d="M423.49,-1079.7C423.49,-1071.98 423.49,-1062.71 423.49,-1054.11"/>
<polygon fill="black" stroke="black" points="426.99,-1054.1 423.49,-1044.1 419.99,-1054.1 426.99,-1054.1"/>
</g>
<!-- n7 -->
<g id="node8" class="node">
<title>n7</title>
<ellipse fill="none" stroke="black" cx="164.49" cy="-954" rx="126.98" ry="18"/>
<text text-anchor="middle" x="164.49" y="-950.3" font-family="Times,serif" font-size="14.00">PrimaryExpression:NEW</text>
</g>
<!-- n6&#45;&gt;n7 -->
<g id="edge4" class="edge">
<title>n6&#45;&gt;n7</title>
<path fill="none" stroke="black" d="M379.56,-1013.13C338.73,-1002.09 277.37,-985.51 230.62,-972.87"/>
<polygon fill="black" stroke="black" points="231.45,-969.47 220.88,-970.24 229.62,-976.23 231.45,-969.47"/>
</g>
<!-- n9 -->
<g id="node10" class="node">
<title>n9</title>
<ellipse fill="none" stroke="black" cx="423.49" cy="-954" rx="114.28" ry="18"/>
<text text-anchor="middle" x="423.49" y="-950.3" font-family="Times,serif" font-size="14.00">Identifier:ComputeFac</text>
</g>
<!-- n6&#45;&gt;n9 -->
<g id="edge5" class="edge">
<title>n6&#45;&gt;n9</title>
<path fill="none" stroke="black" d="M423.49,-1007.7C423.49,-999.98 423.49,-990.71 423.49,-982.11"/>
<polygon fill="black" stroke="black" points="426.99,-982.1 423.49,-972.1 419.99,-982.1 426.99,-982.1"/>
</g>
<!-- n10 -->
<g id="node11" class="node">
<title>n10</title>
<ellipse fill="none" stroke="black" cx="635.49" cy="-954" rx="79.89" ry="18"/>
<text text-anchor="middle" x="635.49" y="-950.3" font-family="Times,serif" font-size="14.00">ExpressionList</text>
</g>
<!-- n6&#45;&gt;n10 -->
<g id="edge8" class="edge">
<title>n6&#45;&gt;n10</title>
<path fill="none" stroke="black" d="M462.87,-1012C496.62,-1000.86 545.51,-984.71 582.65,-972.45"/>
<polygon fill="black" stroke="black" points="583.91,-975.72 592.31,-969.26 581.72,-969.07 583.91,-975.72"/>
</g>
<!-- n8 -->
<g id="node9" class="node">
<title>n8</title>
<ellipse fill="none" stroke="black" cx="164.49" cy="-882" rx="72.59" ry="18"/>
<text text-anchor="middle" x="164.49" y="-878.3" font-family="Times,serif" font-size="14.00">Identifier:Fac</text>
</g>
<!-- n7&#45;&gt;n8 -->
<g id="edge3" class="edge">
<title>n7&#45;&gt;n8</title>
<path fill="none" stroke="black" d="M164.49,-935.7C164.49,-927.98 164.49,-918.71 164.49,-910.11"/>
<polygon fill="black" stroke="black" points="167.99,-910.1 164.49,-900.1 160.99,-910.1 167.99,-910.1"/>
</g>
<!-- n11 -->
<g id="node12" class="node">
<title>n11</title>
<ellipse fill="none" stroke="black" cx="635.49" cy="-882" rx="62.29" ry="18"/>
<text text-anchor="middle" x="635.49" y="-878.3" font-family="Times,serif" font-size="14.00">Expression</text>
</g>
<!-- n10&#45;&gt;n11 -->
<g id="edge7" class="edge">
<title>n10&#45;&gt;n11</title>
<path fill="none" stroke="black" d="M635.49,-935.7C635.49,-927.98 635.49,-918.71 635.49,-910.11"/>
<polygon fill="black" stroke="black" points="638.99,-910.1 635.49,-900.1 631.99,-910.1 638.99,-910.1"/>
</g>
<!-- n12 -->
<g id="node13" class="node">
<title>n12</title>
<ellipse fill="none" stroke="black" cx="635.49" cy="-810" rx="63.89" ry="18"/>
<text text-anchor="middle" x="635.49" y="-806.3" font-family="Times,serif" font-size="14.00">Number:10</text>
</g>
<!-- n11&#45;&gt;n12 -->
<g id="edge6" class="edge">
<title>n11&#45;&gt;n12</title>
<path fill="none" stroke="black" d="M635.49,-863.7C635.49,-855.98 635.49,-846.71 635.49,-838.11"/>
<polygon fill="black" stroke="black" points="638.99,-838.1 635.49,-828.1 631.99,-838.1 638.99,-838.1"/>
</g>
<!-- n14 -->
<g id="node15" class="node">
<title>n14</title>
<ellipse fill="none" stroke="black" cx="583.49" cy="-1170" rx="72.59" ry="18"/>
<text text-anchor="middle" x="583.49" y="-1166.3" font-family="Times,serif" font-size="14.00">Identifier:Fac</text>
</g>
<!-- n13&#45;&gt;n14 -->
<g id="edge13" class="edge">
<title>n13&#45;&gt;n14</title>
<path fill="none" stroke="black" d="M583.49,-1223.7C583.49,-1215.98 583.49,-1206.71 583.49,-1198.11"/>
<polygon fill="black" stroke="black" points="586.99,-1198.1 583.49,-1188.1 579.99,-1198.1 586.99,-1198.1"/>
</g>
<!-- n15 -->
<g id="node16" class="node">
<title>n15</title>
<ellipse fill="none" stroke="black" cx="743.49" cy="-1170" rx="69.59" ry="18"/>
<text text-anchor="middle" x="743.49" y="-1166.3" font-family="Times,serif" font-size="14.00">Declarations</text>
</g>
<!-- n13&#45;&gt;n15 -->
<g id="edge62" class="edge">
<title>n13&#45;&gt;n15</title>
<path fill="none" stroke="black" d="M619,-1225.46C643,-1214.96 674.84,-1201.04 700.3,-1189.89"/>
<polygon fill="black" stroke="black" points="701.97,-1192.99 709.72,-1185.77 699.16,-1186.57 701.97,-1192.99"/>
</g>
<!-- n16 -->
<g id="node17" class="node">
<title>n16</title>
<ellipse fill="none" stroke="black" cx="743.49" cy="-1098" rx="100.18" ry="18"/>
<text text-anchor="middle" x="743.49" y="-1094.3" font-family="Times,serif" font-size="14.00">MethodDeclaration</text>
</g>
<!-- n15&#45;&gt;n16 -->
<g id="edge61" class="edge">
<title>n15&#45;&gt;n16</title>
<path fill="none" stroke="black" d="M743.49,-1151.7C743.49,-1143.98 743.49,-1134.71 743.49,-1126.11"/>
<polygon fill="black" stroke="black" points="746.99,-1126.1 743.49,-1116.1 739.99,-1126.1 746.99,-1126.1"/>
</g>
<!-- n17 -->
<g id="node18" class="node">
<title>n17</title>
<ellipse fill="none" stroke="black" cx="557.49" cy="-1026" rx="48.99" ry="18"/>
<text text-anchor="middle" x="557.49" y="-1022.3" font-family="Times,serif" font-size="14.00">Type:int</text>
</g>
<!-- n16&#45;&gt;n17 -->
<g id="edge14" class="edge">
<title>n16&#45;&gt;n17</title>
<path fill="none" stroke="black" d="M702.21,-1081.46C671.79,-1070.02 630.54,-1054.49 599.87,-1042.95"/>
<polygon fill="black" stroke="black" points="600.9,-1039.6 590.31,-1039.35 598.43,-1046.15 600.9,-1039.6"/>
</g>
<!-- n18 -->
<g id="node19" class="node">
<title>n18</title>
<ellipse fill="none" stroke="black" cx="738.49" cy="-1026" rx="114.28" ry="18"/>
<text text-anchor="middle" x="738.49" y="-1022.3" font-family="Times,serif" font-size="14.00">Identifier:ComputeFac</text>
</g>
<!-- n16&#45;&gt;n18 -->
<g id="edge15" class="edge">
<title>n16&#45;&gt;n18</title>
<path fill="none" stroke="black" d="M742.26,-1079.7C741.7,-1071.98 741.04,-1062.71 740.43,-1054.11"/>
<polygon fill="black" stroke="black" points="743.92,-1053.83 739.71,-1044.1 736.93,-1054.33 743.92,-1053.83"/>
</g>
<!-- n19 -->
<g id="node20" class="node">
<title>n19</title>
<ellipse fill="none" stroke="black" cx="980.49" cy="-1026" rx="109.68" ry="18"/>
<text text-anchor="middle" x="980.49" y="-1022.3" font-family="Times,serif" font-size="14.00">FormalParameterList</text>
</g>
<!-- n16&#45;&gt;n19 -->
<g id="edge18" class="edge">
<title>n16&#45;&gt;n19</title>
<path fill="none" stroke="black" d="M793.17,-1082.33C830.09,-1071.42 880.63,-1056.49 919.92,-1044.89"/>
<polygon fill="black" stroke="black" points="921.05,-1048.21 929.65,-1042.02 919.07,-1041.49 921.05,-1048.21"/>
</g>
<!-- n22 -->
<g id="node23" class="node">
<title>n22</title>
<ellipse fill="none" stroke="black" cx="1251.49" cy="-1026" rx="69.59" ry="18"/>
<text text-anchor="middle" x="1251.49" y="-1022.3" font-family="Times,serif" font-size="14.00">MethodBody</text>
</g>
<!-- n16&#45;&gt;n22 -->
<g id="edge60" class="edge">
<title>n16&#45;&gt;n22</title>
<path fill="none" stroke="black" d="M820.37,-1086.41C918.45,-1072.89 1086.7,-1049.71 1181.41,-1036.66"/>
<polygon fill="black" stroke="black" points="1182.03,-1040.1 1191.46,-1035.27 1181.07,-1033.17 1182.03,-1040.1"/>
</g>
<!-- n20 -->
<g id="node21" class="node">
<title>n20</title>
<ellipse fill="none" stroke="black" cx="836.49" cy="-954" rx="48.99" ry="18"/>
<text text-anchor="middle" x="836.49" y="-950.3" font-family="Times,serif" font-size="14.00">Type:int</text>
</g>
<!-- n19&#45;&gt;n20 -->
<g id="edge16" class="edge">
<title>n19&#45;&gt;n20</title>
<path fill="none" stroke="black" d="M947.09,-1008.76C925.28,-998.16 896.76,-984.3 874.15,-973.31"/>
<polygon fill="black" stroke="black" points="875.38,-970.01 864.86,-968.79 872.32,-976.31 875.38,-970.01"/>
</g>
<!-- n21 -->
<g id="node22" class="node">
<title>n21</title>
<ellipse fill="none" stroke="black" cx="980.49" cy="-954" rx="77.19" ry="18"/>
<text text-anchor="middle" x="980.49" y="-950.3" font-family="Times,serif" font-size="14.00">Identifier:num</text>
</g>
<!-- n19&#45;&gt;n21 -->
<g id="edge17" class="edge">
<title>n19&#45;&gt;n21</title>
<path fill="none" stroke="black" d="M980.49,-1007.7C980.49,-999.98 980.49,-990.71 980.49,-982.11"/>
<polygon fill="black" stroke="black" points="983.99,-982.1 980.49,-972.1 976.99,-982.1 983.99,-982.1"/>
</g>
<!-- n23 -->
<g id="node24" class="node">
<title>n23</title>
<ellipse fill="none" stroke="black" cx="1155.49" cy="-954" rx="79.89" ry="18"/>
<text text-anchor="middle" x="1155.49" y="-950.3" font-family="Times,serif" font-size="14.00">VarDeclaration</text>
</g>
<!-- n22&#45;&gt;n23 -->
<g id="edge21" class="edge">
<title>n22&#45;&gt;n23</title>
<path fill="none" stroke="black" d="M1229.23,-1008.76C1216.47,-999.47 1200.28,-987.66 1186.32,-977.48"/>
<polygon fill="black" stroke="black" points="1188.11,-974.45 1177.97,-971.39 1183.99,-980.11 1188.11,-974.45"/>
</g>
<!-- n26 -->
<g id="node27" class="node">
<title>n26</title>
<ellipse fill="none" stroke="black" cx="1410.49" cy="-954" rx="72.29" ry="18"/>
<text text-anchor="middle" x="1410.49" y="-950.3" font-family="Times,serif" font-size="14.00">Statement:IF</text>
</g>
<!-- n22&#45;&gt;n26 -->
<g id="edge55" class="edge">
<title>n22&#45;&gt;n26</title>
<path fill="none" stroke="black" d="M1285.21,-1010.15C1309.16,-999.61 1341.52,-985.36 1367.35,-973.99"/>
<polygon fill="black" stroke="black" points="1368.8,-977.18 1376.55,-969.94 1365.98,-970.77 1368.8,-977.18"/>
</g>
<!-- n60 -->
<g id="node61" class="node">
<title>n60</title>
<ellipse fill="none" stroke="black" cx="1668.49" cy="-954" rx="42.79" ry="18"/>
<text text-anchor="middle" x="1668.49" y="-950.3" font-family="Times,serif" font-size="14.00">Return</text>
</g>
<!-- n22&#45;&gt;n60 -->
<g id="edge59" class="edge">
<title>n22&#45;&gt;n60</title>
<path fill="none" stroke="black" d="M1308.16,-1015.49C1390.43,-1001.68 1541.56,-976.31 1619.36,-963.25"/>
<polygon fill="black" stroke="black" points="1620.1,-966.67 1629.38,-961.57 1618.94,-959.77 1620.1,-966.67"/>
</g>
<!-- n24 -->
<g id="node25" class="node">
<title>n24</title>
<ellipse fill="none" stroke="black" cx="947.49" cy="-882" rx="48.99" ry="18"/>
<text text-anchor="middle" x="947.49" y="-878.3" font-family="Times,serif" font-size="14.00">Type:int</text>
</g>
<!-- n23&#45;&gt;n24 -->
<g id="edge19" class="edge">
<title>n23&#45;&gt;n24</title>
<path fill="none" stroke="black" d="M1112.9,-938.67C1077.7,-926.82 1027.88,-910.05 992.13,-898.02"/>
<polygon fill="black" stroke="black" points="993.04,-894.63 982.44,-894.76 990.8,-901.27 993.04,-894.63"/>
</g>
<!-- n25 -->
<g id="node26" class="node">
<title>n25</title>
<ellipse fill="none" stroke="black" cx="1112.49" cy="-882" rx="98.28" ry="18"/>
<text text-anchor="middle" x="1112.49" y="-878.3" font-family="Times,serif" font-size="14.00">Identifier:num_aux</text>
</g>
<!-- n23&#45;&gt;n25 -->
<g id="edge20" class="edge">
<title>n23&#45;&gt;n25</title>
<path fill="none" stroke="black" d="M1145.08,-936.05C1140.09,-927.92 1133.99,-918 1128.43,-908.94"/>
<polygon fill="black" stroke="black" points="1131.32,-906.96 1123.1,-900.28 1125.36,-910.63 1131.32,-906.96"/>
</g>
<!-- n27 -->
<g id="node28" class="node">
<title>n27</title>
<ellipse fill="none" stroke="black" cx="1302.49" cy="-882" rx="73.39" ry="18"/>
<text text-anchor="middle" x="1302.49" y="-878.3" font-family="Times,serif" font-size="14.00">Expression:&lt;</text>
</g>
<!-- n26&#45;&gt;n27 -->
<g id="edge27" class="edge">
<title>n26&#45;&gt;n27</title>
<path fill="none" stroke="black" d="M1385.71,-936.94C1370.9,-927.34 1351.88,-915.01 1335.76,-904.56"/>
<polygon fill="black" stroke="black" points="1337.45,-901.49 1327.15,-898.98 1333.64,-907.36 1337.45,-901.49"/>
</g>
<!-- n33 -->
<g id="node34" class="node">
<title>n33</title>
<ellipse fill="none" stroke="black" cx="1453.49" cy="-882" rx="59.59" ry="18"/>
<text text-anchor="middle" x="1453.49" y="-878.3" font-family="Times,serif" font-size="14.00">Statement</text>
</g>
<!-- n26&#45;&gt;n33 -->
<g id="edge33" class="edge">
<title>n26&#45;&gt;n33</title>
<path fill="none" stroke="black" d="M1420.9,-936.05C1425.97,-927.8 1432.17,-917.7 1437.8,-908.54"/>
<polygon fill="black" stroke="black" points="1440.93,-910.14 1443.18,-899.79 1434.96,-906.48 1440.93,-910.14"/>
</g>
<!-- n39 -->
<g id="node40" class="node">
<title>n39</title>
<ellipse fill="none" stroke="black" cx="1619.49" cy="-882" rx="88.28" ry="18"/>
<text text-anchor="middle" x="1619.49" y="-878.3" font-family="Times,serif" font-size="14.00">Statement:ELSE</text>
</g>
<!-- n26&#45;&gt;n39 -->
<g id="edge54" class="edge">
<title>n26&#45;&gt;n39</title>
<path fill="none" stroke="black" d="M1451.78,-939.17C1484.51,-928.21 1530.5,-912.81 1566.04,-900.9"/>
<polygon fill="black" stroke="black" points="1567.39,-904.14 1575.76,-897.65 1565.17,-897.5 1567.39,-904.14"/>
</g>
<!-- n28 -->
<g id="node29" class="node">
<title>n28</title>
<ellipse fill="none" stroke="black" cx="1137.49" cy="-810" rx="62.29" ry="18"/>
<text text-anchor="middle" x="1137.49" y="-806.3" font-family="Times,serif" font-size="14.00">Expression</text>
</g>
<!-- n27&#45;&gt;n28 -->
<g id="edge24" class="edge">
<title>n27&#45;&gt;n28</title>
<path fill="none" stroke="black" d="M1267.5,-866.15C1242.03,-855.35 1207.39,-840.65 1180.28,-829.15"/>
<polygon fill="black" stroke="black" points="1181.6,-825.91 1171.02,-825.23 1178.86,-832.35 1181.6,-825.91"/>
</g>
<!-- n31 -->
<g id="node32" class="node">
<title>n31</title>
<ellipse fill="none" stroke="black" cx="1302.49" cy="-810" rx="62.29" ry="18"/>
<text text-anchor="middle" x="1302.49" y="-806.3" font-family="Times,serif" font-size="14.00">Expression</text>
</g>
<!-- n27&#45;&gt;n31 -->
<g id="edge26" class="edge">
<title>n27&#45;&gt;n31</title>
<path fill="none" stroke="black" d="M1302.49,-863.7C1302.49,-855.98 1302.49,-846.71 1302.49,-838.11"/>
<polygon fill="black" stroke="black" points="1305.99,-838.1 1302.49,-828.1 1298.99,-838.1 1305.99,-838.1"/>
</g>
<!-- n29 -->
<g id="node30" class="node">
<title>n29</title>
<ellipse fill="none" stroke="black" cx="1115.49" cy="-738" rx="100.18" ry="18"/>
<text text-anchor="middle" x="1115.49" y="-734.3" font-family="Times,serif" font-size="14.00">PrimaryExpression</text>
</g>
<!-- n28&#45;&gt;n29 -->
<g id="edge23" class="edge">
<title>n28&#45;&gt;n29</title>
<path fill="none" stroke="black" d="M1132.17,-792.05C1129.72,-784.26 1126.75,-774.82 1124,-766.08"/>
<polygon fill="black" stroke="black" points="1127.26,-764.77 1120.92,-756.28 1120.58,-766.86 1127.26,-764.77"/>
</g>
<!-- n30 -->
<g id="node31" class="node">
<title>n30</title>
<ellipse fill="none" stroke="black" cx="1093.49" cy="-666" rx="77.19" ry="18"/>
<text text-anchor="middle" x="1093.49" y="-662.3" font-family="Times,serif" font-size="14.00">Identifier:num</text>
</g>
<!-- n29&#45;&gt;n30 -->
<g id="edge22" class="edge">
<title>n29&#45;&gt;n30</title>
<path fill="none" stroke="black" d="M1110.05,-719.7C1107.6,-711.9 1104.65,-702.51 1101.92,-693.83"/>
<polygon fill="black" stroke="black" points="1105.2,-692.59 1098.87,-684.1 1098.53,-694.69 1105.2,-692.59"/>
</g>
<!-- n32 -->
<g id="node33" class="node">
<title>n32</title>
<ellipse fill="none" stroke="black" cx="1302.49" cy="-738" rx="57.69" ry="18"/>
<text text-anchor="middle" x="1302.49" y="-734.3" font-family="Times,serif" font-size="14.00">Number:1</text>
</g>
<!-- n31&#45;&gt;n32 -->
<g id="edge25" class="edge">
<title>n31&#45;&gt;n32</title>
<path fill="none" stroke="black" d="M1302.49,-791.7C1302.49,-783.98 1302.49,-774.71 1302.49,-766.11"/>
<polygon fill="black" stroke="black" points="1305.99,-766.1 1302.49,-756.1 1298.99,-766.1 1305.99,-766.1"/>
</g>
<!-- n34 -->
<g id="node35" class="node">
<title>n34</title>
<ellipse fill="none" stroke="black" cx="1453.49" cy="-810" rx="64.19" ry="18"/>
<text text-anchor="middle" x="1453.49" y="-806.3" font-family="Times,serif" font-size="14.00">Statements</text>
</g>
<!-- n33&#45;&gt;n34 -->
<g id="edge32" class="edge">
<title>n33&#45;&gt;n34</title>
<path fill="none" stroke="black" d="M1453.49,-863.7C1453.49,-855.98 1453.49,-846.71 1453.49,-838.11"/>
<polygon fill="black" stroke="black" points="1456.99,-838.1 1453.49,-828.1 1449.99,-838.1 1456.99,-838.1"/>
</g>
<!-- n35 -->
<g id="node36" class="node">
<title>n35</title>
<ellipse fill="none" stroke="black" cx="1453.49" cy="-738" rx="70.39" ry="18"/>
<text text-anchor="middle" x="1453.49" y="-734.3" font-family="Times,serif" font-size="14.00">Statement:=</text>
</g>
<!-- n34&#45;&gt;n35 -->
<g id="edge31" class="edge">
<title>n34&#45;&gt;n35</title>
<path fill="none" stroke="black" d="M1453.49,-791.7C1453.49,-783.98 1453.49,-774.71 1453.49,-766.11"/>
<polygon fill="black" stroke="black" points="1456.99,-766.1 1453.49,-756.1 1449.99,-766.1 1456.99,-766.1"/>
</g>
<!-- n36 -->
<g id="node37" class="node">
<title>n36</title>
<ellipse fill="none" stroke="black" cx="1286.49" cy="-666" rx="98.28" ry="18"/>
<text text-anchor="middle" x="1286.49" y="-662.3" font-family="Times,serif" font-size="14.00">Identifier:num_aux</text>
</g>
<!-- n35&#45;&gt;n36 -->
<g id="edge28" class="edge">
<title>n35&#45;&gt;n36</title>
<path fill="none" stroke="black" d="M1418.48,-722.33C1393.76,-711.96 1360.35,-697.96 1333.33,-686.63"/>
<polygon fill="black" stroke="black" points="1334.64,-683.39 1324.07,-682.75 1331.94,-689.84 1334.64,-683.39"/>
</g>
<!-- n37 -->
<g id="node38" class="node">
<title>n37</title>
<ellipse fill="none" stroke="black" cx="1465.49" cy="-666" rx="62.29" ry="18"/>
<text text-anchor="middle" x="1465.49" y="-662.3" font-family="Times,serif" font-size="14.00">Expression</text>
</g>
<!-- n35&#45;&gt;n37 -->
<g id="edge30" class="edge">
<title>n35&#45;&gt;n37</title>
<path fill="none" stroke="black" d="M1456.46,-719.7C1457.78,-711.98 1459.37,-702.71 1460.84,-694.11"/>
<polygon fill="black" stroke="black" points="1464.32,-694.55 1462.56,-684.1 1457.42,-693.37 1464.32,-694.55"/>
</g>
<!-- n38 -->
<g id="node39" class="node">
<title>n38</title>
<ellipse fill="none" stroke="black" cx="1455.49" cy="-594" rx="57.69" ry="18"/>
<text text-anchor="middle" x="1455.49" y="-590.3" font-family="Times,serif" font-size="14.00">Number:1</text>
</g>
<!-- n37&#45;&gt;n38 -->
<g id="edge29" class="edge">
<title>n37&#45;&gt;n38</title>
<path fill="none" stroke="black" d="M1463.02,-647.7C1461.92,-639.98 1460.59,-630.71 1459.36,-622.11"/>
<polygon fill="black" stroke="black" points="1462.81,-621.51 1457.93,-612.1 1455.88,-622.5 1462.81,-621.51"/>
</g>
<!-- n40 -->
<g id="node41" class="node">
<title>n40</title>
<ellipse fill="none" stroke="black" cx="1619.49" cy="-810" rx="59.59" ry="18"/>
<text text-anchor="middle" x="1619.49" y="-806.3" font-family="Times,serif" font-size="14.00">Statement</text>
</g>
<!-- n39&#45;&gt;n40 -->
<g id="edge53" class="edge">
<title>n39&#45;&gt;n40</title>
<path fill="none" stroke="black" d="M1619.49,-863.7C1619.49,-855.98 1619.49,-846.71 1619.49,-838.11"/>
<polygon fill="black" stroke="black" points="1622.99,-838.1 1619.49,-828.1 1615.99,-838.1 1622.99,-838.1"/>
</g>
<!-- n41 -->
<g id="node42" class="node">
<title>n41</title>
<ellipse fill="none" stroke="black" cx="1619.49" cy="-738" rx="64.19" ry="18"/>
<text text-anchor="middle" x="1619.49" y="-734.3" font-family="Times,serif" font-size="14.00">Statements</text>
</g>
<!-- n40&#45;&gt;n41 -->
<g id="edge52" class="edge">
<title>n40&#45;&gt;n41</title>
<path fill="none" stroke="black" d="M1619.49,-791.7C1619.49,-783.98 1619.49,-774.71 1619.49,-766.11"/>
<polygon fill="black" stroke="black" points="1622.99,-766.1 1619.49,-756.1 1615.99,-766.1 1622.99,-766.1"/>
</g>
<!-- n42 -->
<g id="node43" class="node">
<title>n42</title>
<ellipse fill="none" stroke="black" cx="1629.49" cy="-666" rx="70.39" ry="18"/>
<text text-anchor="middle" x="1629.49" y="-662.3" font-family="Times,serif" font-size="14.00">Statement:=</text>
</g>
<!-- n41&#45;&gt;n42 -->
<g id="edge51" class="edge">
<title>n41&#45;&gt;n42</title>
<path fill="none" stroke="black" d="M1621.96,-719.7C1623.07,-711.98 1624.39,-702.71 1625.62,-694.11"/>
<polygon fill="black" stroke="black" points="1629.1,-694.5 1627.05,-684.1 1622.17,-693.51 1629.1,-694.5"/>
</g>
<!-- n43 -->
<g id="node44" class="node">
<title>n43</title>
<ellipse fill="none" stroke="black" cx="1629.49" cy="-594" rx="98.28" ry="18"/>
<text text-anchor="middle" x="1629.49" y="-590.3" font-family="Times,serif" font-size="14.00">Identifier:num_aux</text>
</g>
<!-- n42&#45;&gt;n43 -->
<g id="edge34" class="edge">
<title>n42&#45;&gt;n43</title>
<path fill="none" stroke="black" d="M1629.49,-647.7C1629.49,-639.98 1629.49,-630.71 1629.49,-622.11"/>
<polygon fill="black" stroke="black" points="1632.99,-622.1 1629.49,-612.1 1625.99,-622.1 1632.99,-622.1"/>
</g>
<!-- n44 -->
<g id="node45" class="node">
<title>n44</title>
<ellipse fill="none" stroke="black" cx="1815.49" cy="-594" rx="69.59" ry="18"/>
<text text-anchor="middle" x="1815.49" y="-590.3" font-family="Times,serif" font-size="14.00">Expression:*</text>
</g>
<!-- n42&#45;&gt;n44 -->
<g id="edge50" class="edge">
<title>n42&#45;&gt;n44</title>
<path fill="none" stroke="black" d="M1667.58,-650.67C1696.76,-639.68 1737.19,-624.47 1768.4,-612.72"/>
<polygon fill="black" stroke="black" points="1769.65,-615.99 1777.77,-609.2 1767.18,-609.44 1769.65,-615.99"/>
</g>
<!-- n45 -->
<g id="node46" class="node">
<title>n45</title>
<ellipse fill="none" stroke="black" cx="1734.49" cy="-522" rx="62.29" ry="18"/>
<text text-anchor="middle" x="1734.49" y="-518.3" font-family="Times,serif" font-size="14.00">Expression</text>
</g>
<!-- n44&#45;&gt;n45 -->
<g id="edge37" class="edge">
<title>n44&#45;&gt;n45</title>
<path fill="none" stroke="black" d="M1796.3,-576.41C1785.73,-567.28 1772.46,-555.81 1760.92,-545.84"/>
<polygon fill="black" stroke="black" points="1763.12,-543.12 1753.27,-539.23 1758.55,-548.42 1763.12,-543.12"/>
</g>
<!-- n48 -->
<g id="node49" class="node">
<title>n48</title>
<ellipse fill="none" stroke="black" cx="1896.49" cy="-522" rx="62.29" ry="18"/>
<text text-anchor="middle" x="1896.49" y="-518.3" font-family="Times,serif" font-size="14.00">Expression</text>
</g>
<!-- n44&#45;&gt;n48 -->
<g id="edge49" class="edge">
<title>n44&#45;&gt;n48</title>
<path fill="none" stroke="black" d="M1834.69,-576.41C1845.25,-567.28 1858.53,-555.81 1870.06,-545.84"/>
<polygon fill="black" stroke="black" points="1872.44,-548.42 1877.71,-539.23 1867.86,-543.12 1872.44,-548.42"/>
</g>
<!-- n46 -->
<g id="node47" class="node">
<title>n46</title>
<ellipse fill="none" stroke="black" cx="1697.49" cy="-450" rx="100.18" ry="18"/>
<text text-anchor="middle" x="1697.49" y="-446.3" font-family="Times,serif" font-size="14.00">PrimaryExpression</text>
</g>
<!-- n45&#45;&gt;n46 -->
<g id="edge36" class="edge">
<title>n45&#45;&gt;n46</title>
<path fill="none" stroke="black" d="M1725.53,-504.05C1721.28,-496.01 1716.1,-486.2 1711.35,-477.23"/>
<polygon fill="black" stroke="black" points="1714.39,-475.48 1706.62,-468.28 1708.2,-478.75 1714.39,-475.48"/>
</g>
<!-- n47 -->
<g id="node48" class="node">
<title>n47</title>
<ellipse fill="none" stroke="black" cx="1697.49" cy="-378" rx="77.19" ry="18"/>
<text text-anchor="middle" x="1697.49" y="-374.3" font-family="Times,serif" font-size="14.00">Identifier:num</text>
</g>
<!-- n46&#45;&gt;n47 -->
<g id="edge35" class="edge">
<title>n46&#45;&gt;n47</title>
<path fill="none" stroke="black" d="M1697.49,-431.7C1697.49,-423.98 1697.49,-414.71 1697.49,-406.11"/>
<polygon fill="black" stroke="black" points="1700.99,-406.1 1697.49,-396.1 1693.99,-406.1 1700.99,-406.1"/>
</g>
<!-- n49 -->
<g id="node50" class="node">
<title>n49</title>
<ellipse fill="none" stroke="black" cx="1915.49" cy="-450" rx="100.18" ry="18"/>
<text text-anchor="middle" x="1915.49" y="-446.3" font-family="Times,serif" font-size="14.00">PrimaryExpression</text>
</g>
<!-- n48&#45;&gt;n49 -->
<g id="edge48" class="edge">
<title>n48&#45;&gt;n49</title>
<path fill="none" stroke="black" d="M1901.19,-503.7C1903.3,-495.9 1905.85,-486.51 1908.21,-477.83"/>
<polygon fill="black" stroke="black" points="1911.61,-478.67 1910.85,-468.1 1904.85,-476.84 1911.61,-478.67"/>
</g>
<!-- n50 -->
<g id="node51" class="node">
<title>n50</title>
<ellipse fill="none" stroke="black" cx="1915.49" cy="-378" rx="62.29" ry="18"/>
<text text-anchor="middle" x="1915.49" y="-374.3" font-family="Times,serif" font-size="14.00">Expression</text>
</g>
<!-- n49&#45;&gt;n50 -->
<g id="edge47" class="edge">
<title>n49&#45;&gt;n50</title>
<path fill="none" stroke="black" d="M1915.49,-431.7C1915.49,-423.98 1915.49,-414.71 1915.49,-406.11"/>
<polygon fill="black" stroke="black" points="1918.99,-406.1 1915.49,-396.1 1911.99,-406.1 1918.99,-406.1"/>
</g>
<!-- n51 -->
<g id="node52" class="node">
<title>n51</title>
<ellipse fill="none" stroke="black" cx="1752.49" cy="-306" rx="30.59" ry="18"/>
<text text-anchor="middle" x="1752.49" y="-302.3" font-family="Times,serif" font-size="14.00">This</text>
</g>
<!-- n50&#45;&gt;n51 -->
<g id="edge38" class="edge">
<title>n50&#45;&gt;n51</title>
<path fill="none" stroke="black" d="M1882.11,-362.67C1854.12,-350.64 1814.32,-333.55 1786.23,-321.49"/>
<polygon fill="black" stroke="black" points="1787.39,-318.18 1776.82,-317.45 1784.62,-324.61 1787.39,-318.18"/>
</g>
<!-- n52 -->
<g id="node53" class="node">
<title>n52</title>
<ellipse fill="none" stroke="black" cx="1915.49" cy="-306" rx="114.28" ry="18"/>
<text text-anchor="middle" x="1915.49" y="-302.3" font-family="Times,serif" font-size="14.00">Identifier:ComputeFac</text>
</g>
<!-- n50&#45;&gt;n52 -->
<g id="edge39" class="edge">
<title>n50&#45;&gt;n52</title>
<path fill="none" stroke="black" d="M1915.49,-359.7C1915.49,-351.98 1915.49,-342.71 1915.49,-334.11"/>
<polygon fill="black" stroke="black" points="1918.99,-334.1 1915.49,-324.1 1911.99,-334.1 1918.99,-334.1"/>
</g>
<!-- n53 -->
<g id="node54" class="node">
<title>n53</title>
<ellipse fill="none" stroke="black" cx="2127.49" cy="-306" rx="79.89" ry="18"/>
<text text-anchor="middle" x="2127.49" y="-302.3" font-family="Times,serif" font-size="14.00">ExpressionList</text>
</g>
<!-- n50&#45;&gt;n53 -->
<g id="edge46" class="edge">
<title>n50&#45;&gt;n53</title>
<path fill="none" stroke="black" d="M1954.87,-364C1988.62,-352.86 2037.51,-336.71 2074.65,-324.45"/>
<polygon fill="black" stroke="black" points="2075.91,-327.72 2084.31,-321.26 2073.72,-321.07 2075.91,-327.72"/>
</g>
<!-- n54 -->
<g id="node55" class="node">
<title>n54</title>
<ellipse fill="none" stroke="black" cx="2127.49" cy="-234" rx="68.49" ry="18"/>
<text text-anchor="middle" x="2127.49" y="-230.3" font-family="Times,serif" font-size="14.00">Expression:&#45;</text>
</g>
<!-- n53&#45;&gt;n54 -->
<g id="edge45" class="edge">
<title>n53&#45;&gt;n54</title>
<path fill="none" stroke="black" d="M2127.49,-287.7C2127.49,-279.98 2127.49,-270.71 2127.49,-262.11"/>
<polygon fill="black" stroke="black" points="2130.99,-262.1 2127.49,-252.1 2123.99,-262.1 2130.99,-262.1"/>
</g>
<!-- n55 -->
<g id="node56" class="node">
<title>n55</title>
<ellipse fill="none" stroke="black" cx="2056.49" cy="-162" rx="62.29" ry="18"/>
<text text-anchor="middle" x="2056.49" y="-158.3" font-family="Times,serif" font-size="14.00">Expression</text>
</g>
<!-- n54&#45;&gt;n55 -->
<g id="edge42" class="edge">
<title>n54&#45;&gt;n55</title>
<path fill="none" stroke="black" d="M2110.67,-216.41C2101.65,-207.52 2090.38,-196.41 2080.46,-186.63"/>
<polygon fill="black" stroke="black" points="2082.77,-184 2073.2,-179.47 2077.86,-188.98 2082.77,-184"/>
</g>
<!-- n58 -->
<g id="node59" class="node">
<title>n58</title>
<ellipse fill="none" stroke="black" cx="2207.49" cy="-162" rx="62.29" ry="18"/>
<text text-anchor="middle" x="2207.49" y="-158.3" font-family="Times,serif" font-size="14.00">Expression</text>
</g>
<!-- n54&#45;&gt;n58 -->
<g id="edge44" class="edge">
<title>n54&#45;&gt;n58</title>
<path fill="none" stroke="black" d="M2146.45,-216.41C2156.89,-207.28 2170,-195.81 2181.39,-185.84"/>
<polygon fill="black" stroke="black" points="2183.72,-188.45 2188.94,-179.23 2179.11,-183.18 2183.72,-188.45"/>
</g>
<!-- n56 -->
<g id="node57" class="node">
<title>n56</title>
<ellipse fill="none" stroke="black" cx="2040.49" cy="-90" rx="100.18" ry="18"/>
<text text-anchor="middle" x="2040.49" y="-86.3" font-family="Times,serif" font-size="14.00">PrimaryExpression</text>
</g>
<!-- n55&#45;&gt;n56 -->
<g id="edge41" class="edge">
<title>n55&#45;&gt;n56</title>
<path fill="none" stroke="black" d="M2052.54,-143.7C2050.77,-135.98 2048.65,-126.71 2046.69,-118.11"/>
<polygon fill="black" stroke="black" points="2050.04,-117.07 2044.4,-108.1 2043.22,-118.63 2050.04,-117.07"/>
</g>
<!-- n57 -->
<g id="node58" class="node">
<title>n57</title>
<ellipse fill="none" stroke="black" cx="2040.49" cy="-18" rx="77.19" ry="18"/>
<text text-anchor="middle" x="2040.49" y="-14.3" font-family="Times,serif" font-size="14.00">Identifier:num</text>
</g>
<!-- n56&#45;&gt;n57 -->
<g id="edge40" class="edge">
<title>n56&#45;&gt;n57</title>
<path fill="none" stroke="black" d="M2040.49,-71.7C2040.49,-63.98 2040.49,-54.71 2040.49,-46.11"/>
<polygon fill="black" stroke="black" points="2043.99,-46.1 2040.49,-36.1 2036.99,-46.1 2043.99,-46.1"/>
</g>
<!-- n59 -->
<g id="node60" class="node">
<title>n59</title>
<ellipse fill="none" stroke="black" cx="2216.49" cy="-90" rx="57.69" ry="18"/>
<text text-anchor="middle" x="2216.49" y="-86.3" font-family="Times,serif" font-size="14.00">Number:1</text>
</g>
<!-- n58&#45;&gt;n59 -->
<g id="edge43" class="edge">
<title>n58&#45;&gt;n59</title>
<path fill="none" stroke="black" d="M2209.72,-143.7C2210.71,-135.98 2211.9,-126.71 2213.01,-118.11"/>
<polygon fill="black" stroke="black" points="2216.49,-118.47 2214.29,-108.1 2209.55,-117.58 2216.49,-118.47"/>
</g>
<!-- n61 -->
<g id="node62" class="node">
<title>n61</title>
<ellipse fill="none" stroke="black" cx="1793.49" cy="-882" rx="62.29" ry="18"/>
<text text-anchor="middle" x="1793.49" y="-878.3" font-family="Times,serif" font-size="14.00">Expression</text>
</g>
<!-- n60&#45;&gt;n61 -->
<g id="edge58" class="edge">
<title>n60&#45;&gt;n61</title>
<path fill="none" stroke="black" d="M1693.19,-939.17C1711.53,-928.9 1736.84,-914.73 1757.44,-903.19"/>
<polygon fill="black" stroke="black" points="1759.23,-906.2 1766.24,-898.26 1755.81,-900.09 1759.23,-906.2"/>
</g>
<!-- n62 -->
<g id="node63" class="node">
<title>n62</title>
<ellipse fill="none" stroke="black" cx="1798.49" cy="-810" rx="100.18" ry="18"/>
<text text-anchor="middle" x="1798.49" y="-806.3" font-family="Times,serif" font-size="14.00">PrimaryExpression</text>
</g>
<!-- n61&#45;&gt;n62 -->
<g id="edge57" class="edge">
<title>n61&#45;&gt;n62</title>
<path fill="none" stroke="black" d="M1794.73,-863.7C1795.28,-855.98 1795.94,-846.71 1796.55,-838.11"/>
<polygon fill="black" stroke="black" points="1800.05,-838.33 1797.27,-828.1 1793.07,-837.83 1800.05,-838.33"/>
</g>
<!-- n63 -->
<g id="node64" class="node">
<title>n63</title>
<ellipse fill="none" stroke="black" cx="1799.49" cy="-738" rx="98.28" ry="18"/>
<text text-anchor="middle" x="1799.49" y="-734.3" font-family="Times,serif" font-size="14.00">Identifier:num_aux</text>
</g>
<!-- n62&#45;&gt;n63 -->
<g id="edge56" class="edge">
<title>n62&#45;&gt;n63</title>
<path fill="none" stroke="black" d="M1798.74,-791.7C1798.85,-783.98 1798.98,-774.71 1799.1,-766.11"/>
<polygon fill="black" stroke="black" points="1802.6,-766.15 1799.25,-756.1 1795.6,-766.05 1802.6,-766.15"/>
</g>
</g>
</svg>
