<?xml version="1.0" encoding="UTF-8" standalone="no"?>
<!DOCTYPE svg PUBLIC "-//W3C//DTD SVG 1.1//EN"
 "http://www.w3.org/Graphics/SVG/1.1/DTD/svg11.dtd">
<!-- Generated by graphviz version 2.43.0 (0)
 -->
<!-- Title: %3 Pages: 1 -->
<svg width="6794pt" height="603pt"
 viewBox="0.00 0.00 6794.00 603.00" xmlns="http://www.w3.org/2000/svg" xmlns:xlink="http://www.w3.org/1999/xlink">
<g id="graph0" class="graph" transform="scale(1 1) rotate(0) translate(4 599)">
<title>%3</title>
<polygon fill="white" stroke="transparent" points="-4,4 -4,-599 6790,-599 6790,4 -4,4"/>
<text text-anchor="middle" x="3393" y="-579.8" font-family="Times,serif" font-size="14.00">Symbol Table</text>
<!-- n0 -->
<g id="node1" class="node">
<title>n0</title>
<polygon fill="none" stroke="black" points="3195,-572 2835,-572 2835,-480 3195,-480 3195,-572"/>
<text text-anchor="start" x="2986.5" y="-557.8" font-family="Arial" font-weight="bold" text-decoration="underline" font-size="14.00">Program</text>
<text text-anchor="start" x="2879.5" y="-529.8" font-family="Arial" font-size="14.00">name: Element; record: Class; type: Element</text>
<text text-anchor="start" x="2915" y="-515.8" font-family="Arial" font-size="14.00">name: LL; record: Class; type: LL</text>
<text text-anchor="start" x="2892.5" y="-501.8" font-family="Arial" font-size="14.00">name: LinkedList; record: Class; type: int</text>
<text text-anchor="start" x="2909" y="-487.8" font-family="Arial" font-size="14.00">name: List; record: Class; type: List</text>
</g>
<!-- n1 -->
<g id="node2" class="node">
<title>n1</title>
<polygon fill="none" stroke="black" points="927,-360 567,-360 567,-296 927,-296 927,-360"/>
<text text-anchor="start" x="691" y="-345.8" font-family="Arial" font-weight="bold" text-decoration="underline" font-size="14.00">Class: LinkedList</text>
<text text-anchor="start" x="628.5" y="-317.8" font-family="Arial" font-size="14.00">name: main; record: Method; type: void</text>
<text text-anchor="start" x="613.5" y="-303.8" font-family="Arial" font-size="14.00">name: this; record: Variable; type: LinkedList</text>
</g>
<!-- n0&#45;&#45;n1 -->
<g id="edge1" class="edge">
<title>n0&#45;&#45;n1</title>
<path fill="none" stroke="black" d="M2834.76,-521.02C2550.88,-513.48 1982.53,-493.2 1503,-444 1301.6,-423.34 1071.87,-386.48 919.04,-360.06"/>
</g>
<!-- n3 -->
<g id="node4" class="node">
<title>n3</title>
<polygon fill="none" stroke="black" points="1872,-416 1512,-416 1512,-240 1872,-240 1872,-416"/>
<text text-anchor="start" x="1643" y="-401.8" font-family="Arial" font-weight="bold" text-decoration="underline" font-size="14.00">Class: Element</text>
<text text-anchor="start" x="1580.5" y="-373.8" font-family="Arial" font-size="14.00">name: Age; record: Variable; type: int</text>
<text text-anchor="start" x="1549" y="-359.8" font-family="Arial" font-size="14.00">name: Compare; record: Method; type: boolean</text>
<text text-anchor="start" x="1559.5" y="-345.8" font-family="Arial" font-size="14.00">name: Equal; record: Method; type: boolean</text>
<text text-anchor="start" x="1570.5" y="-331.8" font-family="Arial" font-size="14.00">name: GetAge; record: Method; type: int</text>
<text text-anchor="start" x="1542.5" y="-317.8" font-family="Arial" font-size="14.00">name: GetMarried; record: Method; type: boolean</text>
<text text-anchor="start" x="1563.5" y="-303.8" font-family="Arial" font-size="14.00">name: GetSalary; record: Method; type: int</text>
<text text-anchor="start" x="1568" y="-289.8" font-family="Arial" font-size="14.00">name: Init; record: Method; type: boolean</text>
<text text-anchor="start" x="1552" y="-275.8" font-family="Arial" font-size="14.00">name: Married; record: Variable; type: boolean</text>
<text text-anchor="start" x="1573" y="-261.8" font-family="Arial" font-size="14.00">name: Salary; record: Variable; type: int</text>
<text text-anchor="start" x="1564" y="-247.8" font-family="Arial" font-size="14.00">name: this; record: Variable; type: Element</text>
</g>
<!-- n0&#45;&#45;n3 -->
<g id="edge3" class="edge">
<title>n0&#45;&#45;n3</title>
<path fill="none" stroke="black" d="M2834.85,-498.31C2582.08,-460.86 2124.85,-393.13 1872.1,-355.68"/>
</g>
<!-- n10 -->
<g id="node11" class="node">
<title>n10</title>
<polygon fill="none" stroke="black" points="4518,-444 4158,-444 4158,-212 4518,-212 4518,-444"/>
<text text-anchor="start" x="4303.5" y="-429.8" font-family="Arial" font-weight="bold" text-decoration="underline" font-size="14.00">Class: List</text>
<text text-anchor="start" x="4217" y="-401.8" font-family="Arial" font-size="14.00">name: Delete; record: Method; type: List</text>
<text text-anchor="start" x="4195" y="-387.8" font-family="Arial" font-size="14.00">name: GetElem; record: Method; type: Element</text>
<text text-anchor="start" x="4199.5" y="-373.8" font-family="Arial" font-size="14.00">name: GetEnd; record: Method; type: boolean</text>
<text text-anchor="start" x="4211.5" y="-359.8" font-family="Arial" font-size="14.00">name: GetNext; record: Method; type: List</text>
<text text-anchor="start" x="4214" y="-345.8" font-family="Arial" font-size="14.00">name: Init; record: Method; type: boolean</text>
<text text-anchor="start" x="4200.5" y="-331.8" font-family="Arial" font-size="14.00">name: InitNew; record: Method; type: boolean</text>
<text text-anchor="start" x="4219.5" y="-317.8" font-family="Arial" font-size="14.00">name: Insert; record: Method; type: List</text>
<text text-anchor="start" x="4209" y="-303.8" font-family="Arial" font-size="14.00">name: Print; record: Method; type: boolean</text>
<text text-anchor="start" x="4218.5" y="-289.8" font-family="Arial" font-size="14.00">name: Search; record: Method; type: int</text>
<text text-anchor="start" x="4199" y="-275.8" font-family="Arial" font-size="14.00">name: SetNext; record: Method; type: boolean</text>
<text text-anchor="start" x="4205.5" y="-261.8" font-family="Arial" font-size="14.00">name: elem; record: Variable; type: Element</text>
<text text-anchor="start" x="4210" y="-247.8" font-family="Arial" font-size="14.00">name: end; record: Variable; type: boolean</text>
<text text-anchor="start" x="4222" y="-233.8" font-family="Arial" font-size="14.00">name: next; record: Variable; type: List</text>
<text text-anchor="start" x="4224.5" y="-219.8" font-family="Arial" font-size="14.00">name: this; record: Variable; type: List</text>
</g>
<!-- n0&#45;&#45;n10 -->
<g id="edge10" class="edge">
<title>n0&#45;&#45;n10</title>
<path fill="none" stroke="black" d="M3195.15,-498.31C3447.92,-460.86 3905.15,-393.13 4157.9,-355.68"/>
</g>
<!-- n21 -->
<g id="node22" class="node">
<title>n21</title>
<polygon fill="none" stroke="black" points="5841,-360 5481,-360 5481,-296 5841,-296 5841,-360"/>
<text text-anchor="start" x="5630.5" y="-345.8" font-family="Arial" font-weight="bold" text-decoration="underline" font-size="14.00">Class: LL</text>
<text text-anchor="start" x="5548.5" y="-317.8" font-family="Arial" font-size="14.00">name: Start; record: Method; type: int</text>
<text text-anchor="start" x="5550.5" y="-303.8" font-family="Arial" font-size="14.00">name: this; record: Variable; type: LL</text>
</g>
<!-- n0&#45;&#45;n21 -->
<g id="edge21" class="edge">
<title>n0&#45;&#45;n21</title>
<path fill="none" stroke="black" d="M3195.27,-518.12C3478.89,-506.66 4046.55,-481.21 4527,-444 4864.37,-417.87 5257.01,-375.34 5480.55,-349.97"/>
</g>
<!-- n2 -->
<g id="node3" class="node">
<title>n2</title>
<polygon fill="none" stroke="black" points="360,-113 0,-113 0,-63 360,-63 360,-113"/>
<text text-anchor="start" x="135" y="-98.8" font-family="Arial" font-weight="bold" text-decoration="underline" font-size="14.00">Method: main</text>
<text text-anchor="start" x="55" y="-70.8" font-family="Arial" font-size="14.00">name: a; record: Parameter; type: String[]</text>
</g>
<!-- n1&#45;&#45;n2 -->
<g id="edge2" class="edge">
<title>n1&#45;&#45;n2</title>
<path fill="none" stroke="black" d="M665.76,-295.94C588.88,-266.21 470.45,-219.58 369,-176 321.71,-155.68 268.5,-131.03 230.62,-113.16"/>
</g>
<!-- n4 -->
<g id="node5" class="node">
<title>n4</title>
<polygon fill="none" stroke="black" points="738,-127 378,-127 378,-49 738,-49 738,-127"/>
<text text-anchor="start" x="519" y="-112.8" font-family="Arial" font-weight="bold" text-decoration="underline" font-size="14.00">Method: Init</text>
<text text-anchor="start" x="431.5" y="-84.8" font-family="Arial" font-size="14.00">name: v_Age; record: Parameter; type: int</text>
<text text-anchor="start" x="403.5" y="-70.8" font-family="Arial" font-size="14.00">name: v_Married; record: Parameter; type: boolean</text>
<text text-anchor="start" x="424.5" y="-56.8" font-family="Arial" font-size="14.00">name: v_Salary; record: Parameter; type: int</text>
</g>
<!-- n3&#45;&#45;n4 -->
<g id="edge4" class="edge">
<title>n3&#45;&#45;n4</title>
<path fill="none" stroke="black" d="M1511.73,-299.49C1247.77,-259.02 783.25,-187.01 747,-176 706.39,-163.66 663.24,-144.32 628.44,-127.01"/>
</g>
<!-- n5 -->
<g id="node6" class="node">
<title>n5</title>
<polygon fill="none" stroke="black" points="1116,-106 756,-106 756,-70 1116,-70 1116,-106"/>
<text text-anchor="start" x="883" y="-91.8" font-family="Arial" font-weight="bold" text-decoration="underline" font-size="14.00">Method: GetAge</text>
</g>
<!-- n3&#45;&#45;n5 -->
<g id="edge5" class="edge">
<title>n3&#45;&#45;n5</title>
<path fill="none" stroke="black" d="M1511.78,-287.35C1399.13,-260.52 1251.86,-221.71 1125,-176 1068.59,-155.67 1005.87,-125.13 968.74,-106.16"/>
</g>
<!-- n6 -->
<g id="node7" class="node">
<title>n6</title>
<polygon fill="none" stroke="black" points="1494,-106 1134,-106 1134,-70 1494,-70 1494,-106"/>
<text text-anchor="start" x="1253.5" y="-91.8" font-family="Arial" font-weight="bold" text-decoration="underline" font-size="14.00">Method: GetSalary</text>
</g>
<!-- n3&#45;&#45;n6 -->
<g id="edge6" class="edge">
<title>n3&#45;&#45;n6</title>
<path fill="none" stroke="black" d="M1553.66,-239.9C1475.66,-190.79 1385.24,-133.85 1341.08,-106.05"/>
</g>
<!-- n7 -->
<g id="node8" class="node">
<title>n7</title>
<polygon fill="none" stroke="black" points="1872,-106 1512,-106 1512,-70 1872,-70 1872,-106"/>
<text text-anchor="start" x="1627" y="-91.8" font-family="Arial" font-weight="bold" text-decoration="underline" font-size="14.00">Method: GetMarried</text>
</g>
<!-- n3&#45;&#45;n7 -->
<g id="edge7" class="edge">
<title>n3&#45;&#45;n7</title>
<path fill="none" stroke="black" d="M1692,-239.73C1692,-190.64 1692,-133.79 1692,-106.02"/>
</g>
<!-- n8 -->
<g id="node9" class="node">
<title>n8</title>
<polygon fill="none" stroke="black" points="2250,-141 1890,-141 1890,-35 2250,-35 2250,-141"/>
<text text-anchor="start" x="2023" y="-126.8" font-family="Arial" font-weight="bold" text-decoration="underline" font-size="14.00">Method: Equal</text>
<text text-anchor="start" x="1952" y="-98.8" font-family="Arial" font-size="14.00">name: aux01; record: Variable; type: int</text>
<text text-anchor="start" x="1952" y="-84.8" font-family="Arial" font-size="14.00">name: aux02; record: Variable; type: int</text>
<text text-anchor="start" x="1964.5" y="-70.8" font-family="Arial" font-size="14.00">name: nt; record: Variable; type: int</text>
<text text-anchor="start" x="1929.5" y="-56.8" font-family="Arial" font-size="14.00">name: other; record: Parameter; type: Element</text>
<text text-anchor="start" x="1933" y="-42.8" font-family="Arial" font-size="14.00">name: ret_val; record: Variable; type: boolean</text>
</g>
<!-- n3&#45;&#45;n8 -->
<g id="edge8" class="edge">
<title>n3&#45;&#45;n8</title>
<path fill="none" stroke="black" d="M1830.34,-239.9C1883.04,-206.72 1941.41,-169.96 1987.36,-141.03"/>
</g>
<!-- n9 -->
<g id="node10" class="node">
<title>n9</title>
<polygon fill="none" stroke="black" points="2628,-134 2268,-134 2268,-42 2628,-42 2628,-134"/>
<text text-anchor="start" x="2389.5" y="-119.8" font-family="Arial" font-weight="bold" text-decoration="underline" font-size="14.00">Method: Compare</text>
<text text-anchor="start" x="2330" y="-91.8" font-family="Arial" font-size="14.00">name: aux02; record: Variable; type: int</text>
<text text-anchor="start" x="2323.5" y="-77.8" font-family="Arial" font-size="14.00">name: num1; record: Parameter; type: int</text>
<text text-anchor="start" x="2323.5" y="-63.8" font-family="Arial" font-size="14.00">name: num2; record: Parameter; type: int</text>
<text text-anchor="start" x="2315" y="-49.8" font-family="Arial" font-size="14.00">name: retval; record: Variable; type: boolean</text>
</g>
<!-- n3&#45;&#45;n9 -->
<g id="edge9" class="edge">
<title>n3&#45;&#45;n9</title>
<path fill="none" stroke="black" d="M1872.22,-287.35C1984.87,-260.52 2132.14,-221.71 2259,-176 2292.13,-164.06 2327.44,-148.6 2358.47,-134.02"/>
</g>
<!-- n11 -->
<g id="node12" class="node">
<title>n11</title>
<polygon fill="none" stroke="black" points="3006,-106 2646,-106 2646,-70 3006,-70 3006,-106"/>
<text text-anchor="start" x="2787" y="-91.8" font-family="Arial" font-weight="bold" text-decoration="underline" font-size="14.00">Method: Init</text>
</g>
<!-- n10&#45;&#45;n11 -->
<g id="edge11" class="edge">
<title>n10&#45;&#45;n11</title>
<path fill="none" stroke="black" d="M4157.74,-324.42C3899.87,-316.72 3412.84,-287.19 3015,-176 2955.68,-159.42 2891.54,-126.34 2855.32,-106.08"/>
</g>
<!-- n12 -->
<g id="node13" class="node">
<title>n12</title>
<polygon fill="none" stroke="black" points="3384,-127 3024,-127 3024,-49 3384,-49 3384,-127"/>
<text text-anchor="start" x="3151" y="-112.8" font-family="Arial" font-weight="bold" text-decoration="underline" font-size="14.00">Method: InitNew</text>
<text text-anchor="start" x="3056.5" y="-84.8" font-family="Arial" font-size="14.00">name: v_elem; record: Parameter; type: Element</text>
<text text-anchor="start" x="3061.5" y="-70.8" font-family="Arial" font-size="14.00">name: v_end; record: Parameter; type: boolean</text>
<text text-anchor="start" x="3073.5" y="-56.8" font-family="Arial" font-size="14.00">name: v_next; record: Parameter; type: List</text>
</g>
<!-- n10&#45;&#45;n12 -->
<g id="edge12" class="edge">
<title>n10&#45;&#45;n12</title>
<path fill="none" stroke="black" d="M4157.95,-312.95C3965.34,-294.53 3652.52,-254.84 3393,-176 3352.39,-163.66 3309.24,-144.32 3274.44,-127.01"/>
</g>
<!-- n13 -->
<g id="node14" class="node">
<title>n13</title>
<polygon fill="none" stroke="black" points="3762,-134 3402,-134 3402,-42 3762,-42 3762,-134"/>
<text text-anchor="start" x="3535" y="-119.8" font-family="Arial" font-weight="bold" text-decoration="underline" font-size="14.00">Method: Insert</text>
<text text-anchor="start" x="3460.5" y="-91.8" font-family="Arial" font-size="14.00">name: aux02; record: Variable; type: List</text>
<text text-anchor="start" x="3460.5" y="-77.8" font-family="Arial" font-size="14.00">name: aux03; record: Variable; type: List</text>
<text text-anchor="start" x="3425.5" y="-63.8" font-family="Arial" font-size="14.00">name: new_elem; record: Parameter; type: Element</text>
<text text-anchor="start" x="3445" y="-49.8" font-family="Arial" font-size="14.00">name: ret_val; record: Variable; type: boolean</text>
</g>
<!-- n10&#45;&#45;n13 -->
<g id="edge13" class="edge">
<title>n10&#45;&#45;n13</title>
<path fill="none" stroke="black" d="M4157.78,-287.35C4045.13,-260.52 3897.86,-221.71 3771,-176 3737.87,-164.06 3702.56,-148.6 3671.53,-134.02"/>
</g>
<!-- n14 -->
<g id="node15" class="node">
<title>n14</title>
<polygon fill="none" stroke="black" points="4140,-113 3780,-113 3780,-63 4140,-63 4140,-113"/>
<text text-anchor="start" x="3906" y="-98.8" font-family="Arial" font-weight="bold" text-decoration="underline" font-size="14.00">Method: SetNext</text>
<text text-anchor="start" x="3829.5" y="-70.8" font-family="Arial" font-size="14.00">name: v_next; record: Parameter; type: List</text>
</g>
<!-- n10&#45;&#45;n14 -->
<g id="edge14" class="edge">
<title>n10&#45;&#45;n14</title>
<path fill="none" stroke="black" d="M4157.86,-213.58C4097.77,-175.74 4036.48,-137.16 3998.37,-113.16"/>
</g>
<!-- n15 -->
<g id="node16" class="node">
<title>n15</title>
<polygon fill="none" stroke="black" points="4518,-176 4158,-176 4158,0 4518,0 4518,-176"/>
<text text-anchor="start" x="4289" y="-161.8" font-family="Arial" font-weight="bold" text-decoration="underline" font-size="14.00">Method: Delete</text>
<text text-anchor="start" x="4216.5" y="-133.8" font-family="Arial" font-size="14.00">name: aux01; record: Variable; type: List</text>
<text text-anchor="start" x="4220" y="-119.8" font-family="Arial" font-size="14.00">name: aux04; record: Variable; type: int</text>
<text text-anchor="start" x="4203" y="-105.8" font-family="Arial" font-size="14.00">name: aux05; record: Variable; type: boolean</text>
<text text-anchor="start" x="4209" y="-91.8" font-family="Arial" font-size="14.00">name: e; record: Parameter; type: Element</text>
<text text-anchor="start" x="4207" y="-77.8" font-family="Arial" font-size="14.00">name: my_head; record: Variable; type: List</text>
<text text-anchor="start" x="4232.5" y="-63.8" font-family="Arial" font-size="14.00">name: nt; record: Variable; type: int</text>
<text text-anchor="start" x="4222" y="-49.8" font-family="Arial" font-size="14.00">name: prev; record: Variable; type: List</text>
<text text-anchor="start" x="4201" y="-35.8" font-family="Arial" font-size="14.00">name: ret_val; record: Variable; type: boolean</text>
<text text-anchor="start" x="4192" y="-21.8" font-family="Arial" font-size="14.00">name: var_elem; record: Variable; type: Element</text>
<text text-anchor="start" x="4197" y="-7.8" font-family="Arial" font-size="14.00">name: var_end; record: Variable; type: boolean</text>
</g>
<!-- n10&#45;&#45;n15 -->
<g id="edge15" class="edge">
<title>n10&#45;&#45;n15</title>
<path fill="none" stroke="black" d="M4338,-211.83C4338,-199.85 4338,-187.81 4338,-176.21"/>
</g>
<!-- n16 -->
<g id="node17" class="node">
<title>n16</title>
<polygon fill="none" stroke="black" points="4896,-148 4536,-148 4536,-28 4896,-28 4896,-148"/>
<text text-anchor="start" x="4664.5" y="-133.8" font-family="Arial" font-weight="bold" text-decoration="underline" font-size="14.00">Method: Search</text>
<text text-anchor="start" x="4594.5" y="-105.8" font-family="Arial" font-size="14.00">name: aux01; record: Variable; type: List</text>
<text text-anchor="start" x="4587" y="-91.8" font-family="Arial" font-size="14.00">name: e; record: Parameter; type: Element</text>
<text text-anchor="start" x="4585" y="-77.8" font-family="Arial" font-size="14.00">name: int_ret_val; record: Variable; type: int</text>
<text text-anchor="start" x="4610.5" y="-63.8" font-family="Arial" font-size="14.00">name: nt; record: Variable; type: int</text>
<text text-anchor="start" x="4570" y="-49.8" font-family="Arial" font-size="14.00">name: var_elem; record: Variable; type: Element</text>
<text text-anchor="start" x="4575" y="-35.8" font-family="Arial" font-size="14.00">name: var_end; record: Variable; type: boolean</text>
</g>
<!-- n10&#45;&#45;n16 -->
<g id="edge16" class="edge">
<title>n10&#45;&#45;n16</title>
<path fill="none" stroke="black" d="M4518.14,-213.58C4554.18,-190.89 4590.64,-167.93 4622.28,-148.01"/>
</g>
<!-- n17 -->
<g id="node18" class="node">
<title>n17</title>
<polygon fill="none" stroke="black" points="5274,-106 4914,-106 4914,-70 5274,-70 5274,-106"/>
<text text-anchor="start" x="5041" y="-91.8" font-family="Arial" font-weight="bold" text-decoration="underline" font-size="14.00">Method: GetEnd</text>
</g>
<!-- n10&#45;&#45;n17 -->
<g id="edge17" class="edge">
<title>n10&#45;&#45;n17</title>
<path fill="none" stroke="black" d="M4518.22,-287.35C4630.87,-260.52 4778.14,-221.71 4905,-176 4961.41,-155.67 5024.13,-125.13 5061.26,-106.16"/>
</g>
<!-- n18 -->
<g id="node19" class="node">
<title>n18</title>
<polygon fill="none" stroke="black" points="5652,-106 5292,-106 5292,-70 5652,-70 5652,-106"/>
<text text-anchor="start" x="5415" y="-91.8" font-family="Arial" font-weight="bold" text-decoration="underline" font-size="14.00">Method: GetElem</text>
</g>
<!-- n10&#45;&#45;n18 -->
<g id="edge18" class="edge">
<title>n10&#45;&#45;n18</title>
<path fill="none" stroke="black" d="M4518.05,-312.95C4710.66,-294.53 5023.48,-254.84 5283,-176 5341.41,-158.26 5405.07,-126.02 5441.59,-106.17"/>
</g>
<!-- n19 -->
<g id="node20" class="node">
<title>n19</title>
<polygon fill="none" stroke="black" points="6030,-106 5670,-106 5670,-70 6030,-70 6030,-106"/>
<text text-anchor="start" x="5795" y="-91.8" font-family="Arial" font-weight="bold" text-decoration="underline" font-size="14.00">Method: GetNext</text>
</g>
<!-- n10&#45;&#45;n19 -->
<g id="edge19" class="edge">
<title>n10&#45;&#45;n19</title>
<path fill="none" stroke="black" d="M4518.11,-309.65C4854.36,-276.78 5553.43,-206.06 5661,-176 5720.32,-159.42 5784.46,-126.34 5820.68,-106.08"/>
</g>
<!-- n20 -->
<g id="node21" class="node">
<title>n20</title>
<polygon fill="none" stroke="black" points="6408,-127 6048,-127 6048,-49 6408,-49 6408,-127"/>
<text text-anchor="start" x="6184" y="-112.8" font-family="Arial" font-weight="bold" text-decoration="underline" font-size="14.00">Method: Print</text>
<text text-anchor="start" x="6106.5" y="-84.8" font-family="Arial" font-size="14.00">name: aux01; record: Variable; type: List</text>
<text text-anchor="start" x="6082" y="-70.8" font-family="Arial" font-size="14.00">name: var_elem; record: Variable; type: Element</text>
<text text-anchor="start" x="6087" y="-56.8" font-family="Arial" font-size="14.00">name: var_end; record: Variable; type: boolean</text>
</g>
<!-- n10&#45;&#45;n20 -->
<g id="edge20" class="edge">
<title>n10&#45;&#45;n20</title>
<path fill="none" stroke="black" d="M4518.01,-306.63C4741.51,-281.83 5134.51,-239.82 5472,-212 5723.65,-191.26 5794.18,-237.84 6039,-176 6081.38,-165.3 6125.92,-145.28 6161.11,-127.14"/>
</g>
<!-- n22 -->
<g id="node23" class="node">
<title>n22</title>
<polygon fill="none" stroke="black" points="6786,-148 6426,-148 6426,-28 6786,-28 6786,-148"/>
<text text-anchor="start" x="6562" y="-133.8" font-family="Arial" font-weight="bold" text-decoration="underline" font-size="14.00">Method: Start</text>
<text text-anchor="start" x="6471" y="-105.8" font-family="Arial" font-size="14.00">name: aux01; record: Variable; type: boolean</text>
<text text-anchor="start" x="6475.5" y="-91.8" font-family="Arial" font-size="14.00">name: el01; record: Variable; type: Element</text>
<text text-anchor="start" x="6475.5" y="-77.8" font-family="Arial" font-size="14.00">name: el02; record: Variable; type: Element</text>
<text text-anchor="start" x="6475.5" y="-63.8" font-family="Arial" font-size="14.00">name: el03; record: Variable; type: Element</text>
<text text-anchor="start" x="6488" y="-49.8" font-family="Arial" font-size="14.00">name: head; record: Variable; type: List</text>
<text text-anchor="start" x="6473.5" y="-35.8" font-family="Arial" font-size="14.00">name: last_elem; record: Variable; type: List</text>
</g>
<!-- n21&#45;&#45;n22 -->
<g id="edge22" class="edge">
<title>n21&#45;&#45;n22</title>
<path fill="none" stroke="black" d="M5841.21,-303.16C5996.31,-279.78 6224.8,-238.47 6417,-176 6440.79,-168.27 6465.54,-158.35 6488.99,-148"/>
</g>
</g>
</svg>
