<?xml version="1.0" encoding="UTF-8" standalone="no"?>
<!DOCTYPE svg PUBLIC "-//W3C//DTD SVG 1.1//EN"
 "http://www.w3.org/Graphics/SVG/1.1/DTD/svg11.dtd">
<!-- Generated by graphviz version 2.40.1 (20161225.0304)
 -->
<!-- Title: %3 Pages: 1 -->
<svg width="2305pt" height="1340pt"
 viewBox="0.00 0.00 2304.64 1340.00" xmlns="http://www.w3.org/2000/svg" xmlns:xlink="http://www.w3.org/1999/xlink">
<g id="graph0" class="graph" transform="scale(1 1) rotate(0) translate(4 1336)">
<title>%3</title>
<polygon fill="#ffffff" stroke="transparent" points="-4,4 -4,-1336 2300.6361,-1336 2300.6361,4 -4,4"/>
<!-- n1 -->
<g id="node1" class="node">
<title>n1</title>
<ellipse fill="none" stroke="#000000" cx="435.7912" cy="-1314" rx="31.6951" ry="18"/>
<text text-anchor="middle" x="435.7912" y="-1310.3" font-family="Times,serif" font-size="14.00" fill="#000000">Goal</text>
</g>
<!-- n2 -->
<g id="node2" class="node">
<title>n2</title>
<ellipse fill="none" stroke="#000000" cx="351.7912" cy="-1242" rx="59.5901" ry="18"/>
<text text-anchor="middle" x="351.7912" y="-1238.3" font-family="Times,serif" font-size="14.00" fill="#000000">MainClass</text>
</g>
<!-- n1&#45;&gt;n2 -->
<g id="edge12" class="edge">
<title>n1&#45;&gt;n2</title>
<path fill="none" stroke="#000000" d="M417.977,-1298.7307C406.7303,-1289.0907 391.9739,-1276.4422 379.2491,-1265.5353"/>
<polygon fill="#000000" stroke="#000000" points="381.5086,-1262.8622 371.6382,-1259.0117 376.953,-1268.177 381.5086,-1262.8622"/>
</g>
<!-- n14 -->
<g id="node14" class="node">
<title>n14</title>
<ellipse fill="none" stroke="#000000" cx="591.7912" cy="-1242" rx="90.1842" ry="18"/>
<text text-anchor="middle" x="591.7912" y="-1238.3" font-family="Times,serif" font-size="14.00" fill="#000000">ClassDeclaration</text>
</g>
<!-- n1&#45;&gt;n14 -->
<g id="edge63" class="edge">
<title>n1&#45;&gt;n14</title>
<path fill="none" stroke="#000000" d="M460.5099,-1302.5914C483.5891,-1291.9394 518.5896,-1275.7853 546.6486,-1262.8351"/>
<polygon fill="#000000" stroke="#000000" points="548.258,-1265.9471 555.8709,-1258.5786 545.3246,-1259.5914 548.258,-1265.9471"/>
</g>
<!-- n3 -->
<g id="node3" class="node">
<title>n3</title>
<ellipse fill="none" stroke="#000000" cx="98.7912" cy="-1170" rx="98.5829" ry="18"/>
<text text-anchor="middle" x="98.7912" y="-1166.3" font-family="Times,serif" font-size="14.00" fill="#000000">Identifier:Factorial</text>
</g>
<!-- n2&#45;&gt;n3 -->
<g id="edge1" class="edge">
<title>n2&#45;&gt;n3</title>
<path fill="none" stroke="#000000" d="M308.299,-1229.6228C268.022,-1218.1605 207.6444,-1200.978 162.0373,-1187.9989"/>
<polygon fill="#000000" stroke="#000000" points="162.8265,-1184.5846 152.2503,-1185.2137 160.9104,-1191.3172 162.8265,-1184.5846"/>
</g>
<!-- n4 -->
<g id="node4" class="node">
<title>n4</title>
<ellipse fill="none" stroke="#000000" cx="278.7912" cy="-1170" rx="63.0888" ry="18"/>
<text text-anchor="middle" x="278.7912" y="-1166.3" font-family="Times,serif" font-size="14.00" fill="#000000">Identifier:a</text>
</g>
<!-- n2&#45;&gt;n4 -->
<g id="edge2" class="edge">
<title>n2&#45;&gt;n4</title>
<path fill="none" stroke="#000000" d="M334.12,-1224.5708C325.0412,-1215.6164 313.8221,-1204.551 303.8649,-1194.7302"/>
<polygon fill="#000000" stroke="#000000" points="306.1302,-1192.0485 296.5528,-1187.5182 301.2147,-1197.0323 306.1302,-1192.0485"/>
</g>
<!-- n5 -->
<g id="node5" class="node">
<title>n5</title>
<ellipse fill="none" stroke="#000000" cx="429.7912" cy="-1170" rx="69.5877" ry="18"/>
<text text-anchor="middle" x="429.7912" y="-1166.3" font-family="Times,serif" font-size="14.00" fill="#000000">MethodBody</text>
</g>
<!-- n2&#45;&gt;n5 -->
<g id="edge11" class="edge">
<title>n2&#45;&gt;n5</title>
<path fill="none" stroke="#000000" d="M370.6729,-1224.5708C380.4686,-1215.5286 392.5962,-1204.3338 403.3128,-1194.4417"/>
<polygon fill="#000000" stroke="#000000" points="405.8391,-1196.8729 410.8131,-1187.5182 401.0911,-1191.7292 405.8391,-1196.8729"/>
</g>
<!-- n6 -->
<g id="node6" class="node">
<title>n6</title>
<ellipse fill="none" stroke="#000000" cx="429.7912" cy="-1098" rx="128.0773" ry="18"/>
<text text-anchor="middle" x="429.7912" y="-1094.3" font-family="Times,serif" font-size="14.00" fill="#000000">Statement:S.O.PRINTLN</text>
</g>
<!-- n5&#45;&gt;n6 -->
<g id="edge10" class="edge">
<title>n5&#45;&gt;n6</title>
<path fill="none" stroke="#000000" d="M429.7912,-1151.8314C429.7912,-1144.131 429.7912,-1134.9743 429.7912,-1126.4166"/>
<polygon fill="#000000" stroke="#000000" points="433.2913,-1126.4132 429.7912,-1116.4133 426.2913,-1126.4133 433.2913,-1126.4132"/>
</g>
<!-- n7 -->
<g id="node7" class="node">
<title>n7</title>
<ellipse fill="none" stroke="#000000" cx="429.7912" cy="-1026" rx="62.2891" ry="18"/>
<text text-anchor="middle" x="429.7912" y="-1022.3" font-family="Times,serif" font-size="14.00" fill="#000000">Expression</text>
</g>
<!-- n6&#45;&gt;n7 -->
<g id="edge9" class="edge">
<title>n6&#45;&gt;n7</title>
<path fill="none" stroke="#000000" d="M429.7912,-1079.8314C429.7912,-1072.131 429.7912,-1062.9743 429.7912,-1054.4166"/>
<polygon fill="#000000" stroke="#000000" points="433.2913,-1054.4132 429.7912,-1044.4133 426.2913,-1054.4133 433.2913,-1054.4132"/>
</g>
<!-- n8 -->
<g id="node8" class="node">
<title>n8</title>
<ellipse fill="none" stroke="#000000" cx="167.7912" cy="-954" rx="128.0773" ry="18"/>
<text text-anchor="middle" x="167.7912" y="-950.3" font-family="Times,serif" font-size="14.00" fill="#000000">PrimaryExpression:NEW</text>
</g>
<!-- n7&#45;&gt;n8 -->
<g id="edge4" class="edge">
<title>n7&#45;&gt;n8</title>
<path fill="none" stroke="#000000" d="M384.4534,-1013.5408C343.5698,-1002.3055 282.8637,-985.623 236.1023,-972.7725"/>
<polygon fill="#000000" stroke="#000000" points="236.9177,-969.3669 226.3477,-970.0919 235.0628,-976.1167 236.9177,-969.3669"/>
</g>
<!-- n10 -->
<g id="node10" class="node">
<title>n10</title>
<ellipse fill="none" stroke="#000000" cx="429.7912" cy="-954" rx="116.1796" ry="18"/>
<text text-anchor="middle" x="429.7912" y="-950.3" font-family="Times,serif" font-size="14.00" fill="#000000">Identifier:ComputeFac</text>
</g>
<!-- n7&#45;&gt;n10 -->
<g id="edge5" class="edge">
<title>n7&#45;&gt;n10</title>
<path fill="none" stroke="#000000" d="M429.7912,-1007.8314C429.7912,-1000.131 429.7912,-990.9743 429.7912,-982.4166"/>
<polygon fill="#000000" stroke="#000000" points="433.2913,-982.4132 429.7912,-972.4133 426.2913,-982.4133 433.2913,-982.4132"/>
</g>
<!-- n11 -->
<g id="node11" class="node">
<title>n11</title>
<ellipse fill="none" stroke="#000000" cx="644.7912" cy="-954" rx="80.6858" ry="18"/>
<text text-anchor="middle" x="644.7912" y="-950.3" font-family="Times,serif" font-size="14.00" fill="#000000">ExpressionList</text>
</g>
<!-- n7&#45;&gt;n11 -->
<g id="edge8" class="edge">
<title>n7&#45;&gt;n11</title>
<path fill="none" stroke="#000000" d="M470.7372,-1012.2879C504.6253,-1000.9393 553.061,-984.7189 590.2373,-972.2692"/>
<polygon fill="#000000" stroke="#000000" points="591.5445,-975.5226 599.9155,-969.0282 589.3216,-968.8849 591.5445,-975.5226"/>
</g>
<!-- n9 -->
<g id="node9" class="node">
<title>n9</title>
<ellipse fill="none" stroke="#000000" cx="167.7912" cy="-882" rx="74.187" ry="18"/>
<text text-anchor="middle" x="167.7912" y="-878.3" font-family="Times,serif" font-size="14.00" fill="#000000">Identifier:Fac</text>
</g>
<!-- n8&#45;&gt;n9 -->
<g id="edge3" class="edge">
<title>n8&#45;&gt;n9</title>
<path fill="none" stroke="#000000" d="M167.7912,-935.8314C167.7912,-928.131 167.7912,-918.9743 167.7912,-910.4166"/>
<polygon fill="#000000" stroke="#000000" points="171.2913,-910.4132 167.7912,-900.4133 164.2913,-910.4133 171.2913,-910.4132"/>
</g>
<!-- n12 -->
<g id="node12" class="node">
<title>n12</title>
<ellipse fill="none" stroke="#000000" cx="644.7912" cy="-882" rx="62.2891" ry="18"/>
<text text-anchor="middle" x="644.7912" y="-878.3" font-family="Times,serif" font-size="14.00" fill="#000000">Expression</text>
</g>
<!-- n11&#45;&gt;n12 -->
<g id="edge7" class="edge">
<title>n11&#45;&gt;n12</title>
<path fill="none" stroke="#000000" d="M644.7912,-935.8314C644.7912,-928.131 644.7912,-918.9743 644.7912,-910.4166"/>
<polygon fill="#000000" stroke="#000000" points="648.2913,-910.4132 644.7912,-900.4133 641.2913,-910.4133 648.2913,-910.4132"/>
</g>
<!-- n13 -->
<g id="node13" class="node">
<title>n13</title>
<ellipse fill="none" stroke="#000000" cx="644.7912" cy="-810" rx="63.8893" ry="18"/>
<text text-anchor="middle" x="644.7912" y="-806.3" font-family="Times,serif" font-size="14.00" fill="#000000">Number:10</text>
</g>
<!-- n12&#45;&gt;n13 -->
<g id="edge6" class="edge">
<title>n12&#45;&gt;n13</title>
<path fill="none" stroke="#000000" d="M644.7912,-863.8314C644.7912,-856.131 644.7912,-846.9743 644.7912,-838.4166"/>
<polygon fill="#000000" stroke="#000000" points="648.2913,-838.4132 644.7912,-828.4133 641.2913,-838.4133 648.2913,-838.4132"/>
</g>
<!-- n15 -->
<g id="node15" class="node">
<title>n15</title>
<ellipse fill="none" stroke="#000000" cx="591.7912" cy="-1170" rx="74.187" ry="18"/>
<text text-anchor="middle" x="591.7912" y="-1166.3" font-family="Times,serif" font-size="14.00" fill="#000000">Identifier:Fac</text>
</g>
<!-- n14&#45;&gt;n15 -->
<g id="edge13" class="edge">
<title>n14&#45;&gt;n15</title>
<path fill="none" stroke="#000000" d="M591.7912,-1223.8314C591.7912,-1216.131 591.7912,-1206.9743 591.7912,-1198.4166"/>
<polygon fill="#000000" stroke="#000000" points="595.2913,-1198.4132 591.7912,-1188.4133 588.2913,-1198.4133 595.2913,-1198.4132"/>
</g>
<!-- n16 -->
<g id="node16" class="node">
<title>n16</title>
<ellipse fill="none" stroke="#000000" cx="753.7912" cy="-1170" rx="69.5877" ry="18"/>
<text text-anchor="middle" x="753.7912" y="-1166.3" font-family="Times,serif" font-size="14.00" fill="#000000">Declarations</text>
</g>
<!-- n14&#45;&gt;n16 -->
<g id="edge62" class="edge">
<title>n14&#45;&gt;n16</title>
<path fill="none" stroke="#000000" d="M628.9573,-1225.4817C652.8957,-1214.8424 684.1436,-1200.9545 709.3871,-1189.7352"/>
<polygon fill="#000000" stroke="#000000" points="711.0236,-1192.838 718.7402,-1185.5782 708.1806,-1186.4413 711.0236,-1192.838"/>
</g>
<!-- n17 -->
<g id="node17" class="node">
<title>n17</title>
<ellipse fill="none" stroke="#000000" cx="753.7912" cy="-1098" rx="100.9827" ry="18"/>
<text text-anchor="middle" x="753.7912" y="-1094.3" font-family="Times,serif" font-size="14.00" fill="#000000">MethodDeclaration</text>
</g>
<!-- n16&#45;&gt;n17 -->
<g id="edge61" class="edge">
<title>n16&#45;&gt;n17</title>
<path fill="none" stroke="#000000" d="M753.7912,-1151.8314C753.7912,-1144.131 753.7912,-1134.9743 753.7912,-1126.4166"/>
<polygon fill="#000000" stroke="#000000" points="757.2913,-1126.4132 753.7912,-1116.4133 750.2913,-1126.4133 757.2913,-1126.4132"/>
</g>
<!-- n18 -->
<g id="node18" class="node">
<title>n18</title>
<ellipse fill="none" stroke="#000000" cx="564.7912" cy="-1026" rx="49.2915" ry="18"/>
<text text-anchor="middle" x="564.7912" y="-1022.3" font-family="Times,serif" font-size="14.00" fill="#000000">Type:int</text>
</g>
<!-- n17&#45;&gt;n18 -->
<g id="edge14" class="edge">
<title>n17&#45;&gt;n18</title>
<path fill="none" stroke="#000000" d="M710.9042,-1081.6621C680.3404,-1070.0187 639.386,-1054.417 608.6131,-1042.694"/>
<polygon fill="#000000" stroke="#000000" points="609.5966,-1039.3234 599.0057,-1039.0341 607.1046,-1045.8648 609.5966,-1039.3234"/>
</g>
<!-- n19 -->
<g id="node19" class="node">
<title>n19</title>
<ellipse fill="none" stroke="#000000" cx="748.7912" cy="-1026" rx="116.1796" ry="18"/>
<text text-anchor="middle" x="748.7912" y="-1022.3" font-family="Times,serif" font-size="14.00" fill="#000000">Identifier:ComputeFac</text>
</g>
<!-- n17&#45;&gt;n19 -->
<g id="edge15" class="edge">
<title>n17&#45;&gt;n19</title>
<path fill="none" stroke="#000000" d="M752.5295,-1079.8314C751.9948,-1072.131 751.3589,-1062.9743 750.7646,-1054.4166"/>
<polygon fill="#000000" stroke="#000000" points="754.2544,-1054.1467 750.0699,-1044.4133 747.2712,-1054.6317 754.2544,-1054.1467"/>
</g>
<!-- n20 -->
<g id="node20" class="node">
<title>n20</title>
<ellipse fill="none" stroke="#000000" cx="993.7912" cy="-1026" rx="110.4804" ry="18"/>
<text text-anchor="middle" x="993.7912" y="-1022.3" font-family="Times,serif" font-size="14.00" fill="#000000">FormalParameterList</text>
</g>
<!-- n17&#45;&gt;n20 -->
<g id="edge18" class="edge">
<title>n17&#45;&gt;n20</title>
<path fill="none" stroke="#000000" d="M805.5722,-1082.4657C842.4121,-1071.4138 892.0969,-1056.5083 931.1683,-1044.7869"/>
<polygon fill="#000000" stroke="#000000" points="932.2863,-1048.1057 940.8588,-1041.8797 930.2748,-1041.4009 932.2863,-1048.1057"/>
</g>
<!-- n23 -->
<g id="node23" class="node">
<title>n23</title>
<ellipse fill="none" stroke="#000000" cx="1266.7912" cy="-1026" rx="69.5877" ry="18"/>
<text text-anchor="middle" x="1266.7912" y="-1022.3" font-family="Times,serif" font-size="14.00" fill="#000000">MethodBody</text>
</g>
<!-- n17&#45;&gt;n23 -->
<g id="edge60" class="edge">
<title>n17&#45;&gt;n23</title>
<path fill="none" stroke="#000000" d="M833.1037,-1086.8684C932.1487,-1072.9674 1100.1226,-1049.3921 1195.3441,-1036.0277"/>
<polygon fill="#000000" stroke="#000000" points="1196.0398,-1039.4644 1205.4563,-1034.6084 1195.0668,-1032.5324 1196.0398,-1039.4644"/>
</g>
<!-- n21 -->
<g id="node21" class="node">
<title>n21</title>
<ellipse fill="none" stroke="#000000" cx="848.7912" cy="-954" rx="49.2915" ry="18"/>
<text text-anchor="middle" x="848.7912" y="-950.3" font-family="Times,serif" font-size="14.00" fill="#000000">Type:int</text>
</g>
<!-- n20&#45;&gt;n21 -->
<g id="edge16" class="edge">
<title>n20&#45;&gt;n21</title>
<path fill="none" stroke="#000000" d="M959.0601,-1008.7542C937.5069,-998.0519 909.7751,-984.2816 887.5144,-973.2281"/>
<polygon fill="#000000" stroke="#000000" points="888.8563,-969.9867 878.3431,-968.674 885.7431,-976.2563 888.8563,-969.9867"/>
</g>
<!-- n22 -->
<g id="node22" class="node">
<title>n22</title>
<ellipse fill="none" stroke="#000000" cx="993.7912" cy="-954" rx="77.9862" ry="18"/>
<text text-anchor="middle" x="993.7912" y="-950.3" font-family="Times,serif" font-size="14.00" fill="#000000">Identifier:num</text>
</g>
<!-- n20&#45;&gt;n22 -->
<g id="edge17" class="edge">
<title>n20&#45;&gt;n22</title>
<path fill="none" stroke="#000000" d="M993.7912,-1007.8314C993.7912,-1000.131 993.7912,-990.9743 993.7912,-982.4166"/>
<polygon fill="#000000" stroke="#000000" points="997.2913,-982.4132 993.7912,-972.4133 990.2913,-982.4133 997.2913,-982.4132"/>
</g>
<!-- n24 -->
<g id="node24" class="node">
<title>n24</title>
<ellipse fill="none" stroke="#000000" cx="1170.7912" cy="-954" rx="80.6858" ry="18"/>
<text text-anchor="middle" x="1170.7912" y="-950.3" font-family="Times,serif" font-size="14.00" fill="#000000">VarDeclaration</text>
</g>
<!-- n23&#45;&gt;n24 -->
<g id="edge21" class="edge">
<title>n23&#45;&gt;n24</title>
<path fill="none" stroke="#000000" d="M1244.0406,-1008.937C1231.5513,-999.57 1215.8738,-987.8119 1202.2307,-977.5796"/>
<polygon fill="#000000" stroke="#000000" points="1204.1455,-974.6407 1194.0455,-971.4407 1199.9455,-980.2407 1204.1455,-974.6407"/>
</g>
<!-- n27 -->
<g id="node27" class="node">
<title>n27</title>
<ellipse fill="none" stroke="#000000" cx="1426.7912" cy="-954" rx="72.5877" ry="18"/>
<text text-anchor="middle" x="1426.7912" y="-950.3" font-family="Times,serif" font-size="14.00" fill="#000000">Statement:IF</text>
</g>
<!-- n23&#45;&gt;n27 -->
<g id="edge55" class="edge">
<title>n23&#45;&gt;n27</title>
<path fill="none" stroke="#000000" d="M1301.5089,-1010.3771C1325.143,-999.7417 1356.6393,-985.5684 1382.1385,-974.0937"/>
<polygon fill="#000000" stroke="#000000" points="1383.9059,-977.1365 1391.5888,-969.8411 1381.0333,-970.753 1383.9059,-977.1365"/>
</g>
<!-- n61 -->
<g id="node61" class="node">
<title>n61</title>
<ellipse fill="none" stroke="#000000" cx="1686.7912" cy="-954" rx="42.7926" ry="18"/>
<text text-anchor="middle" x="1686.7912" y="-950.3" font-family="Times,serif" font-size="14.00" fill="#000000">Return</text>
</g>
<!-- n23&#45;&gt;n61 -->
<g id="edge59" class="edge">
<title>n23&#45;&gt;n61</title>
<path fill="none" stroke="#000000" d="M1325.1904,-1015.9887C1408.1326,-1001.7701 1558.6341,-975.9698 1636.741,-962.58"/>
<polygon fill="#000000" stroke="#000000" points="1637.5462,-965.9931 1646.811,-960.8537 1636.3634,-959.0938 1637.5462,-965.9931"/>
</g>
<!-- n25 -->
<g id="node25" class="node">
<title>n25</title>
<ellipse fill="none" stroke="#000000" cx="960.7912" cy="-882" rx="49.2915" ry="18"/>
<text text-anchor="middle" x="960.7912" y="-878.3" font-family="Times,serif" font-size="14.00" fill="#000000">Type:int</text>
</g>
<!-- n24&#45;&gt;n25 -->
<g id="edge19" class="edge">
<title>n24&#45;&gt;n25</title>
<path fill="none" stroke="#000000" d="M1126.7684,-938.9064C1091.5891,-926.845 1042.4347,-909.9921 1006.7544,-897.7588"/>
<polygon fill="#000000" stroke="#000000" points="1007.6655,-894.3712 997.0709,-894.4387 1005.3952,-900.9928 1007.6655,-894.3712"/>
</g>
<!-- n26 -->
<g id="node26" class="node">
<title>n26</title>
<ellipse fill="none" stroke="#000000" cx="1127.7912" cy="-882" rx="99.3824" ry="18"/>
<text text-anchor="middle" x="1127.7912" y="-878.3" font-family="Times,serif" font-size="14.00" fill="#000000">Identifier:num_aux</text>
</g>
<!-- n24&#45;&gt;n26 -->
<g id="edge20" class="edge">
<title>n24&#45;&gt;n26</title>
<path fill="none" stroke="#000000" d="M1159.9405,-935.8314C1155.0143,-927.5829 1149.0903,-917.6635 1143.6769,-908.5992"/>
<polygon fill="#000000" stroke="#000000" points="1146.6219,-906.7042 1138.4895,-899.9134 1140.6121,-910.2935 1146.6219,-906.7042"/>
</g>
<!-- n28 -->
<g id="node28" class="node">
<title>n28</title>
<ellipse fill="none" stroke="#000000" cx="1318.7912" cy="-882" rx="73.387" ry="18"/>
<text text-anchor="middle" x="1318.7912" y="-878.3" font-family="Times,serif" font-size="14.00" fill="#000000">Expression:&lt;</text>
</g>
<!-- n27&#45;&gt;n28 -->
<g id="edge27" class="edge">
<title>n27&#45;&gt;n28</title>
<path fill="none" stroke="#000000" d="M1401.47,-937.1192C1386.951,-927.4399 1368.5354,-915.1628 1352.7714,-904.6534"/>
<polygon fill="#000000" stroke="#000000" points="1354.59,-901.6594 1344.328,-899.0245 1350.7071,-907.4837 1354.59,-901.6594"/>
</g>
<!-- n34 -->
<g id="node34" class="node">
<title>n34</title>
<ellipse fill="none" stroke="#000000" cx="1469.7912" cy="-882" rx="59.5901" ry="18"/>
<text text-anchor="middle" x="1469.7912" y="-878.3" font-family="Times,serif" font-size="14.00" fill="#000000">Statement</text>
</g>
<!-- n27&#45;&gt;n34 -->
<g id="edge33" class="edge">
<title>n27&#45;&gt;n34</title>
<path fill="none" stroke="#000000" d="M1437.6419,-935.8314C1442.5681,-927.5829 1448.4922,-917.6635 1453.9056,-908.5992"/>
<polygon fill="#000000" stroke="#000000" points="1456.9704,-910.2935 1459.0929,-899.9134 1450.9606,-906.7042 1456.9704,-910.2935"/>
</g>
<!-- n40 -->
<g id="node40" class="node">
<title>n40</title>
<ellipse fill="none" stroke="#000000" cx="1636.7912" cy="-882" rx="89.0842" ry="18"/>
<text text-anchor="middle" x="1636.7912" y="-878.3" font-family="Times,serif" font-size="14.00" fill="#000000">Statement:ELSE</text>
</g>
<!-- n27&#45;&gt;n40 -->
<g id="edge54" class="edge">
<title>n27&#45;&gt;n40</title>
<path fill="none" stroke="#000000" d="M1469.541,-939.3429C1501.9878,-928.2183 1546.8469,-912.838 1581.9392,-900.8064"/>
<polygon fill="#000000" stroke="#000000" points="1583.2353,-904.0621 1591.5596,-897.508 1580.9649,-897.4405 1583.2353,-904.0621"/>
</g>
<!-- n29 -->
<g id="node29" class="node">
<title>n29</title>
<ellipse fill="none" stroke="#000000" cx="1153.7912" cy="-810" rx="62.2891" ry="18"/>
<text text-anchor="middle" x="1153.7912" y="-806.3" font-family="Times,serif" font-size="14.00" fill="#000000">Expression</text>
</g>
<!-- n28&#45;&gt;n29 -->
<g id="edge24" class="edge">
<title>n28&#45;&gt;n29</title>
<path fill="none" stroke="#000000" d="M1282.5813,-866.1993C1257.5727,-855.2865 1224.1735,-840.7123 1197.6543,-829.1403"/>
<polygon fill="#000000" stroke="#000000" points="1198.7889,-825.8167 1188.2237,-825.0251 1195.9893,-832.2325 1198.7889,-825.8167"/>
</g>
<!-- n32 -->
<g id="node32" class="node">
<title>n32</title>
<ellipse fill="none" stroke="#000000" cx="1318.7912" cy="-810" rx="62.2891" ry="18"/>
<text text-anchor="middle" x="1318.7912" y="-806.3" font-family="Times,serif" font-size="14.00" fill="#000000">Expression</text>
</g>
<!-- n28&#45;&gt;n32 -->
<g id="edge26" class="edge">
<title>n28&#45;&gt;n32</title>
<path fill="none" stroke="#000000" d="M1318.7912,-863.8314C1318.7912,-856.131 1318.7912,-846.9743 1318.7912,-838.4166"/>
<polygon fill="#000000" stroke="#000000" points="1322.2913,-838.4132 1318.7912,-828.4133 1315.2913,-838.4133 1322.2913,-838.4132"/>
</g>
<!-- n30 -->
<g id="node30" class="node">
<title>n30</title>
<ellipse fill="none" stroke="#000000" cx="1130.7912" cy="-738" rx="100.1823" ry="18"/>
<text text-anchor="middle" x="1130.7912" y="-734.3" font-family="Times,serif" font-size="14.00" fill="#000000">PrimaryExpression</text>
</g>
<!-- n29&#45;&gt;n30 -->
<g id="edge23" class="edge">
<title>n29&#45;&gt;n30</title>
<path fill="none" stroke="#000000" d="M1147.9874,-791.8314C1145.5005,-784.0463 1142.5381,-774.7729 1139.7787,-766.1347"/>
<polygon fill="#000000" stroke="#000000" points="1143.0503,-764.874 1136.6732,-756.4133 1136.3823,-767.0041 1143.0503,-764.874"/>
</g>
<!-- n31 -->
<g id="node31" class="node">
<title>n31</title>
<ellipse fill="none" stroke="#000000" cx="1106.7912" cy="-666" rx="77.9862" ry="18"/>
<text text-anchor="middle" x="1106.7912" y="-662.3" font-family="Times,serif" font-size="14.00" fill="#000000">Identifier:num</text>
</g>
<!-- n30&#45;&gt;n31 -->
<g id="edge22" class="edge">
<title>n30&#45;&gt;n31</title>
<path fill="none" stroke="#000000" d="M1124.735,-719.8314C1122.14,-712.0463 1119.0489,-702.7729 1116.1695,-694.1347"/>
<polygon fill="#000000" stroke="#000000" points="1119.4117,-692.7933 1112.929,-684.4133 1112.7709,-695.0069 1119.4117,-692.7933"/>
</g>
<!-- n33 -->
<g id="node33" class="node">
<title>n33</title>
<ellipse fill="none" stroke="#000000" cx="1318.7912" cy="-738" rx="57.6901" ry="18"/>
<text text-anchor="middle" x="1318.7912" y="-734.3" font-family="Times,serif" font-size="14.00" fill="#000000">Number:1</text>
</g>
<!-- n32&#45;&gt;n33 -->
<g id="edge25" class="edge">
<title>n32&#45;&gt;n33</title>
<path fill="none" stroke="#000000" d="M1318.7912,-791.8314C1318.7912,-784.131 1318.7912,-774.9743 1318.7912,-766.4166"/>
<polygon fill="#000000" stroke="#000000" points="1322.2913,-766.4132 1318.7912,-756.4133 1315.2913,-766.4133 1322.2913,-766.4132"/>
</g>
<!-- n35 -->
<g id="node35" class="node">
<title>n35</title>
<ellipse fill="none" stroke="#000000" cx="1469.7912" cy="-810" rx="64.189" ry="18"/>
<text text-anchor="middle" x="1469.7912" y="-806.3" font-family="Times,serif" font-size="14.00" fill="#000000">Statements</text>
</g>
<!-- n34&#45;&gt;n35 -->
<g id="edge32" class="edge">
<title>n34&#45;&gt;n35</title>
<path fill="none" stroke="#000000" d="M1469.7912,-863.8314C1469.7912,-856.131 1469.7912,-846.9743 1469.7912,-838.4166"/>
<polygon fill="#000000" stroke="#000000" points="1473.2913,-838.4132 1469.7912,-828.4133 1466.2913,-838.4133 1473.2913,-838.4132"/>
</g>
<!-- n36 -->
<g id="node36" class="node">
<title>n36</title>
<ellipse fill="none" stroke="#000000" cx="1469.7912" cy="-738" rx="70.3881" ry="18"/>
<text text-anchor="middle" x="1469.7912" y="-734.3" font-family="Times,serif" font-size="14.00" fill="#000000">Statement:=</text>
</g>
<!-- n35&#45;&gt;n36 -->
<g id="edge31" class="edge">
<title>n35&#45;&gt;n36</title>
<path fill="none" stroke="#000000" d="M1469.7912,-791.8314C1469.7912,-784.131 1469.7912,-774.9743 1469.7912,-766.4166"/>
<polygon fill="#000000" stroke="#000000" points="1473.2913,-766.4132 1469.7912,-756.4133 1466.2913,-766.4133 1473.2913,-766.4132"/>
</g>
<!-- n37 -->
<g id="node37" class="node">
<title>n37</title>
<ellipse fill="none" stroke="#000000" cx="1301.7912" cy="-666" rx="99.3824" ry="18"/>
<text text-anchor="middle" x="1301.7912" y="-662.3" font-family="Times,serif" font-size="14.00" fill="#000000">Identifier:num_aux</text>
</g>
<!-- n36&#45;&gt;n37 -->
<g id="edge28" class="edge">
<title>n36&#45;&gt;n37</title>
<path fill="none" stroke="#000000" d="M1433.3377,-722.3771C1408.9282,-711.9158 1376.5317,-698.0316 1349.9969,-686.6596"/>
<polygon fill="#000000" stroke="#000000" points="1351.082,-683.3168 1340.5118,-682.5945 1348.3245,-689.7508 1351.082,-683.3168"/>
</g>
<!-- n38 -->
<g id="node38" class="node">
<title>n38</title>
<ellipse fill="none" stroke="#000000" cx="1481.7912" cy="-666" rx="62.2891" ry="18"/>
<text text-anchor="middle" x="1481.7912" y="-662.3" font-family="Times,serif" font-size="14.00" fill="#000000">Expression</text>
</g>
<!-- n36&#45;&gt;n38 -->
<g id="edge30" class="edge">
<title>n36&#45;&gt;n38</title>
<path fill="none" stroke="#000000" d="M1472.8193,-719.8314C1474.1027,-712.131 1475.6288,-702.9743 1477.0551,-694.4166"/>
<polygon fill="#000000" stroke="#000000" points="1480.5307,-694.8526 1478.7224,-684.4133 1473.6259,-693.7018 1480.5307,-694.8526"/>
</g>
<!-- n39 -->
<g id="node39" class="node">
<title>n39</title>
<ellipse fill="none" stroke="#000000" cx="1471.7912" cy="-594" rx="57.6901" ry="18"/>
<text text-anchor="middle" x="1471.7912" y="-590.3" font-family="Times,serif" font-size="14.00" fill="#000000">Number:1</text>
</g>
<!-- n38&#45;&gt;n39 -->
<g id="edge29" class="edge">
<title>n38&#45;&gt;n39</title>
<path fill="none" stroke="#000000" d="M1479.2678,-647.8314C1478.1983,-640.131 1476.9266,-630.9743 1475.738,-622.4166"/>
<polygon fill="#000000" stroke="#000000" points="1479.1911,-621.8367 1474.3486,-612.4133 1472.2577,-622.7997 1479.1911,-621.8367"/>
</g>
<!-- n41 -->
<g id="node41" class="node">
<title>n41</title>
<ellipse fill="none" stroke="#000000" cx="1636.7912" cy="-810" rx="59.5901" ry="18"/>
<text text-anchor="middle" x="1636.7912" y="-806.3" font-family="Times,serif" font-size="14.00" fill="#000000">Statement</text>
</g>
<!-- n40&#45;&gt;n41 -->
<g id="edge53" class="edge">
<title>n40&#45;&gt;n41</title>
<path fill="none" stroke="#000000" d="M1636.7912,-863.8314C1636.7912,-856.131 1636.7912,-846.9743 1636.7912,-838.4166"/>
<polygon fill="#000000" stroke="#000000" points="1640.2913,-838.4132 1636.7912,-828.4133 1633.2913,-838.4133 1640.2913,-838.4132"/>
</g>
<!-- n42 -->
<g id="node42" class="node">
<title>n42</title>
<ellipse fill="none" stroke="#000000" cx="1636.7912" cy="-738" rx="64.189" ry="18"/>
<text text-anchor="middle" x="1636.7912" y="-734.3" font-family="Times,serif" font-size="14.00" fill="#000000">Statements</text>
</g>
<!-- n41&#45;&gt;n42 -->
<g id="edge52" class="edge">
<title>n41&#45;&gt;n42</title>
<path fill="none" stroke="#000000" d="M1636.7912,-791.8314C1636.7912,-784.131 1636.7912,-774.9743 1636.7912,-766.4166"/>
<polygon fill="#000000" stroke="#000000" points="1640.2913,-766.4132 1636.7912,-756.4133 1633.2913,-766.4133 1640.2913,-766.4132"/>
</g>
<!-- n43 -->
<g id="node43" class="node">
<title>n43</title>
<ellipse fill="none" stroke="#000000" cx="1646.7912" cy="-666" rx="70.3881" ry="18"/>
<text text-anchor="middle" x="1646.7912" y="-662.3" font-family="Times,serif" font-size="14.00" fill="#000000">Statement:=</text>
</g>
<!-- n42&#45;&gt;n43 -->
<g id="edge51" class="edge">
<title>n42&#45;&gt;n43</title>
<path fill="none" stroke="#000000" d="M1639.3147,-719.8314C1640.3842,-712.131 1641.6559,-702.9743 1642.8445,-694.4166"/>
<polygon fill="#000000" stroke="#000000" points="1646.3248,-694.7997 1644.2338,-684.4133 1639.3913,-693.8367 1646.3248,-694.7997"/>
</g>
<!-- n44 -->
<g id="node44" class="node">
<title>n44</title>
<ellipse fill="none" stroke="#000000" cx="1646.7912" cy="-594" rx="99.3824" ry="18"/>
<text text-anchor="middle" x="1646.7912" y="-590.3" font-family="Times,serif" font-size="14.00" fill="#000000">Identifier:num_aux</text>
</g>
<!-- n43&#45;&gt;n44 -->
<g id="edge34" class="edge">
<title>n43&#45;&gt;n44</title>
<path fill="none" stroke="#000000" d="M1646.7912,-647.8314C1646.7912,-640.131 1646.7912,-630.9743 1646.7912,-622.4166"/>
<polygon fill="#000000" stroke="#000000" points="1650.2913,-622.4132 1646.7912,-612.4133 1643.2913,-622.4133 1650.2913,-622.4132"/>
</g>
<!-- n45 -->
<g id="node45" class="node">
<title>n45</title>
<ellipse fill="none" stroke="#000000" cx="1834.7912" cy="-594" rx="70.3881" ry="18"/>
<text text-anchor="middle" x="1834.7912" y="-590.3" font-family="Times,serif" font-size="14.00" fill="#000000">Expression:*</text>
</g>
<!-- n43&#45;&gt;n45 -->
<g id="edge50" class="edge">
<title>n43&#45;&gt;n45</title>
<path fill="none" stroke="#000000" d="M1686.2022,-650.9064C1715.2801,-639.7702 1755.0233,-624.5494 1786.0906,-612.6513"/>
<polygon fill="#000000" stroke="#000000" points="1787.3454,-615.9187 1795.4322,-609.0737 1784.8418,-609.3817 1787.3454,-615.9187"/>
</g>
<!-- n46 -->
<g id="node46" class="node">
<title>n46</title>
<ellipse fill="none" stroke="#000000" cx="1753.7912" cy="-522" rx="62.2891" ry="18"/>
<text text-anchor="middle" x="1753.7912" y="-518.3" font-family="Times,serif" font-size="14.00" fill="#000000">Expression</text>
</g>
<!-- n45&#45;&gt;n46 -->
<g id="edge37" class="edge">
<title>n45&#45;&gt;n46</title>
<path fill="none" stroke="#000000" d="M1815.1834,-576.5708C1804.836,-567.3732 1791.9832,-555.9484 1780.7156,-545.9328"/>
<polygon fill="#000000" stroke="#000000" points="1783.0179,-543.2964 1773.2185,-539.2687 1778.3673,-548.5283 1783.0179,-543.2964"/>
</g>
<!-- n49 -->
<g id="node49" class="node">
<title>n49</title>
<ellipse fill="none" stroke="#000000" cx="1915.7912" cy="-522" rx="62.2891" ry="18"/>
<text text-anchor="middle" x="1915.7912" y="-518.3" font-family="Times,serif" font-size="14.00" fill="#000000">Expression</text>
</g>
<!-- n45&#45;&gt;n49 -->
<g id="edge49" class="edge">
<title>n45&#45;&gt;n49</title>
<path fill="none" stroke="#000000" d="M1854.3991,-576.5708C1864.7464,-567.3732 1877.5993,-555.9484 1888.8669,-545.9328"/>
<polygon fill="#000000" stroke="#000000" points="1891.2151,-548.5283 1896.364,-539.2687 1886.5646,-543.2964 1891.2151,-548.5283"/>
</g>
<!-- n47 -->
<g id="node47" class="node">
<title>n47</title>
<ellipse fill="none" stroke="#000000" cx="1716.7912" cy="-450" rx="100.1823" ry="18"/>
<text text-anchor="middle" x="1716.7912" y="-446.3" font-family="Times,serif" font-size="14.00" fill="#000000">PrimaryExpression</text>
</g>
<!-- n46&#45;&gt;n47 -->
<g id="edge36" class="edge">
<title>n46&#45;&gt;n47</title>
<path fill="none" stroke="#000000" d="M1744.4546,-503.8314C1740.367,-495.8771 1735.4809,-486.369 1730.9603,-477.5723"/>
<polygon fill="#000000" stroke="#000000" points="1733.9374,-475.7078 1726.2536,-468.4133 1727.7113,-478.9074 1733.9374,-475.7078"/>
</g>
<!-- n48 -->
<g id="node48" class="node">
<title>n48</title>
<ellipse fill="none" stroke="#000000" cx="1716.7912" cy="-378" rx="77.9862" ry="18"/>
<text text-anchor="middle" x="1716.7912" y="-374.3" font-family="Times,serif" font-size="14.00" fill="#000000">Identifier:num</text>
</g>
<!-- n47&#45;&gt;n48 -->
<g id="edge35" class="edge">
<title>n47&#45;&gt;n48</title>
<path fill="none" stroke="#000000" d="M1716.7912,-431.8314C1716.7912,-424.131 1716.7912,-414.9743 1716.7912,-406.4166"/>
<polygon fill="#000000" stroke="#000000" points="1720.2913,-406.4132 1716.7912,-396.4133 1713.2913,-406.4133 1720.2913,-406.4132"/>
</g>
<!-- n50 -->
<g id="node50" class="node">
<title>n50</title>
<ellipse fill="none" stroke="#000000" cx="1934.7912" cy="-450" rx="100.1823" ry="18"/>
<text text-anchor="middle" x="1934.7912" y="-446.3" font-family="Times,serif" font-size="14.00" fill="#000000">PrimaryExpression</text>
</g>
<!-- n49&#45;&gt;n50 -->
<g id="edge48" class="edge">
<title>n49&#45;&gt;n50</title>
<path fill="none" stroke="#000000" d="M1920.5857,-503.8314C1922.6401,-496.0463 1925.0873,-486.7729 1927.3668,-478.1347"/>
<polygon fill="#000000" stroke="#000000" points="1930.7647,-478.9753 1929.9322,-468.4133 1923.9964,-477.1892 1930.7647,-478.9753"/>
</g>
<!-- n51 -->
<g id="node51" class="node">
<title>n51</title>
<ellipse fill="none" stroke="#000000" cx="1934.7912" cy="-378" rx="62.2891" ry="18"/>
<text text-anchor="middle" x="1934.7912" y="-374.3" font-family="Times,serif" font-size="14.00" fill="#000000">Expression</text>
</g>
<!-- n50&#45;&gt;n51 -->
<g id="edge47" class="edge">
<title>n50&#45;&gt;n51</title>
<path fill="none" stroke="#000000" d="M1934.7912,-431.8314C1934.7912,-424.131 1934.7912,-414.9743 1934.7912,-406.4166"/>
<polygon fill="#000000" stroke="#000000" points="1938.2913,-406.4132 1934.7912,-396.4133 1931.2913,-406.4133 1938.2913,-406.4132"/>
</g>
<!-- n52 -->
<g id="node52" class="node">
<title>n52</title>
<ellipse fill="none" stroke="#000000" cx="1769.7912" cy="-306" rx="30.5947" ry="18"/>
<text text-anchor="middle" x="1769.7912" y="-302.3" font-family="Times,serif" font-size="14.00" fill="#000000">This</text>
</g>
<!-- n51&#45;&gt;n52 -->
<g id="edge38" class="edge">
<title>n51&#45;&gt;n52</title>
<path fill="none" stroke="#000000" d="M1899.7074,-363.0111C1874.6185,-352.2515 1840.0734,-337.3535 1809.7912,-324 1807.7532,-323.1013 1805.6586,-322.1729 1803.5471,-321.2335"/>
<polygon fill="#000000" stroke="#000000" points="1804.8615,-317.9873 1794.3038,-317.1008 1802.0043,-324.3776 1804.8615,-317.9873"/>
</g>
<!-- n53 -->
<g id="node53" class="node">
<title>n53</title>
<ellipse fill="none" stroke="#000000" cx="1934.7912" cy="-306" rx="116.1796" ry="18"/>
<text text-anchor="middle" x="1934.7912" y="-302.3" font-family="Times,serif" font-size="14.00" fill="#000000">Identifier:ComputeFac</text>
</g>
<!-- n51&#45;&gt;n53 -->
<g id="edge39" class="edge">
<title>n51&#45;&gt;n53</title>
<path fill="none" stroke="#000000" d="M1934.7912,-359.8314C1934.7912,-352.131 1934.7912,-342.9743 1934.7912,-334.4166"/>
<polygon fill="#000000" stroke="#000000" points="1938.2913,-334.4132 1934.7912,-324.4133 1931.2913,-334.4133 1938.2913,-334.4132"/>
</g>
<!-- n54 -->
<g id="node54" class="node">
<title>n54</title>
<ellipse fill="none" stroke="#000000" cx="2149.7912" cy="-306" rx="80.6858" ry="18"/>
<text text-anchor="middle" x="2149.7912" y="-302.3" font-family="Times,serif" font-size="14.00" fill="#000000">ExpressionList</text>
</g>
<!-- n51&#45;&gt;n54 -->
<g id="edge46" class="edge">
<title>n51&#45;&gt;n54</title>
<path fill="none" stroke="#000000" d="M1975.7372,-364.2879C2009.6253,-352.9393 2058.061,-336.7189 2095.2373,-324.2692"/>
<polygon fill="#000000" stroke="#000000" points="2096.5445,-327.5226 2104.9155,-321.0282 2094.3216,-320.8849 2096.5445,-327.5226"/>
</g>
<!-- n55 -->
<g id="node55" class="node">
<title>n55</title>
<ellipse fill="none" stroke="#000000" cx="2149.7912" cy="-234" rx="68.4888" ry="18"/>
<text text-anchor="middle" x="2149.7912" y="-230.3" font-family="Times,serif" font-size="14.00" fill="#000000">Expression:&#45;</text>
</g>
<!-- n54&#45;&gt;n55 -->
<g id="edge45" class="edge">
<title>n54&#45;&gt;n55</title>
<path fill="none" stroke="#000000" d="M2149.7912,-287.8314C2149.7912,-280.131 2149.7912,-270.9743 2149.7912,-262.4166"/>
<polygon fill="#000000" stroke="#000000" points="2153.2913,-262.4132 2149.7912,-252.4133 2146.2913,-262.4133 2153.2913,-262.4132"/>
</g>
<!-- n56 -->
<g id="node56" class="node">
<title>n56</title>
<ellipse fill="none" stroke="#000000" cx="2078.7912" cy="-162" rx="62.2891" ry="18"/>
<text text-anchor="middle" x="2078.7912" y="-158.3" font-family="Times,serif" font-size="14.00" fill="#000000">Expression</text>
</g>
<!-- n55&#45;&gt;n56 -->
<g id="edge42" class="edge">
<title>n55&#45;&gt;n56</title>
<path fill="none" stroke="#000000" d="M2132.6041,-216.5708C2123.774,-207.6164 2112.8624,-196.551 2103.1779,-186.7302"/>
<polygon fill="#000000" stroke="#000000" points="2105.5798,-184.1811 2096.0662,-179.5182 2100.5955,-189.0961 2105.5798,-184.1811"/>
</g>
<!-- n59 -->
<g id="node59" class="node">
<title>n59</title>
<ellipse fill="none" stroke="#000000" cx="2229.7912" cy="-162" rx="62.2891" ry="18"/>
<text text-anchor="middle" x="2229.7912" y="-158.3" font-family="Times,serif" font-size="14.00" fill="#000000">Expression</text>
</g>
<!-- n55&#45;&gt;n59 -->
<g id="edge44" class="edge">
<title>n55&#45;&gt;n59</title>
<path fill="none" stroke="#000000" d="M2169.157,-216.5708C2179.2784,-207.4616 2191.8269,-196.1679 2202.8778,-186.2221"/>
<polygon fill="#000000" stroke="#000000" points="2205.5122,-188.5599 2210.6038,-179.2687 2200.8295,-183.3568 2205.5122,-188.5599"/>
</g>
<!-- n57 -->
<g id="node57" class="node">
<title>n57</title>
<ellipse fill="none" stroke="#000000" cx="2062.7912" cy="-90" rx="100.1823" ry="18"/>
<text text-anchor="middle" x="2062.7912" y="-86.3" font-family="Times,serif" font-size="14.00" fill="#000000">PrimaryExpression</text>
</g>
<!-- n56&#45;&gt;n57 -->
<g id="edge41" class="edge">
<title>n56&#45;&gt;n57</title>
<path fill="none" stroke="#000000" d="M2074.7538,-143.8314C2073.0426,-136.131 2071.0078,-126.9743 2069.106,-118.4166"/>
<polygon fill="#000000" stroke="#000000" points="2072.4691,-117.4159 2066.8831,-108.4133 2065.6358,-118.9344 2072.4691,-117.4159"/>
</g>
<!-- n58 -->
<g id="node58" class="node">
<title>n58</title>
<ellipse fill="none" stroke="#000000" cx="2062.7912" cy="-18" rx="77.9862" ry="18"/>
<text text-anchor="middle" x="2062.7912" y="-14.3" font-family="Times,serif" font-size="14.00" fill="#000000">Identifier:num</text>
</g>
<!-- n57&#45;&gt;n58 -->
<g id="edge40" class="edge">
<title>n57&#45;&gt;n58</title>
<path fill="none" stroke="#000000" d="M2062.7912,-71.8314C2062.7912,-64.131 2062.7912,-54.9743 2062.7912,-46.4166"/>
<polygon fill="#000000" stroke="#000000" points="2066.2913,-46.4132 2062.7912,-36.4133 2059.2913,-46.4133 2066.2913,-46.4132"/>
</g>
<!-- n60 -->
<g id="node60" class="node">
<title>n60</title>
<ellipse fill="none" stroke="#000000" cx="2238.7912" cy="-90" rx="57.6901" ry="18"/>
<text text-anchor="middle" x="2238.7912" y="-86.3" font-family="Times,serif" font-size="14.00" fill="#000000">Number:1</text>
</g>
<!-- n59&#45;&gt;n60 -->
<g id="edge43" class="edge">
<title>n59&#45;&gt;n60</title>
<path fill="none" stroke="#000000" d="M2232.0623,-143.8314C2233.0249,-136.131 2234.1694,-126.9743 2235.2392,-118.4166"/>
<polygon fill="#000000" stroke="#000000" points="2238.7221,-118.7702 2236.4896,-108.4133 2231.7762,-117.9019 2238.7221,-118.7702"/>
</g>
<!-- n62 -->
<g id="node62" class="node">
<title>n62</title>
<ellipse fill="none" stroke="#000000" cx="1811.7912" cy="-882" rx="62.2891" ry="18"/>
<text text-anchor="middle" x="1811.7912" y="-878.3" font-family="Times,serif" font-size="14.00" fill="#000000">Expression</text>
</g>
<!-- n61&#45;&gt;n62 -->
<g id="edge58" class="edge">
<title>n61&#45;&gt;n62</title>
<path fill="none" stroke="#000000" d="M1712.0868,-939.4297C1730.0274,-929.096 1754.3984,-915.0583 1774.5544,-903.4484"/>
<polygon fill="#000000" stroke="#000000" points="1776.5621,-906.3311 1783.4805,-898.307 1773.0682,-900.2654 1776.5621,-906.3311"/>
</g>
<!-- n63 -->
<g id="node63" class="node">
<title>n63</title>
<ellipse fill="none" stroke="#000000" cx="1816.7912" cy="-810" rx="100.1823" ry="18"/>
<text text-anchor="middle" x="1816.7912" y="-806.3" font-family="Times,serif" font-size="14.00" fill="#000000">PrimaryExpression</text>
</g>
<!-- n62&#45;&gt;n63 -->
<g id="edge57" class="edge">
<title>n62&#45;&gt;n63</title>
<path fill="none" stroke="#000000" d="M1813.0529,-863.8314C1813.5877,-856.131 1814.2236,-846.9743 1814.8179,-838.4166"/>
<polygon fill="#000000" stroke="#000000" points="1818.3113,-838.6317 1815.5125,-828.4133 1811.3281,-838.1467 1818.3113,-838.6317"/>
</g>
<!-- n64 -->
<g id="node64" class="node">
<title>n64</title>
<ellipse fill="none" stroke="#000000" cx="1818.7912" cy="-738" rx="99.3824" ry="18"/>
<text text-anchor="middle" x="1818.7912" y="-734.3" font-family="Times,serif" font-size="14.00" fill="#000000">Identifier:num_aux</text>
</g>
<!-- n63&#45;&gt;n64 -->
<g id="edge56" class="edge">
<title>n63&#45;&gt;n64</title>
<path fill="none" stroke="#000000" d="M1817.2959,-791.8314C1817.5098,-784.131 1817.7642,-774.9743 1818.0019,-766.4166"/>
<polygon fill="#000000" stroke="#000000" points="1821.5006,-766.5066 1818.2798,-756.4133 1814.5033,-766.3122 1821.5006,-766.5066"/>
</g>
</g>
</svg>
