<?xml version="1.0" encoding="UTF-8" standalone="no"?>
<!DOCTYPE svg PUBLIC "-//W3C//DTD SVG 1.1//EN"
 "http://www.w3.org/Graphics/SVG/1.1/DTD/svg11.dtd">
<!-- Generated by graphviz version 2.40.1 (20161225.0304)
 -->
<!-- Title: %3 Pages: 1 -->
<svg width="2274pt" height="1340pt"
 viewBox="0.00 0.00 2273.88 1340.00" xmlns="http://www.w3.org/2000/svg" xmlns:xlink="http://www.w3.org/1999/xlink">
<g id="graph0" class="graph" transform="scale(1 1) rotate(0) translate(4 1336)">
<title>%3</title>
<polygon fill="#ffffff" stroke="transparent" points="-4,4 -4,-1336 2269.8835,-1336 2269.8835,4 -4,4"/>
<!-- n1 -->
<g id="node1" class="node">
<title>n1</title>
<ellipse fill="none" stroke="#000000" cx="523.0386" cy="-1314" rx="31.6951" ry="18"/>
<text text-anchor="middle" x="523.0386" y="-1310.3" font-family="Times,serif" font-size="14.00" fill="#000000">Goal</text>
</g>
<!-- n2 -->
<g id="node2" class="node">
<title>n2</title>
<ellipse fill="none" stroke="#000000" cx="439.0386" cy="-1242" rx="59.5901" ry="18"/>
<text text-anchor="middle" x="439.0386" y="-1238.3" font-family="Times,serif" font-size="14.00" fill="#000000">MainClass</text>
</g>
<!-- n1&#45;&gt;n2 -->
<g id="edge12" class="edge">
<title>n1&#45;&gt;n2</title>
<path fill="none" stroke="#000000" d="M505.2244,-1298.7307C493.9778,-1289.0907 479.2213,-1276.4422 466.4965,-1265.5353"/>
<polygon fill="#000000" stroke="#000000" points="468.756,-1262.8622 458.8856,-1259.0117 464.2004,-1268.177 468.756,-1262.8622"/>
</g>
<!-- n14 -->
<g id="node14" class="node">
<title>n14</title>
<ellipse fill="none" stroke="#000000" cx="744.0386" cy="-1242" rx="90.1842" ry="18"/>
<text text-anchor="middle" x="744.0386" y="-1238.3" font-family="Times,serif" font-size="14.00" fill="#000000">ClassDeclaration</text>
</g>
<!-- n1&#45;&gt;n14 -->
<g id="edge63" class="edge">
<title>n1&#45;&gt;n14</title>
<path fill="none" stroke="#000000" d="M551.0284,-1304.8812C585.0427,-1293.7996 643.2908,-1274.8228 686.9224,-1260.608"/>
<polygon fill="#000000" stroke="#000000" points="688.1305,-1263.8956 696.5544,-1257.47 685.962,-1257.2399 688.1305,-1263.8956"/>
</g>
<!-- n3 -->
<g id="node3" class="node">
<title>n3</title>
<ellipse fill="none" stroke="#000000" cx="180.0386" cy="-1170" rx="98.5829" ry="18"/>
<text text-anchor="middle" x="180.0386" y="-1166.3" font-family="Times,serif" font-size="14.00" fill="#000000">Identifier:Factorial</text>
</g>
<!-- n2&#45;&gt;n3 -->
<g id="edge1" class="edge">
<title>n2&#45;&gt;n3</title>
<path fill="none" stroke="#000000" d="M395.1028,-1229.7862C353.7377,-1218.287 291.2903,-1200.9271 244.3265,-1187.8715"/>
<polygon fill="#000000" stroke="#000000" points="245.1252,-1184.4609 234.5531,-1185.1546 243.2503,-1191.2052 245.1252,-1184.4609"/>
</g>
<!-- n4 -->
<g id="node4" class="node">
<title>n4</title>
<ellipse fill="none" stroke="#000000" cx="360.0386" cy="-1170" rx="63.0888" ry="18"/>
<text text-anchor="middle" x="360.0386" y="-1166.3" font-family="Times,serif" font-size="14.00" fill="#000000">Identifier:a</text>
</g>
<!-- n2&#45;&gt;n4 -->
<g id="edge2" class="edge">
<title>n2&#45;&gt;n4</title>
<path fill="none" stroke="#000000" d="M419.9149,-1224.5708C409.9201,-1215.4616 397.5284,-1204.1679 386.6156,-1194.2221"/>
<polygon fill="#000000" stroke="#000000" points="388.7348,-1191.4179 378.9862,-1187.2687 384.0196,-1196.5916 388.7348,-1191.4179"/>
</g>
<!-- n5 -->
<g id="node5" class="node">
<title>n5</title>
<ellipse fill="none" stroke="#000000" cx="518.0386" cy="-1170" rx="76.8869" ry="18"/>
<text text-anchor="middle" x="518.0386" y="-1166.3" font-family="Times,serif" font-size="14.00" fill="#000000">DeclareStates</text>
</g>
<!-- n2&#45;&gt;n5 -->
<g id="edge11" class="edge">
<title>n2&#45;&gt;n5</title>
<path fill="none" stroke="#000000" d="M458.1623,-1224.5708C468.0837,-1215.5286 480.3668,-1204.3338 491.2207,-1194.4417"/>
<polygon fill="#000000" stroke="#000000" points="493.7839,-1196.8411 498.8172,-1187.5182 489.0687,-1191.6675 493.7839,-1196.8411"/>
</g>
<!-- n6 -->
<g id="node6" class="node">
<title>n6</title>
<ellipse fill="none" stroke="#000000" cx="504.0386" cy="-1098" rx="128.0773" ry="18"/>
<text text-anchor="middle" x="504.0386" y="-1094.3" font-family="Times,serif" font-size="14.00" fill="#000000">Statement:S.O.PRINTLN</text>
</g>
<!-- n5&#45;&gt;n6 -->
<g id="edge10" class="edge">
<title>n5&#45;&gt;n6</title>
<path fill="none" stroke="#000000" d="M514.5058,-1151.8314C513.0085,-1144.131 511.2281,-1134.9743 509.5641,-1126.4166"/>
<polygon fill="#000000" stroke="#000000" points="512.9634,-1125.5614 507.619,-1116.4133 506.0921,-1126.8975 512.9634,-1125.5614"/>
</g>
<!-- n7 -->
<g id="node7" class="node">
<title>n7</title>
<ellipse fill="none" stroke="#000000" cx="390.0386" cy="-1026" rx="62.2891" ry="18"/>
<text text-anchor="middle" x="390.0386" y="-1022.3" font-family="Times,serif" font-size="14.00" fill="#000000">Expression</text>
</g>
<!-- n6&#45;&gt;n7 -->
<g id="edge9" class="edge">
<title>n6&#45;&gt;n7</title>
<path fill="none" stroke="#000000" d="M476.1511,-1080.3868C460.6894,-1070.6216 441.3211,-1058.3889 424.8708,-1047.9993"/>
<polygon fill="#000000" stroke="#000000" points="426.3992,-1044.825 416.0753,-1042.4442 422.6612,-1050.7434 426.3992,-1044.825"/>
</g>
<!-- n8 -->
<g id="node8" class="node">
<title>n8</title>
<ellipse fill="none" stroke="#000000" cx="128.0386" cy="-954" rx="128.0773" ry="18"/>
<text text-anchor="middle" x="128.0386" y="-950.3" font-family="Times,serif" font-size="14.00" fill="#000000">PrimaryExpression:NEW</text>
</g>
<!-- n7&#45;&gt;n8 -->
<g id="edge4" class="edge">
<title>n7&#45;&gt;n8</title>
<path fill="none" stroke="#000000" d="M344.7008,-1013.5408C303.8172,-1002.3055 243.1111,-985.623 196.3497,-972.7725"/>
<polygon fill="#000000" stroke="#000000" points="197.1651,-969.3669 186.5951,-970.0919 195.3102,-976.1167 197.1651,-969.3669"/>
</g>
<!-- n10 -->
<g id="node10" class="node">
<title>n10</title>
<ellipse fill="none" stroke="#000000" cx="390.0386" cy="-954" rx="116.1796" ry="18"/>
<text text-anchor="middle" x="390.0386" y="-950.3" font-family="Times,serif" font-size="14.00" fill="#000000">Identifier:ComputeFac</text>
</g>
<!-- n7&#45;&gt;n10 -->
<g id="edge5" class="edge">
<title>n7&#45;&gt;n10</title>
<path fill="none" stroke="#000000" d="M390.0386,-1007.8314C390.0386,-1000.131 390.0386,-990.9743 390.0386,-982.4166"/>
<polygon fill="#000000" stroke="#000000" points="393.5387,-982.4132 390.0386,-972.4133 386.5387,-982.4133 393.5387,-982.4132"/>
</g>
<!-- n11 -->
<g id="node11" class="node">
<title>n11</title>
<ellipse fill="none" stroke="#000000" cx="605.0386" cy="-954" rx="80.6858" ry="18"/>
<text text-anchor="middle" x="605.0386" y="-950.3" font-family="Times,serif" font-size="14.00" fill="#000000">ExpressionList</text>
</g>
<!-- n7&#45;&gt;n11 -->
<g id="edge8" class="edge">
<title>n7&#45;&gt;n11</title>
<path fill="none" stroke="#000000" d="M430.9846,-1012.2879C464.8727,-1000.9393 513.3085,-984.7189 550.4847,-972.2692"/>
<polygon fill="#000000" stroke="#000000" points="551.7919,-975.5226 560.1629,-969.0282 549.569,-968.8849 551.7919,-975.5226"/>
</g>
<!-- n9 -->
<g id="node9" class="node">
<title>n9</title>
<ellipse fill="none" stroke="#000000" cx="128.0386" cy="-882" rx="74.187" ry="18"/>
<text text-anchor="middle" x="128.0386" y="-878.3" font-family="Times,serif" font-size="14.00" fill="#000000">Identifier:Fac</text>
</g>
<!-- n8&#45;&gt;n9 -->
<g id="edge3" class="edge">
<title>n8&#45;&gt;n9</title>
<path fill="none" stroke="#000000" d="M128.0386,-935.8314C128.0386,-928.131 128.0386,-918.9743 128.0386,-910.4166"/>
<polygon fill="#000000" stroke="#000000" points="131.5387,-910.4132 128.0386,-900.4133 124.5387,-910.4133 131.5387,-910.4132"/>
</g>
<!-- n12 -->
<g id="node12" class="node">
<title>n12</title>
<ellipse fill="none" stroke="#000000" cx="605.0386" cy="-882" rx="62.2891" ry="18"/>
<text text-anchor="middle" x="605.0386" y="-878.3" font-family="Times,serif" font-size="14.00" fill="#000000">Expression</text>
</g>
<!-- n11&#45;&gt;n12 -->
<g id="edge7" class="edge">
<title>n11&#45;&gt;n12</title>
<path fill="none" stroke="#000000" d="M605.0386,-935.8314C605.0386,-928.131 605.0386,-918.9743 605.0386,-910.4166"/>
<polygon fill="#000000" stroke="#000000" points="608.5387,-910.4132 605.0386,-900.4133 601.5387,-910.4133 608.5387,-910.4132"/>
</g>
<!-- n13 -->
<g id="node13" class="node">
<title>n13</title>
<ellipse fill="none" stroke="#000000" cx="605.0386" cy="-810" rx="63.8893" ry="18"/>
<text text-anchor="middle" x="605.0386" y="-806.3" font-family="Times,serif" font-size="14.00" fill="#000000">Number:10</text>
</g>
<!-- n12&#45;&gt;n13 -->
<g id="edge6" class="edge">
<title>n12&#45;&gt;n13</title>
<path fill="none" stroke="#000000" d="M605.0386,-863.8314C605.0386,-856.131 605.0386,-846.9743 605.0386,-838.4166"/>
<polygon fill="#000000" stroke="#000000" points="608.5387,-838.4132 605.0386,-828.4133 601.5387,-838.4133 608.5387,-838.4132"/>
</g>
<!-- n15 -->
<g id="node15" class="node">
<title>n15</title>
<ellipse fill="none" stroke="#000000" cx="744.0386" cy="-1170" rx="74.187" ry="18"/>
<text text-anchor="middle" x="744.0386" y="-1166.3" font-family="Times,serif" font-size="14.00" fill="#000000">Identifier:Fac</text>
</g>
<!-- n14&#45;&gt;n15 -->
<g id="edge13" class="edge">
<title>n14&#45;&gt;n15</title>
<path fill="none" stroke="#000000" d="M744.0386,-1223.8314C744.0386,-1216.131 744.0386,-1206.9743 744.0386,-1198.4166"/>
<polygon fill="#000000" stroke="#000000" points="747.5387,-1198.4132 744.0386,-1188.4133 740.5387,-1198.4133 747.5387,-1198.4132"/>
</g>
<!-- n16 -->
<g id="node16" class="node">
<title>n16</title>
<ellipse fill="none" stroke="#000000" cx="934.0386" cy="-1170" rx="69.5877" ry="18"/>
<text text-anchor="middle" x="934.0386" y="-1166.3" font-family="Times,serif" font-size="14.00" fill="#000000">Declarations</text>
</g>
<!-- n14&#45;&gt;n16 -->
<g id="edge62" class="edge">
<title>n14&#45;&gt;n16</title>
<path fill="none" stroke="#000000" d="M786.2058,-1226.0209C815.4064,-1214.9554 854.3718,-1200.1895 884.9674,-1188.5954"/>
<polygon fill="#000000" stroke="#000000" points="886.4732,-1191.7678 894.584,-1184.9512 883.9926,-1185.222 886.4732,-1191.7678"/>
</g>
<!-- n17 -->
<g id="node17" class="node">
<title>n17</title>
<ellipse fill="none" stroke="#000000" cx="941.0386" cy="-1098" rx="100.9827" ry="18"/>
<text text-anchor="middle" x="941.0386" y="-1094.3" font-family="Times,serif" font-size="14.00" fill="#000000">MethodDeclaration</text>
</g>
<!-- n16&#45;&gt;n17 -->
<g id="edge61" class="edge">
<title>n16&#45;&gt;n17</title>
<path fill="none" stroke="#000000" d="M935.805,-1151.8314C936.5537,-1144.131 937.4439,-1134.9743 938.2759,-1126.4166"/>
<polygon fill="#000000" stroke="#000000" points="941.7643,-1126.7051 939.2485,-1116.4133 934.7971,-1126.0276 941.7643,-1126.7051"/>
</g>
<!-- n18 -->
<g id="node18" class="node">
<title>n18</title>
<ellipse fill="none" stroke="#000000" cx="520.0386" cy="-1026" rx="49.2915" ry="18"/>
<text text-anchor="middle" x="520.0386" y="-1022.3" font-family="Times,serif" font-size="14.00" fill="#000000">Type:int</text>
</g>
<!-- n17&#45;&gt;n18 -->
<g id="edge14" class="edge">
<title>n17&#45;&gt;n18</title>
<path fill="none" stroke="#000000" d="M854.4316,-1088.735C780.6756,-1079.976 672.1664,-1065.0303 579.0386,-1044 574.9842,-1043.0844 570.8031,-1042.0327 566.6267,-1040.9072"/>
<polygon fill="#000000" stroke="#000000" points="567.5275,-1037.5248 556.9527,-1038.1764 565.6258,-1044.2615 567.5275,-1037.5248"/>
</g>
<!-- n19 -->
<g id="node19" class="node">
<title>n19</title>
<ellipse fill="none" stroke="#000000" cx="704.0386" cy="-1026" rx="116.1796" ry="18"/>
<text text-anchor="middle" x="704.0386" y="-1022.3" font-family="Times,serif" font-size="14.00" fill="#000000">Identifier:ComputeFac</text>
</g>
<!-- n17&#45;&gt;n19 -->
<g id="edge15" class="edge">
<title>n17&#45;&gt;n19</title>
<path fill="none" stroke="#000000" d="M889.905,-1082.4657C853.9296,-1071.5365 805.5499,-1056.8389 767.168,-1045.1785"/>
<polygon fill="#000000" stroke="#000000" points="767.7194,-1041.6882 757.1338,-1042.1302 765.6846,-1048.3859 767.7194,-1041.6882"/>
</g>
<!-- n20 -->
<g id="node20" class="node">
<title>n20</title>
<ellipse fill="none" stroke="#000000" cx="949.0386" cy="-1026" rx="110.4804" ry="18"/>
<text text-anchor="middle" x="949.0386" y="-1022.3" font-family="Times,serif" font-size="14.00" fill="#000000">FormalParameterList</text>
</g>
<!-- n17&#45;&gt;n20 -->
<g id="edge18" class="edge">
<title>n17&#45;&gt;n20</title>
<path fill="none" stroke="#000000" d="M943.0574,-1079.8314C943.913,-1072.131 944.9304,-1062.9743 945.8812,-1054.4166"/>
<polygon fill="#000000" stroke="#000000" points="949.3669,-1054.7386 946.9927,-1044.4133 942.4097,-1053.9656 949.3669,-1054.7386"/>
</g>
<!-- n23 -->
<g id="node23" class="node">
<title>n23</title>
<ellipse fill="none" stroke="#000000" cx="1154.0386" cy="-1026" rx="76.8869" ry="18"/>
<text text-anchor="middle" x="1154.0386" y="-1022.3" font-family="Times,serif" font-size="14.00" fill="#000000">DeclareStates</text>
</g>
<!-- n17&#45;&gt;n23 -->
<g id="edge56" class="edge">
<title>n17&#45;&gt;n23</title>
<path fill="none" stroke="#000000" d="M988.3102,-1082.0209C1021.4406,-1070.8219 1065.7836,-1055.8327 1100.2646,-1044.1771"/>
<polygon fill="#000000" stroke="#000000" points="1101.8146,-1047.3478 1110.1672,-1040.8298 1099.573,-1040.7164 1101.8146,-1047.3478"/>
</g>
<!-- n61 -->
<g id="node61" class="node">
<title>n61</title>
<ellipse fill="none" stroke="#000000" cx="1481.0386" cy="-1026" rx="42.7926" ry="18"/>
<text text-anchor="middle" x="1481.0386" y="-1022.3" font-family="Times,serif" font-size="14.00" fill="#000000">Return</text>
</g>
<!-- n17&#45;&gt;n61 -->
<g id="edge60" class="edge">
<title>n17&#45;&gt;n61</title>
<path fill="none" stroke="#000000" d="M1021.8821,-1087.2209C1134.6097,-1072.1905 1335.7421,-1045.3729 1429.8453,-1032.8258"/>
<polygon fill="#000000" stroke="#000000" points="1430.5172,-1036.2673 1439.9669,-1031.4762 1429.592,-1029.3287 1430.5172,-1036.2673"/>
</g>
<!-- n21 -->
<g id="node21" class="node">
<title>n21</title>
<ellipse fill="none" stroke="#000000" cx="804.0386" cy="-954" rx="49.2915" ry="18"/>
<text text-anchor="middle" x="804.0386" y="-950.3" font-family="Times,serif" font-size="14.00" fill="#000000">Type:int</text>
</g>
<!-- n20&#45;&gt;n21 -->
<g id="edge16" class="edge">
<title>n20&#45;&gt;n21</title>
<path fill="none" stroke="#000000" d="M914.3075,-1008.7542C892.7543,-998.0519 865.0225,-984.2816 842.7618,-973.2281"/>
<polygon fill="#000000" stroke="#000000" points="844.1037,-969.9867 833.5905,-968.674 840.9905,-976.2563 844.1037,-969.9867"/>
</g>
<!-- n22 -->
<g id="node22" class="node">
<title>n22</title>
<ellipse fill="none" stroke="#000000" cx="949.0386" cy="-954" rx="77.9862" ry="18"/>
<text text-anchor="middle" x="949.0386" y="-950.3" font-family="Times,serif" font-size="14.00" fill="#000000">Identifier:num</text>
</g>
<!-- n20&#45;&gt;n22 -->
<g id="edge17" class="edge">
<title>n20&#45;&gt;n22</title>
<path fill="none" stroke="#000000" d="M949.0386,-1007.8314C949.0386,-1000.131 949.0386,-990.9743 949.0386,-982.4166"/>
<polygon fill="#000000" stroke="#000000" points="952.5387,-982.4132 949.0386,-972.4133 945.5387,-982.4133 952.5387,-982.4132"/>
</g>
<!-- n24 -->
<g id="node24" class="node">
<title>n24</title>
<ellipse fill="none" stroke="#000000" cx="1126.0386" cy="-954" rx="80.6858" ry="18"/>
<text text-anchor="middle" x="1126.0386" y="-950.3" font-family="Times,serif" font-size="14.00" fill="#000000">VarDeclaration</text>
</g>
<!-- n23&#45;&gt;n24 -->
<g id="edge21" class="edge">
<title>n23&#45;&gt;n24</title>
<path fill="none" stroke="#000000" d="M1146.9731,-1007.8314C1143.9126,-999.9617 1140.2608,-990.5712 1136.8705,-981.8533"/>
<polygon fill="#000000" stroke="#000000" points="1140.0859,-980.4647 1133.1994,-972.4133 1133.5619,-983.0019 1140.0859,-980.4647"/>
</g>
<!-- n27 -->
<g id="node27" class="node">
<title>n27</title>
<ellipse fill="none" stroke="#000000" cx="1382.0386" cy="-954" rx="72.5877" ry="18"/>
<text text-anchor="middle" x="1382.0386" y="-950.3" font-family="Times,serif" font-size="14.00" fill="#000000">Statement:IF</text>
</g>
<!-- n23&#45;&gt;n27 -->
<g id="edge55" class="edge">
<title>n23&#45;&gt;n27</title>
<path fill="none" stroke="#000000" d="M1199.9036,-1011.5163C1236.7065,-999.8944 1288.4739,-983.5468 1327.417,-971.2489"/>
<polygon fill="#000000" stroke="#000000" points="1328.5427,-974.5639 1337.0246,-968.215 1326.4347,-967.8888 1328.5427,-974.5639"/>
</g>
<!-- n25 -->
<g id="node25" class="node">
<title>n25</title>
<ellipse fill="none" stroke="#000000" cx="916.0386" cy="-882" rx="49.2915" ry="18"/>
<text text-anchor="middle" x="916.0386" y="-878.3" font-family="Times,serif" font-size="14.00" fill="#000000">Type:int</text>
</g>
<!-- n24&#45;&gt;n25 -->
<g id="edge19" class="edge">
<title>n24&#45;&gt;n25</title>
<path fill="none" stroke="#000000" d="M1082.0158,-938.9064C1046.8365,-926.845 997.6821,-909.9921 962.0018,-897.7588"/>
<polygon fill="#000000" stroke="#000000" points="962.9129,-894.3712 952.3183,-894.4387 960.6426,-900.9928 962.9129,-894.3712"/>
</g>
<!-- n26 -->
<g id="node26" class="node">
<title>n26</title>
<ellipse fill="none" stroke="#000000" cx="1083.0386" cy="-882" rx="99.3824" ry="18"/>
<text text-anchor="middle" x="1083.0386" y="-878.3" font-family="Times,serif" font-size="14.00" fill="#000000">Identifier:num_aux</text>
</g>
<!-- n24&#45;&gt;n26 -->
<g id="edge20" class="edge">
<title>n24&#45;&gt;n26</title>
<path fill="none" stroke="#000000" d="M1115.1879,-935.8314C1110.2617,-927.5829 1104.3377,-917.6635 1098.9243,-908.5992"/>
<polygon fill="#000000" stroke="#000000" points="1101.8693,-906.7042 1093.7369,-899.9134 1095.8595,-910.2935 1101.8693,-906.7042"/>
</g>
<!-- n28 -->
<g id="node28" class="node">
<title>n28</title>
<ellipse fill="none" stroke="#000000" cx="1274.0386" cy="-882" rx="73.387" ry="18"/>
<text text-anchor="middle" x="1274.0386" y="-878.3" font-family="Times,serif" font-size="14.00" fill="#000000">Expression:&lt;</text>
</g>
<!-- n27&#45;&gt;n28 -->
<g id="edge27" class="edge">
<title>n27&#45;&gt;n28</title>
<path fill="none" stroke="#000000" d="M1356.7174,-937.1192C1342.1984,-927.4399 1323.7828,-915.1628 1308.0188,-904.6534"/>
<polygon fill="#000000" stroke="#000000" points="1309.8374,-901.6594 1299.5754,-899.0245 1305.9545,-907.4837 1309.8374,-901.6594"/>
</g>
<!-- n34 -->
<g id="node34" class="node">
<title>n34</title>
<ellipse fill="none" stroke="#000000" cx="1425.0386" cy="-882" rx="59.5901" ry="18"/>
<text text-anchor="middle" x="1425.0386" y="-878.3" font-family="Times,serif" font-size="14.00" fill="#000000">Statement</text>
</g>
<!-- n27&#45;&gt;n34 -->
<g id="edge33" class="edge">
<title>n27&#45;&gt;n34</title>
<path fill="none" stroke="#000000" d="M1392.8894,-935.8314C1397.8155,-927.5829 1403.7396,-917.6635 1409.153,-908.5992"/>
<polygon fill="#000000" stroke="#000000" points="1412.2178,-910.2935 1414.3404,-899.9134 1406.208,-906.7042 1412.2178,-910.2935"/>
</g>
<!-- n40 -->
<g id="node40" class="node">
<title>n40</title>
<ellipse fill="none" stroke="#000000" cx="1592.0386" cy="-882" rx="89.0842" ry="18"/>
<text text-anchor="middle" x="1592.0386" y="-878.3" font-family="Times,serif" font-size="14.00" fill="#000000">Statement:ELSE</text>
</g>
<!-- n27&#45;&gt;n40 -->
<g id="edge54" class="edge">
<title>n27&#45;&gt;n40</title>
<path fill="none" stroke="#000000" d="M1424.7884,-939.3429C1457.2352,-928.2183 1502.0944,-912.838 1537.1866,-900.8064"/>
<polygon fill="#000000" stroke="#000000" points="1538.4827,-904.0621 1546.807,-897.508 1536.2123,-897.4405 1538.4827,-904.0621"/>
</g>
<!-- n29 -->
<g id="node29" class="node">
<title>n29</title>
<ellipse fill="none" stroke="#000000" cx="1114.0386" cy="-810" rx="62.2891" ry="18"/>
<text text-anchor="middle" x="1114.0386" y="-806.3" font-family="Times,serif" font-size="14.00" fill="#000000">Expression</text>
</g>
<!-- n28&#45;&gt;n29 -->
<g id="edge24" class="edge">
<title>n28&#45;&gt;n29</title>
<path fill="none" stroke="#000000" d="M1238.5295,-866.0209C1214.5285,-855.2205 1182.6939,-840.8949 1157.2253,-829.434"/>
<polygon fill="#000000" stroke="#000000" points="1158.3611,-826.1071 1147.8055,-825.1951 1155.4885,-832.4905 1158.3611,-826.1071"/>
</g>
<!-- n32 -->
<g id="node32" class="node">
<title>n32</title>
<ellipse fill="none" stroke="#000000" cx="1274.0386" cy="-810" rx="62.2891" ry="18"/>
<text text-anchor="middle" x="1274.0386" y="-806.3" font-family="Times,serif" font-size="14.00" fill="#000000">Expression</text>
</g>
<!-- n28&#45;&gt;n32 -->
<g id="edge26" class="edge">
<title>n28&#45;&gt;n32</title>
<path fill="none" stroke="#000000" d="M1274.0386,-863.8314C1274.0386,-856.131 1274.0386,-846.9743 1274.0386,-838.4166"/>
<polygon fill="#000000" stroke="#000000" points="1277.5387,-838.4132 1274.0386,-828.4133 1270.5387,-838.4133 1277.5387,-838.4132"/>
</g>
<!-- n30 -->
<g id="node30" class="node">
<title>n30</title>
<ellipse fill="none" stroke="#000000" cx="1088.0386" cy="-738" rx="100.1823" ry="18"/>
<text text-anchor="middle" x="1088.0386" y="-734.3" font-family="Times,serif" font-size="14.00" fill="#000000">PrimaryExpression</text>
</g>
<!-- n29&#45;&gt;n30 -->
<g id="edge23" class="edge">
<title>n29&#45;&gt;n30</title>
<path fill="none" stroke="#000000" d="M1107.4777,-791.8314C1104.6359,-783.9617 1101.2449,-774.5712 1098.0968,-765.8533"/>
<polygon fill="#000000" stroke="#000000" points="1101.3763,-764.63 1094.6879,-756.4133 1094.7924,-767.0076 1101.3763,-764.63"/>
</g>
<!-- n31 -->
<g id="node31" class="node">
<title>n31</title>
<ellipse fill="none" stroke="#000000" cx="1075.0386" cy="-666" rx="77.9862" ry="18"/>
<text text-anchor="middle" x="1075.0386" y="-662.3" font-family="Times,serif" font-size="14.00" fill="#000000">Identifier:num</text>
</g>
<!-- n30&#45;&gt;n31 -->
<g id="edge22" class="edge">
<title>n30&#45;&gt;n31</title>
<path fill="none" stroke="#000000" d="M1084.7582,-719.8314C1083.3678,-712.131 1081.7146,-702.9743 1080.1694,-694.4166"/>
<polygon fill="#000000" stroke="#000000" points="1083.5845,-693.6322 1078.3633,-684.4133 1076.6959,-694.8761 1083.5845,-693.6322"/>
</g>
<!-- n33 -->
<g id="node33" class="node">
<title>n33</title>
<ellipse fill="none" stroke="#000000" cx="1274.0386" cy="-738" rx="57.6901" ry="18"/>
<text text-anchor="middle" x="1274.0386" y="-734.3" font-family="Times,serif" font-size="14.00" fill="#000000">Number:1</text>
</g>
<!-- n32&#45;&gt;n33 -->
<g id="edge25" class="edge">
<title>n32&#45;&gt;n33</title>
<path fill="none" stroke="#000000" d="M1274.0386,-791.8314C1274.0386,-784.131 1274.0386,-774.9743 1274.0386,-766.4166"/>
<polygon fill="#000000" stroke="#000000" points="1277.5387,-766.4132 1274.0386,-756.4133 1270.5387,-766.4133 1277.5387,-766.4132"/>
</g>
<!-- n35 -->
<g id="node35" class="node">
<title>n35</title>
<ellipse fill="none" stroke="#000000" cx="1425.0386" cy="-810" rx="64.189" ry="18"/>
<text text-anchor="middle" x="1425.0386" y="-806.3" font-family="Times,serif" font-size="14.00" fill="#000000">Statements</text>
</g>
<!-- n34&#45;&gt;n35 -->
<g id="edge32" class="edge">
<title>n34&#45;&gt;n35</title>
<path fill="none" stroke="#000000" d="M1425.0386,-863.8314C1425.0386,-856.131 1425.0386,-846.9743 1425.0386,-838.4166"/>
<polygon fill="#000000" stroke="#000000" points="1428.5387,-838.4132 1425.0386,-828.4133 1421.5387,-838.4133 1428.5387,-838.4132"/>
</g>
<!-- n36 -->
<g id="node36" class="node">
<title>n36</title>
<ellipse fill="none" stroke="#000000" cx="1425.0386" cy="-738" rx="70.3881" ry="18"/>
<text text-anchor="middle" x="1425.0386" y="-734.3" font-family="Times,serif" font-size="14.00" fill="#000000">Statement:=</text>
</g>
<!-- n35&#45;&gt;n36 -->
<g id="edge31" class="edge">
<title>n35&#45;&gt;n36</title>
<path fill="none" stroke="#000000" d="M1425.0386,-791.8314C1425.0386,-784.131 1425.0386,-774.9743 1425.0386,-766.4166"/>
<polygon fill="#000000" stroke="#000000" points="1428.5387,-766.4132 1425.0386,-756.4133 1421.5387,-766.4133 1428.5387,-766.4132"/>
</g>
<!-- n37 -->
<g id="node37" class="node">
<title>n37</title>
<ellipse fill="none" stroke="#000000" cx="1270.0386" cy="-666" rx="99.3824" ry="18"/>
<text text-anchor="middle" x="1270.0386" y="-662.3" font-family="Times,serif" font-size="14.00" fill="#000000">Identifier:num_aux</text>
</g>
<!-- n36&#45;&gt;n37 -->
<g id="edge28" class="edge">
<title>n36&#45;&gt;n37</title>
<path fill="none" stroke="#000000" d="M1391.0232,-722.1993C1368.9165,-711.9304 1339.8303,-698.4194 1315.7176,-687.2186"/>
<polygon fill="#000000" stroke="#000000" points="1316.9498,-683.9319 1306.406,-682.8932 1314.0008,-690.2804 1316.9498,-683.9319"/>
</g>
<!-- n38 -->
<g id="node38" class="node">
<title>n38</title>
<ellipse fill="none" stroke="#000000" cx="1450.0386" cy="-666" rx="62.2891" ry="18"/>
<text text-anchor="middle" x="1450.0386" y="-662.3" font-family="Times,serif" font-size="14.00" fill="#000000">Expression</text>
</g>
<!-- n36&#45;&gt;n38 -->
<g id="edge30" class="edge">
<title>n36&#45;&gt;n38</title>
<path fill="none" stroke="#000000" d="M1431.3472,-719.8314C1434.1217,-711.8406 1437.4408,-702.2819 1440.5069,-693.4514"/>
<polygon fill="#000000" stroke="#000000" points="1443.8449,-694.5082 1443.8187,-683.9134 1437.2322,-692.2121 1443.8449,-694.5082"/>
</g>
<!-- n39 -->
<g id="node39" class="node">
<title>n39</title>
<ellipse fill="none" stroke="#000000" cx="1441.0386" cy="-594" rx="57.6901" ry="18"/>
<text text-anchor="middle" x="1441.0386" y="-590.3" font-family="Times,serif" font-size="14.00" fill="#000000">Number:1</text>
</g>
<!-- n38&#45;&gt;n39 -->
<g id="edge29" class="edge">
<title>n38&#45;&gt;n39</title>
<path fill="none" stroke="#000000" d="M1447.7676,-647.8314C1446.805,-640.131 1445.6604,-630.9743 1444.5907,-622.4166"/>
<polygon fill="#000000" stroke="#000000" points="1448.0537,-621.9019 1443.3403,-612.4133 1441.1078,-622.7702 1448.0537,-621.9019"/>
</g>
<!-- n41 -->
<g id="node41" class="node">
<title>n41</title>
<ellipse fill="none" stroke="#000000" cx="1607.0386" cy="-810" rx="59.5901" ry="18"/>
<text text-anchor="middle" x="1607.0386" y="-806.3" font-family="Times,serif" font-size="14.00" fill="#000000">Statement</text>
</g>
<!-- n40&#45;&gt;n41 -->
<g id="edge53" class="edge">
<title>n40&#45;&gt;n41</title>
<path fill="none" stroke="#000000" d="M1595.8238,-863.8314C1597.428,-856.131 1599.3357,-846.9743 1601.1185,-838.4166"/>
<polygon fill="#000000" stroke="#000000" points="1604.5894,-838.9169 1603.2025,-828.4133 1597.7365,-837.4892 1604.5894,-838.9169"/>
</g>
<!-- n42 -->
<g id="node42" class="node">
<title>n42</title>
<ellipse fill="none" stroke="#000000" cx="1610.0386" cy="-738" rx="64.189" ry="18"/>
<text text-anchor="middle" x="1610.0386" y="-734.3" font-family="Times,serif" font-size="14.00" fill="#000000">Statements</text>
</g>
<!-- n41&#45;&gt;n42 -->
<g id="edge52" class="edge">
<title>n41&#45;&gt;n42</title>
<path fill="none" stroke="#000000" d="M1607.7957,-791.8314C1608.1165,-784.131 1608.498,-774.9743 1608.8546,-766.4166"/>
<polygon fill="#000000" stroke="#000000" points="1612.352,-766.5503 1609.2714,-756.4133 1605.3581,-766.2589 1612.352,-766.5503"/>
</g>
<!-- n43 -->
<g id="node43" class="node">
<title>n43</title>
<ellipse fill="none" stroke="#000000" cx="1616.0386" cy="-666" rx="70.3881" ry="18"/>
<text text-anchor="middle" x="1616.0386" y="-662.3" font-family="Times,serif" font-size="14.00" fill="#000000">Statement:=</text>
</g>
<!-- n42&#45;&gt;n43 -->
<g id="edge51" class="edge">
<title>n42&#45;&gt;n43</title>
<path fill="none" stroke="#000000" d="M1611.5527,-719.8314C1612.1944,-712.131 1612.9574,-702.9743 1613.6706,-694.4166"/>
<polygon fill="#000000" stroke="#000000" points="1617.1616,-694.6694 1614.5042,-684.4133 1610.1857,-694.088 1617.1616,-694.6694"/>
</g>
<!-- n44 -->
<g id="node44" class="node">
<title>n44</title>
<ellipse fill="none" stroke="#000000" cx="1616.0386" cy="-594" rx="99.3824" ry="18"/>
<text text-anchor="middle" x="1616.0386" y="-590.3" font-family="Times,serif" font-size="14.00" fill="#000000">Identifier:num_aux</text>
</g>
<!-- n43&#45;&gt;n44 -->
<g id="edge34" class="edge">
<title>n43&#45;&gt;n44</title>
<path fill="none" stroke="#000000" d="M1616.0386,-647.8314C1616.0386,-640.131 1616.0386,-630.9743 1616.0386,-622.4166"/>
<polygon fill="#000000" stroke="#000000" points="1619.5387,-622.4132 1616.0386,-612.4133 1612.5387,-622.4133 1619.5387,-622.4132"/>
</g>
<!-- n45 -->
<g id="node45" class="node">
<title>n45</title>
<ellipse fill="none" stroke="#000000" cx="1804.0386" cy="-594" rx="70.3881" ry="18"/>
<text text-anchor="middle" x="1804.0386" y="-590.3" font-family="Times,serif" font-size="14.00" fill="#000000">Expression:*</text>
</g>
<!-- n43&#45;&gt;n45 -->
<g id="edge50" class="edge">
<title>n43&#45;&gt;n45</title>
<path fill="none" stroke="#000000" d="M1655.4496,-650.9064C1684.5275,-639.7702 1724.2707,-624.5494 1755.338,-612.6513"/>
<polygon fill="#000000" stroke="#000000" points="1756.5928,-615.9187 1764.6796,-609.0737 1754.0892,-609.3817 1756.5928,-615.9187"/>
</g>
<!-- n46 -->
<g id="node46" class="node">
<title>n46</title>
<ellipse fill="none" stroke="#000000" cx="1723.0386" cy="-522" rx="62.2891" ry="18"/>
<text text-anchor="middle" x="1723.0386" y="-518.3" font-family="Times,serif" font-size="14.00" fill="#000000">Expression</text>
</g>
<!-- n45&#45;&gt;n46 -->
<g id="edge37" class="edge">
<title>n45&#45;&gt;n46</title>
<path fill="none" stroke="#000000" d="M1784.4308,-576.5708C1774.0834,-567.3732 1761.2306,-555.9484 1749.963,-545.9328"/>
<polygon fill="#000000" stroke="#000000" points="1752.2653,-543.2964 1742.4659,-539.2687 1747.6147,-548.5283 1752.2653,-543.2964"/>
</g>
<!-- n49 -->
<g id="node49" class="node">
<title>n49</title>
<ellipse fill="none" stroke="#000000" cx="1885.0386" cy="-522" rx="62.2891" ry="18"/>
<text text-anchor="middle" x="1885.0386" y="-518.3" font-family="Times,serif" font-size="14.00" fill="#000000">Expression</text>
</g>
<!-- n45&#45;&gt;n49 -->
<g id="edge49" class="edge">
<title>n45&#45;&gt;n49</title>
<path fill="none" stroke="#000000" d="M1823.6465,-576.5708C1833.9938,-567.3732 1846.8467,-555.9484 1858.1143,-545.9328"/>
<polygon fill="#000000" stroke="#000000" points="1860.4625,-548.5283 1865.6114,-539.2687 1855.812,-543.2964 1860.4625,-548.5283"/>
</g>
<!-- n47 -->
<g id="node47" class="node">
<title>n47</title>
<ellipse fill="none" stroke="#000000" cx="1686.0386" cy="-450" rx="100.1823" ry="18"/>
<text text-anchor="middle" x="1686.0386" y="-446.3" font-family="Times,serif" font-size="14.00" fill="#000000">PrimaryExpression</text>
</g>
<!-- n46&#45;&gt;n47 -->
<g id="edge36" class="edge">
<title>n46&#45;&gt;n47</title>
<path fill="none" stroke="#000000" d="M1713.702,-503.8314C1709.6144,-495.8771 1704.7283,-486.369 1700.2077,-477.5723"/>
<polygon fill="#000000" stroke="#000000" points="1703.1848,-475.7078 1695.501,-468.4133 1696.9587,-478.9074 1703.1848,-475.7078"/>
</g>
<!-- n48 -->
<g id="node48" class="node">
<title>n48</title>
<ellipse fill="none" stroke="#000000" cx="1686.0386" cy="-378" rx="77.9862" ry="18"/>
<text text-anchor="middle" x="1686.0386" y="-374.3" font-family="Times,serif" font-size="14.00" fill="#000000">Identifier:num</text>
</g>
<!-- n47&#45;&gt;n48 -->
<g id="edge35" class="edge">
<title>n47&#45;&gt;n48</title>
<path fill="none" stroke="#000000" d="M1686.0386,-431.8314C1686.0386,-424.131 1686.0386,-414.9743 1686.0386,-406.4166"/>
<polygon fill="#000000" stroke="#000000" points="1689.5387,-406.4132 1686.0386,-396.4133 1682.5387,-406.4133 1689.5387,-406.4132"/>
</g>
<!-- n50 -->
<g id="node50" class="node">
<title>n50</title>
<ellipse fill="none" stroke="#000000" cx="1904.0386" cy="-450" rx="100.1823" ry="18"/>
<text text-anchor="middle" x="1904.0386" y="-446.3" font-family="Times,serif" font-size="14.00" fill="#000000">PrimaryExpression</text>
</g>
<!-- n49&#45;&gt;n50 -->
<g id="edge48" class="edge">
<title>n49&#45;&gt;n50</title>
<path fill="none" stroke="#000000" d="M1889.8331,-503.8314C1891.8875,-496.0463 1894.3347,-486.7729 1896.6142,-478.1347"/>
<polygon fill="#000000" stroke="#000000" points="1900.0121,-478.9753 1899.1796,-468.4133 1893.2438,-477.1892 1900.0121,-478.9753"/>
</g>
<!-- n51 -->
<g id="node51" class="node">
<title>n51</title>
<ellipse fill="none" stroke="#000000" cx="1904.0386" cy="-378" rx="62.2891" ry="18"/>
<text text-anchor="middle" x="1904.0386" y="-374.3" font-family="Times,serif" font-size="14.00" fill="#000000">Expression</text>
</g>
<!-- n50&#45;&gt;n51 -->
<g id="edge47" class="edge">
<title>n50&#45;&gt;n51</title>
<path fill="none" stroke="#000000" d="M1904.0386,-431.8314C1904.0386,-424.131 1904.0386,-414.9743 1904.0386,-406.4166"/>
<polygon fill="#000000" stroke="#000000" points="1907.5387,-406.4132 1904.0386,-396.4133 1900.5387,-406.4133 1907.5387,-406.4132"/>
</g>
<!-- n52 -->
<g id="node52" class="node">
<title>n52</title>
<ellipse fill="none" stroke="#000000" cx="1739.0386" cy="-306" rx="30.5947" ry="18"/>
<text text-anchor="middle" x="1739.0386" y="-302.3" font-family="Times,serif" font-size="14.00" fill="#000000">This</text>
</g>
<!-- n51&#45;&gt;n52 -->
<g id="edge38" class="edge">
<title>n51&#45;&gt;n52</title>
<path fill="none" stroke="#000000" d="M1868.9548,-363.0111C1843.8659,-352.2515 1809.3208,-337.3535 1779.0386,-324 1777.0006,-323.1013 1774.906,-322.1729 1772.7945,-321.2335"/>
<polygon fill="#000000" stroke="#000000" points="1774.1089,-317.9873 1763.5512,-317.1008 1771.2517,-324.3776 1774.1089,-317.9873"/>
</g>
<!-- n53 -->
<g id="node53" class="node">
<title>n53</title>
<ellipse fill="none" stroke="#000000" cx="1904.0386" cy="-306" rx="116.1796" ry="18"/>
<text text-anchor="middle" x="1904.0386" y="-302.3" font-family="Times,serif" font-size="14.00" fill="#000000">Identifier:ComputeFac</text>
</g>
<!-- n51&#45;&gt;n53 -->
<g id="edge39" class="edge">
<title>n51&#45;&gt;n53</title>
<path fill="none" stroke="#000000" d="M1904.0386,-359.8314C1904.0386,-352.131 1904.0386,-342.9743 1904.0386,-334.4166"/>
<polygon fill="#000000" stroke="#000000" points="1907.5387,-334.4132 1904.0386,-324.4133 1900.5387,-334.4133 1907.5387,-334.4132"/>
</g>
<!-- n54 -->
<g id="node54" class="node">
<title>n54</title>
<ellipse fill="none" stroke="#000000" cx="2119.0386" cy="-306" rx="80.6858" ry="18"/>
<text text-anchor="middle" x="2119.0386" y="-302.3" font-family="Times,serif" font-size="14.00" fill="#000000">ExpressionList</text>
</g>
<!-- n51&#45;&gt;n54 -->
<g id="edge46" class="edge">
<title>n51&#45;&gt;n54</title>
<path fill="none" stroke="#000000" d="M1944.9846,-364.2879C1978.8727,-352.9393 2027.3085,-336.7189 2064.4847,-324.2692"/>
<polygon fill="#000000" stroke="#000000" points="2065.7919,-327.5226 2074.1629,-321.0282 2063.569,-320.8849 2065.7919,-327.5226"/>
</g>
<!-- n55 -->
<g id="node55" class="node">
<title>n55</title>
<ellipse fill="none" stroke="#000000" cx="2119.0386" cy="-234" rx="68.4888" ry="18"/>
<text text-anchor="middle" x="2119.0386" y="-230.3" font-family="Times,serif" font-size="14.00" fill="#000000">Expression:&#45;</text>
</g>
<!-- n54&#45;&gt;n55 -->
<g id="edge45" class="edge">
<title>n54&#45;&gt;n55</title>
<path fill="none" stroke="#000000" d="M2119.0386,-287.8314C2119.0386,-280.131 2119.0386,-270.9743 2119.0386,-262.4166"/>
<polygon fill="#000000" stroke="#000000" points="2122.5387,-262.4132 2119.0386,-252.4133 2115.5387,-262.4133 2122.5387,-262.4132"/>
</g>
<!-- n56 -->
<g id="node56" class="node">
<title>n56</title>
<ellipse fill="none" stroke="#000000" cx="2048.0386" cy="-162" rx="62.2891" ry="18"/>
<text text-anchor="middle" x="2048.0386" y="-158.3" font-family="Times,serif" font-size="14.00" fill="#000000">Expression</text>
</g>
<!-- n55&#45;&gt;n56 -->
<g id="edge42" class="edge">
<title>n55&#45;&gt;n56</title>
<path fill="none" stroke="#000000" d="M2101.8515,-216.5708C2093.0214,-207.6164 2082.1098,-196.551 2072.4253,-186.7302"/>
<polygon fill="#000000" stroke="#000000" points="2074.8272,-184.1811 2065.3136,-179.5182 2069.8429,-189.0961 2074.8272,-184.1811"/>
</g>
<!-- n59 -->
<g id="node59" class="node">
<title>n59</title>
<ellipse fill="none" stroke="#000000" cx="2199.0386" cy="-162" rx="62.2891" ry="18"/>
<text text-anchor="middle" x="2199.0386" y="-158.3" font-family="Times,serif" font-size="14.00" fill="#000000">Expression</text>
</g>
<!-- n55&#45;&gt;n59 -->
<g id="edge44" class="edge">
<title>n55&#45;&gt;n59</title>
<path fill="none" stroke="#000000" d="M2138.4044,-216.5708C2148.5258,-207.4616 2161.0743,-196.1679 2172.1252,-186.2221"/>
<polygon fill="#000000" stroke="#000000" points="2174.7596,-188.5599 2179.8512,-179.2687 2170.0769,-183.3568 2174.7596,-188.5599"/>
</g>
<!-- n57 -->
<g id="node57" class="node">
<title>n57</title>
<ellipse fill="none" stroke="#000000" cx="2032.0386" cy="-90" rx="100.1823" ry="18"/>
<text text-anchor="middle" x="2032.0386" y="-86.3" font-family="Times,serif" font-size="14.00" fill="#000000">PrimaryExpression</text>
</g>
<!-- n56&#45;&gt;n57 -->
<g id="edge41" class="edge">
<title>n56&#45;&gt;n57</title>
<path fill="none" stroke="#000000" d="M2044.0012,-143.8314C2042.29,-136.131 2040.2552,-126.9743 2038.3534,-118.4166"/>
<polygon fill="#000000" stroke="#000000" points="2041.7165,-117.4159 2036.1305,-108.4133 2034.8832,-118.9344 2041.7165,-117.4159"/>
</g>
<!-- n58 -->
<g id="node58" class="node">
<title>n58</title>
<ellipse fill="none" stroke="#000000" cx="2032.0386" cy="-18" rx="77.9862" ry="18"/>
<text text-anchor="middle" x="2032.0386" y="-14.3" font-family="Times,serif" font-size="14.00" fill="#000000">Identifier:num</text>
</g>
<!-- n57&#45;&gt;n58 -->
<g id="edge40" class="edge">
<title>n57&#45;&gt;n58</title>
<path fill="none" stroke="#000000" d="M2032.0386,-71.8314C2032.0386,-64.131 2032.0386,-54.9743 2032.0386,-46.4166"/>
<polygon fill="#000000" stroke="#000000" points="2035.5387,-46.4132 2032.0386,-36.4133 2028.5387,-46.4133 2035.5387,-46.4132"/>
</g>
<!-- n60 -->
<g id="node60" class="node">
<title>n60</title>
<ellipse fill="none" stroke="#000000" cx="2208.0386" cy="-90" rx="57.6901" ry="18"/>
<text text-anchor="middle" x="2208.0386" y="-86.3" font-family="Times,serif" font-size="14.00" fill="#000000">Number:1</text>
</g>
<!-- n59&#45;&gt;n60 -->
<g id="edge43" class="edge">
<title>n59&#45;&gt;n60</title>
<path fill="none" stroke="#000000" d="M2201.3097,-143.8314C2202.2723,-136.131 2203.4168,-126.9743 2204.4866,-118.4166"/>
<polygon fill="#000000" stroke="#000000" points="2207.9695,-118.7702 2205.737,-108.4133 2201.0236,-117.9019 2207.9695,-118.7702"/>
</g>
<!-- n62 -->
<g id="node62" class="node">
<title>n62</title>
<ellipse fill="none" stroke="#000000" cx="1667.0386" cy="-954" rx="62.2891" ry="18"/>
<text text-anchor="middle" x="1667.0386" y="-950.3" font-family="Times,serif" font-size="14.00" fill="#000000">Expression</text>
</g>
<!-- n61&#45;&gt;n62 -->
<g id="edge59" class="edge">
<title>n61&#45;&gt;n62</title>
<path fill="none" stroke="#000000" d="M1512.591,-1013.7862C1542.0232,-1002.3931 1586.3173,-985.247 1619.9341,-972.234"/>
<polygon fill="#000000" stroke="#000000" points="1621.4904,-975.3847 1629.5526,-968.5107 1618.9634,-968.8567 1621.4904,-975.3847"/>
</g>
<!-- n63 -->
<g id="node63" class="node">
<title>n63</title>
<ellipse fill="none" stroke="#000000" cx="1799.0386" cy="-882" rx="100.1823" ry="18"/>
<text text-anchor="middle" x="1799.0386" y="-878.3" font-family="Times,serif" font-size="14.00" fill="#000000">PrimaryExpression</text>
</g>
<!-- n62&#45;&gt;n63 -->
<g id="edge58" class="edge">
<title>n62&#45;&gt;n63</title>
<path fill="none" stroke="#000000" d="M1696.3337,-938.0209C1714.6445,-928.0332 1738.482,-915.0309 1758.5821,-904.0672"/>
<polygon fill="#000000" stroke="#000000" points="1760.418,-907.0527 1767.521,-899.1915 1757.066,-900.9074 1760.418,-907.0527"/>
</g>
<!-- n64 -->
<g id="node64" class="node">
<title>n64</title>
<ellipse fill="none" stroke="#000000" cx="1799.0386" cy="-810" rx="99.3824" ry="18"/>
<text text-anchor="middle" x="1799.0386" y="-806.3" font-family="Times,serif" font-size="14.00" fill="#000000">Identifier:num_aux</text>
</g>
<!-- n63&#45;&gt;n64 -->
<g id="edge57" class="edge">
<title>n63&#45;&gt;n64</title>
<path fill="none" stroke="#000000" d="M1799.0386,-863.8314C1799.0386,-856.131 1799.0386,-846.9743 1799.0386,-838.4166"/>
<polygon fill="#000000" stroke="#000000" points="1802.5387,-838.4132 1799.0386,-828.4133 1795.5387,-838.4133 1802.5387,-838.4132"/>
</g>
</g>
</svg>
