<?xml version="1.0" encoding="UTF-8" standalone="no"?>
<!DOCTYPE svg PUBLIC "-//W3C//DTD SVG 1.1//EN"
 "http://www.w3.org/Graphics/SVG/1.1/DTD/svg11.dtd">
<!-- Generated by graphviz version 2.40.1 (20161225.0304)
 -->
<!-- Title: %3 Pages: 1 -->
<svg width="2316pt" height="1340pt"
 viewBox="0.00 0.00 2315.64 1340.00" xmlns="http://www.w3.org/2000/svg" xmlns:xlink="http://www.w3.org/1999/xlink">
<g id="graph0" class="graph" transform="scale(1 1) rotate(0) translate(4 1336)">
<title>%3</title>
<polygon fill="#ffffff" stroke="transparent" points="-4,4 -4,-1336 2311.6361,-1336 2311.6361,4 -4,4"/>
<!-- n1 -->
<g id="node1" class="node">
<title>n1</title>
<ellipse fill="none" stroke="#000000" cx="441.7912" cy="-1314" rx="31.6951" ry="18"/>
<text text-anchor="middle" x="441.7912" y="-1310.3" font-family="Times,serif" font-size="14.00" fill="#000000">Goal</text>
</g>
<!-- n2 -->
<g id="node2" class="node">
<title>n2</title>
<ellipse fill="none" stroke="#000000" cx="357.7912" cy="-1242" rx="59.5901" ry="18"/>
<text text-anchor="middle" x="357.7912" y="-1238.3" font-family="Times,serif" font-size="14.00" fill="#000000">MainClass</text>
</g>
<!-- n1&#45;&gt;n2 -->
<g id="edge12" class="edge">
<title>n1&#45;&gt;n2</title>
<path fill="none" stroke="#000000" d="M423.977,-1298.7307C412.7303,-1289.0907 397.9739,-1276.4422 385.2491,-1265.5353"/>
<polygon fill="#000000" stroke="#000000" points="387.5086,-1262.8622 377.6382,-1259.0117 382.953,-1268.177 387.5086,-1262.8622"/>
</g>
<!-- n14 -->
<g id="node14" class="node">
<title>n14</title>
<ellipse fill="none" stroke="#000000" cx="605.7912" cy="-1242" rx="90.1842" ry="18"/>
<text text-anchor="middle" x="605.7912" y="-1238.3" font-family="Times,serif" font-size="14.00" fill="#000000">ClassDeclaration</text>
</g>
<!-- n1&#45;&gt;n14 -->
<g id="edge63" class="edge">
<title>n1&#45;&gt;n14</title>
<path fill="none" stroke="#000000" d="M467.0568,-1302.9078C491.4606,-1292.1939 529.014,-1275.7071 558.8984,-1262.5871"/>
<polygon fill="#000000" stroke="#000000" points="560.5558,-1265.682 568.3053,-1258.4572 557.7418,-1259.2725 560.5558,-1265.682"/>
</g>
<!-- n3 -->
<g id="node3" class="node">
<title>n3</title>
<ellipse fill="none" stroke="#000000" cx="98.7912" cy="-1170" rx="98.5829" ry="18"/>
<text text-anchor="middle" x="98.7912" y="-1166.3" font-family="Times,serif" font-size="14.00" fill="#000000">Identifier:Factorial</text>
</g>
<!-- n2&#45;&gt;n3 -->
<g id="edge1" class="edge">
<title>n2&#45;&gt;n3</title>
<path fill="none" stroke="#000000" d="M313.8554,-1229.7862C272.4903,-1218.287 210.0429,-1200.9271 163.0791,-1187.8715"/>
<polygon fill="#000000" stroke="#000000" points="163.8778,-1184.4609 153.3057,-1185.1546 162.0029,-1191.2052 163.8778,-1184.4609"/>
</g>
<!-- n4 -->
<g id="node4" class="node">
<title>n4</title>
<ellipse fill="none" stroke="#000000" cx="278.7912" cy="-1170" rx="63.0888" ry="18"/>
<text text-anchor="middle" x="278.7912" y="-1166.3" font-family="Times,serif" font-size="14.00" fill="#000000">Identifier:a</text>
</g>
<!-- n2&#45;&gt;n4 -->
<g id="edge2" class="edge">
<title>n2&#45;&gt;n4</title>
<path fill="none" stroke="#000000" d="M338.6675,-1224.5708C328.6727,-1215.4616 316.281,-1204.1679 305.3682,-1194.2221"/>
<polygon fill="#000000" stroke="#000000" points="307.4874,-1191.4179 297.7388,-1187.2687 302.7722,-1196.5916 307.4874,-1191.4179"/>
</g>
<!-- n5 -->
<g id="node5" class="node">
<title>n5</title>
<ellipse fill="none" stroke="#000000" cx="436.7912" cy="-1170" rx="76.8869" ry="18"/>
<text text-anchor="middle" x="436.7912" y="-1166.3" font-family="Times,serif" font-size="14.00" fill="#000000">DeclareStates</text>
</g>
<!-- n2&#45;&gt;n5 -->
<g id="edge11" class="edge">
<title>n2&#45;&gt;n5</title>
<path fill="none" stroke="#000000" d="M376.9149,-1224.5708C386.8363,-1215.5286 399.1194,-1204.3338 409.9733,-1194.4417"/>
<polygon fill="#000000" stroke="#000000" points="412.5365,-1196.8411 417.5698,-1187.5182 407.8213,-1191.6675 412.5365,-1196.8411"/>
</g>
<!-- n6 -->
<g id="node6" class="node">
<title>n6</title>
<ellipse fill="none" stroke="#000000" cx="436.7912" cy="-1098" rx="128.0773" ry="18"/>
<text text-anchor="middle" x="436.7912" y="-1094.3" font-family="Times,serif" font-size="14.00" fill="#000000">Statement:S.O.PRINTLN</text>
</g>
<!-- n5&#45;&gt;n6 -->
<g id="edge10" class="edge">
<title>n5&#45;&gt;n6</title>
<path fill="none" stroke="#000000" d="M436.7912,-1151.8314C436.7912,-1144.131 436.7912,-1134.9743 436.7912,-1126.4166"/>
<polygon fill="#000000" stroke="#000000" points="440.2913,-1126.4132 436.7912,-1116.4133 433.2913,-1126.4133 440.2913,-1126.4132"/>
</g>
<!-- n7 -->
<g id="node7" class="node">
<title>n7</title>
<ellipse fill="none" stroke="#000000" cx="436.7912" cy="-1026" rx="62.2891" ry="18"/>
<text text-anchor="middle" x="436.7912" y="-1022.3" font-family="Times,serif" font-size="14.00" fill="#000000">Expression</text>
</g>
<!-- n6&#45;&gt;n7 -->
<g id="edge9" class="edge">
<title>n6&#45;&gt;n7</title>
<path fill="none" stroke="#000000" d="M436.7912,-1079.8314C436.7912,-1072.131 436.7912,-1062.9743 436.7912,-1054.4166"/>
<polygon fill="#000000" stroke="#000000" points="440.2913,-1054.4132 436.7912,-1044.4133 433.2913,-1054.4133 440.2913,-1054.4132"/>
</g>
<!-- n8 -->
<g id="node8" class="node">
<title>n8</title>
<ellipse fill="none" stroke="#000000" cx="174.7912" cy="-954" rx="128.0773" ry="18"/>
<text text-anchor="middle" x="174.7912" y="-950.3" font-family="Times,serif" font-size="14.00" fill="#000000">PrimaryExpression:NEW</text>
</g>
<!-- n7&#45;&gt;n8 -->
<g id="edge4" class="edge">
<title>n7&#45;&gt;n8</title>
<path fill="none" stroke="#000000" d="M391.4534,-1013.5408C350.5698,-1002.3055 289.8637,-985.623 243.1023,-972.7725"/>
<polygon fill="#000000" stroke="#000000" points="243.9177,-969.3669 233.3477,-970.0919 242.0628,-976.1167 243.9177,-969.3669"/>
</g>
<!-- n10 -->
<g id="node10" class="node">
<title>n10</title>
<ellipse fill="none" stroke="#000000" cx="436.7912" cy="-954" rx="116.1796" ry="18"/>
<text text-anchor="middle" x="436.7912" y="-950.3" font-family="Times,serif" font-size="14.00" fill="#000000">Identifier:ComputeFac</text>
</g>
<!-- n7&#45;&gt;n10 -->
<g id="edge5" class="edge">
<title>n7&#45;&gt;n10</title>
<path fill="none" stroke="#000000" d="M436.7912,-1007.8314C436.7912,-1000.131 436.7912,-990.9743 436.7912,-982.4166"/>
<polygon fill="#000000" stroke="#000000" points="440.2913,-982.4132 436.7912,-972.4133 433.2913,-982.4133 440.2913,-982.4132"/>
</g>
<!-- n11 -->
<g id="node11" class="node">
<title>n11</title>
<ellipse fill="none" stroke="#000000" cx="651.7912" cy="-954" rx="80.6858" ry="18"/>
<text text-anchor="middle" x="651.7912" y="-950.3" font-family="Times,serif" font-size="14.00" fill="#000000">ExpressionList</text>
</g>
<!-- n7&#45;&gt;n11 -->
<g id="edge8" class="edge">
<title>n7&#45;&gt;n11</title>
<path fill="none" stroke="#000000" d="M477.7372,-1012.2879C511.6253,-1000.9393 560.061,-984.7189 597.2373,-972.2692"/>
<polygon fill="#000000" stroke="#000000" points="598.5445,-975.5226 606.9155,-969.0282 596.3216,-968.8849 598.5445,-975.5226"/>
</g>
<!-- n9 -->
<g id="node9" class="node">
<title>n9</title>
<ellipse fill="none" stroke="#000000" cx="174.7912" cy="-882" rx="74.187" ry="18"/>
<text text-anchor="middle" x="174.7912" y="-878.3" font-family="Times,serif" font-size="14.00" fill="#000000">Identifier:Fac</text>
</g>
<!-- n8&#45;&gt;n9 -->
<g id="edge3" class="edge">
<title>n8&#45;&gt;n9</title>
<path fill="none" stroke="#000000" d="M174.7912,-935.8314C174.7912,-928.131 174.7912,-918.9743 174.7912,-910.4166"/>
<polygon fill="#000000" stroke="#000000" points="178.2913,-910.4132 174.7912,-900.4133 171.2913,-910.4133 178.2913,-910.4132"/>
</g>
<!-- n12 -->
<g id="node12" class="node">
<title>n12</title>
<ellipse fill="none" stroke="#000000" cx="651.7912" cy="-882" rx="62.2891" ry="18"/>
<text text-anchor="middle" x="651.7912" y="-878.3" font-family="Times,serif" font-size="14.00" fill="#000000">Expression</text>
</g>
<!-- n11&#45;&gt;n12 -->
<g id="edge7" class="edge">
<title>n11&#45;&gt;n12</title>
<path fill="none" stroke="#000000" d="M651.7912,-935.8314C651.7912,-928.131 651.7912,-918.9743 651.7912,-910.4166"/>
<polygon fill="#000000" stroke="#000000" points="655.2913,-910.4132 651.7912,-900.4133 648.2913,-910.4133 655.2913,-910.4132"/>
</g>
<!-- n13 -->
<g id="node13" class="node">
<title>n13</title>
<ellipse fill="none" stroke="#000000" cx="651.7912" cy="-810" rx="63.8893" ry="18"/>
<text text-anchor="middle" x="651.7912" y="-806.3" font-family="Times,serif" font-size="14.00" fill="#000000">Number:10</text>
</g>
<!-- n12&#45;&gt;n13 -->
<g id="edge6" class="edge">
<title>n12&#45;&gt;n13</title>
<path fill="none" stroke="#000000" d="M651.7912,-863.8314C651.7912,-856.131 651.7912,-846.9743 651.7912,-838.4166"/>
<polygon fill="#000000" stroke="#000000" points="655.2913,-838.4132 651.7912,-828.4133 648.2913,-838.4133 655.2913,-838.4132"/>
</g>
<!-- n15 -->
<g id="node15" class="node">
<title>n15</title>
<ellipse fill="none" stroke="#000000" cx="605.7912" cy="-1170" rx="74.187" ry="18"/>
<text text-anchor="middle" x="605.7912" y="-1166.3" font-family="Times,serif" font-size="14.00" fill="#000000">Identifier:Fac</text>
</g>
<!-- n14&#45;&gt;n15 -->
<g id="edge13" class="edge">
<title>n14&#45;&gt;n15</title>
<path fill="none" stroke="#000000" d="M605.7912,-1223.8314C605.7912,-1216.131 605.7912,-1206.9743 605.7912,-1198.4166"/>
<polygon fill="#000000" stroke="#000000" points="609.2913,-1198.4132 605.7912,-1188.4133 602.2913,-1198.4133 609.2913,-1198.4132"/>
</g>
<!-- n16 -->
<g id="node16" class="node">
<title>n16</title>
<ellipse fill="none" stroke="#000000" cx="767.7912" cy="-1170" rx="69.5877" ry="18"/>
<text text-anchor="middle" x="767.7912" y="-1166.3" font-family="Times,serif" font-size="14.00" fill="#000000">Declarations</text>
</g>
<!-- n14&#45;&gt;n16 -->
<g id="edge62" class="edge">
<title>n14&#45;&gt;n16</title>
<path fill="none" stroke="#000000" d="M642.9573,-1225.4817C666.8957,-1214.8424 698.1436,-1200.9545 723.3871,-1189.7352"/>
<polygon fill="#000000" stroke="#000000" points="725.0236,-1192.838 732.7402,-1185.5782 722.1806,-1186.4413 725.0236,-1192.838"/>
</g>
<!-- n17 -->
<g id="node17" class="node">
<title>n17</title>
<ellipse fill="none" stroke="#000000" cx="767.7912" cy="-1098" rx="100.9827" ry="18"/>
<text text-anchor="middle" x="767.7912" y="-1094.3" font-family="Times,serif" font-size="14.00" fill="#000000">MethodDeclaration</text>
</g>
<!-- n16&#45;&gt;n17 -->
<g id="edge61" class="edge">
<title>n16&#45;&gt;n17</title>
<path fill="none" stroke="#000000" d="M767.7912,-1151.8314C767.7912,-1144.131 767.7912,-1134.9743 767.7912,-1126.4166"/>
<polygon fill="#000000" stroke="#000000" points="771.2913,-1126.4132 767.7912,-1116.4133 764.2913,-1126.4133 771.2913,-1126.4132"/>
</g>
<!-- n18 -->
<g id="node18" class="node">
<title>n18</title>
<ellipse fill="none" stroke="#000000" cx="575.7912" cy="-1026" rx="49.2915" ry="18"/>
<text text-anchor="middle" x="575.7912" y="-1022.3" font-family="Times,serif" font-size="14.00" fill="#000000">Type:int</text>
</g>
<!-- n17&#45;&gt;n18 -->
<g id="edge14" class="edge">
<title>n17&#45;&gt;n18</title>
<path fill="none" stroke="#000000" d="M724.2235,-1081.6621C693.0746,-1069.9813 651.3023,-1054.3167 620.0074,-1042.5811"/>
<polygon fill="#000000" stroke="#000000" points="620.8339,-1039.1531 610.2417,-1038.9189 618.376,-1045.7074 620.8339,-1039.1531"/>
</g>
<!-- n19 -->
<g id="node19" class="node">
<title>n19</title>
<ellipse fill="none" stroke="#000000" cx="759.7912" cy="-1026" rx="116.1796" ry="18"/>
<text text-anchor="middle" x="759.7912" y="-1022.3" font-family="Times,serif" font-size="14.00" fill="#000000">Identifier:ComputeFac</text>
</g>
<!-- n17&#45;&gt;n19 -->
<g id="edge15" class="edge">
<title>n17&#45;&gt;n19</title>
<path fill="none" stroke="#000000" d="M765.7725,-1079.8314C764.9169,-1072.131 763.8995,-1062.9743 762.9486,-1054.4166"/>
<polygon fill="#000000" stroke="#000000" points="766.4201,-1053.9656 761.8372,-1044.4133 759.463,-1054.7386 766.4201,-1053.9656"/>
</g>
<!-- n20 -->
<g id="node20" class="node">
<title>n20</title>
<ellipse fill="none" stroke="#000000" cx="1004.7912" cy="-1026" rx="110.4804" ry="18"/>
<text text-anchor="middle" x="1004.7912" y="-1022.3" font-family="Times,serif" font-size="14.00" fill="#000000">FormalParameterList</text>
</g>
<!-- n17&#45;&gt;n20 -->
<g id="edge18" class="edge">
<title>n17&#45;&gt;n20</title>
<path fill="none" stroke="#000000" d="M818.9249,-1082.4657C855.3043,-1071.4138 904.3681,-1056.5083 942.9511,-1044.7869"/>
<polygon fill="#000000" stroke="#000000" points="943.9696,-1048.1355 952.5204,-1041.8797 941.9348,-1041.4377 943.9696,-1048.1355"/>
</g>
<!-- n23 -->
<g id="node23" class="node">
<title>n23</title>
<ellipse fill="none" stroke="#000000" cx="1280.7912" cy="-1026" rx="76.8869" ry="18"/>
<text text-anchor="middle" x="1280.7912" y="-1022.3" font-family="Times,serif" font-size="14.00" fill="#000000">DeclareStates</text>
</g>
<!-- n17&#45;&gt;n23 -->
<g id="edge60" class="edge">
<title>n17&#45;&gt;n23</title>
<path fill="none" stroke="#000000" d="M847.1037,-1086.8684C944.6192,-1073.182 1108.9511,-1050.1179 1204.8811,-1036.6541"/>
<polygon fill="#000000" stroke="#000000" points="1205.3863,-1040.1175 1214.8028,-1035.2615 1204.4133,-1033.1855 1205.3863,-1040.1175"/>
</g>
<!-- n21 -->
<g id="node21" class="node">
<title>n21</title>
<ellipse fill="none" stroke="#000000" cx="859.7912" cy="-954" rx="49.2915" ry="18"/>
<text text-anchor="middle" x="859.7912" y="-950.3" font-family="Times,serif" font-size="14.00" fill="#000000">Type:int</text>
</g>
<!-- n20&#45;&gt;n21 -->
<g id="edge16" class="edge">
<title>n20&#45;&gt;n21</title>
<path fill="none" stroke="#000000" d="M970.0601,-1008.7542C948.5069,-998.0519 920.7751,-984.2816 898.5144,-973.2281"/>
<polygon fill="#000000" stroke="#000000" points="899.8563,-969.9867 889.3431,-968.674 896.7431,-976.2563 899.8563,-969.9867"/>
</g>
<!-- n22 -->
<g id="node22" class="node">
<title>n22</title>
<ellipse fill="none" stroke="#000000" cx="1004.7912" cy="-954" rx="77.9862" ry="18"/>
<text text-anchor="middle" x="1004.7912" y="-950.3" font-family="Times,serif" font-size="14.00" fill="#000000">Identifier:num</text>
</g>
<!-- n20&#45;&gt;n22 -->
<g id="edge17" class="edge">
<title>n20&#45;&gt;n22</title>
<path fill="none" stroke="#000000" d="M1004.7912,-1007.8314C1004.7912,-1000.131 1004.7912,-990.9743 1004.7912,-982.4166"/>
<polygon fill="#000000" stroke="#000000" points="1008.2913,-982.4132 1004.7912,-972.4133 1001.2913,-982.4133 1008.2913,-982.4132"/>
</g>
<!-- n24 -->
<g id="node24" class="node">
<title>n24</title>
<ellipse fill="none" stroke="#000000" cx="1181.7912" cy="-954" rx="80.6858" ry="18"/>
<text text-anchor="middle" x="1181.7912" y="-950.3" font-family="Times,serif" font-size="14.00" fill="#000000">VarDeclaration</text>
</g>
<!-- n23&#45;&gt;n24 -->
<g id="edge21" class="edge">
<title>n23&#45;&gt;n24</title>
<path fill="none" stroke="#000000" d="M1257.0783,-1008.7542C1244.1931,-999.3832 1228.0737,-987.66 1214.0597,-977.468"/>
<polygon fill="#000000" stroke="#000000" points="1215.7998,-974.4058 1205.6538,-971.3546 1211.6826,-980.067 1215.7998,-974.4058"/>
</g>
<!-- n27 -->
<g id="node27" class="node">
<title>n27</title>
<ellipse fill="none" stroke="#000000" cx="1437.7912" cy="-954" rx="72.5877" ry="18"/>
<text text-anchor="middle" x="1437.7912" y="-950.3" font-family="Times,serif" font-size="14.00" fill="#000000">Statement:IF</text>
</g>
<!-- n23&#45;&gt;n27 -->
<g id="edge55" class="edge">
<title>n23&#45;&gt;n27</title>
<path fill="none" stroke="#000000" d="M1316.0251,-1009.8418C1339.113,-999.2537 1369.4624,-985.3355 1394.0858,-974.0433"/>
<polygon fill="#000000" stroke="#000000" points="1395.5848,-977.2064 1403.2155,-969.8564 1392.6667,-970.8436 1395.5848,-977.2064"/>
</g>
<!-- n61 -->
<g id="node61" class="node">
<title>n61</title>
<ellipse fill="none" stroke="#000000" cx="1697.7912" cy="-954" rx="42.7926" ry="18"/>
<text text-anchor="middle" x="1697.7912" y="-950.3" font-family="Times,serif" font-size="14.00" fill="#000000">Return</text>
</g>
<!-- n23&#45;&gt;n61 -->
<g id="edge59" class="edge">
<title>n23&#45;&gt;n61</title>
<path fill="none" stroke="#000000" d="M1342.7701,-1015.2986C1425.7622,-1000.9691 1571.3811,-975.8262 1647.7787,-962.6353"/>
<polygon fill="#000000" stroke="#000000" points="1648.8269,-966.0061 1658.0856,-960.8557 1647.6358,-959.1082 1648.8269,-966.0061"/>
</g>
<!-- n25 -->
<g id="node25" class="node">
<title>n25</title>
<ellipse fill="none" stroke="#000000" cx="971.7912" cy="-882" rx="49.2915" ry="18"/>
<text text-anchor="middle" x="971.7912" y="-878.3" font-family="Times,serif" font-size="14.00" fill="#000000">Type:int</text>
</g>
<!-- n24&#45;&gt;n25 -->
<g id="edge19" class="edge">
<title>n24&#45;&gt;n25</title>
<path fill="none" stroke="#000000" d="M1137.7684,-938.9064C1102.5891,-926.845 1053.4347,-909.9921 1017.7544,-897.7588"/>
<polygon fill="#000000" stroke="#000000" points="1018.6655,-894.3712 1008.0709,-894.4387 1016.3952,-900.9928 1018.6655,-894.3712"/>
</g>
<!-- n26 -->
<g id="node26" class="node">
<title>n26</title>
<ellipse fill="none" stroke="#000000" cx="1138.7912" cy="-882" rx="99.3824" ry="18"/>
<text text-anchor="middle" x="1138.7912" y="-878.3" font-family="Times,serif" font-size="14.00" fill="#000000">Identifier:num_aux</text>
</g>
<!-- n24&#45;&gt;n26 -->
<g id="edge20" class="edge">
<title>n24&#45;&gt;n26</title>
<path fill="none" stroke="#000000" d="M1170.9405,-935.8314C1166.0143,-927.5829 1160.0903,-917.6635 1154.6769,-908.5992"/>
<polygon fill="#000000" stroke="#000000" points="1157.6219,-906.7042 1149.4895,-899.9134 1151.6121,-910.2935 1157.6219,-906.7042"/>
</g>
<!-- n28 -->
<g id="node28" class="node">
<title>n28</title>
<ellipse fill="none" stroke="#000000" cx="1329.7912" cy="-882" rx="73.387" ry="18"/>
<text text-anchor="middle" x="1329.7912" y="-878.3" font-family="Times,serif" font-size="14.00" fill="#000000">Expression:&lt;</text>
</g>
<!-- n27&#45;&gt;n28 -->
<g id="edge27" class="edge">
<title>n27&#45;&gt;n28</title>
<path fill="none" stroke="#000000" d="M1412.47,-937.1192C1397.951,-927.4399 1379.5354,-915.1628 1363.7714,-904.6534"/>
<polygon fill="#000000" stroke="#000000" points="1365.59,-901.6594 1355.328,-899.0245 1361.7071,-907.4837 1365.59,-901.6594"/>
</g>
<!-- n34 -->
<g id="node34" class="node">
<title>n34</title>
<ellipse fill="none" stroke="#000000" cx="1480.7912" cy="-882" rx="59.5901" ry="18"/>
<text text-anchor="middle" x="1480.7912" y="-878.3" font-family="Times,serif" font-size="14.00" fill="#000000">Statement</text>
</g>
<!-- n27&#45;&gt;n34 -->
<g id="edge33" class="edge">
<title>n27&#45;&gt;n34</title>
<path fill="none" stroke="#000000" d="M1448.6419,-935.8314C1453.5681,-927.5829 1459.4922,-917.6635 1464.9056,-908.5992"/>
<polygon fill="#000000" stroke="#000000" points="1467.9704,-910.2935 1470.0929,-899.9134 1461.9606,-906.7042 1467.9704,-910.2935"/>
</g>
<!-- n40 -->
<g id="node40" class="node">
<title>n40</title>
<ellipse fill="none" stroke="#000000" cx="1647.7912" cy="-882" rx="89.0842" ry="18"/>
<text text-anchor="middle" x="1647.7912" y="-878.3" font-family="Times,serif" font-size="14.00" fill="#000000">Statement:ELSE</text>
</g>
<!-- n27&#45;&gt;n40 -->
<g id="edge54" class="edge">
<title>n27&#45;&gt;n40</title>
<path fill="none" stroke="#000000" d="M1480.541,-939.3429C1512.9878,-928.2183 1557.8469,-912.838 1592.9392,-900.8064"/>
<polygon fill="#000000" stroke="#000000" points="1594.2353,-904.0621 1602.5596,-897.508 1591.9649,-897.4405 1594.2353,-904.0621"/>
</g>
<!-- n29 -->
<g id="node29" class="node">
<title>n29</title>
<ellipse fill="none" stroke="#000000" cx="1164.7912" cy="-810" rx="62.2891" ry="18"/>
<text text-anchor="middle" x="1164.7912" y="-806.3" font-family="Times,serif" font-size="14.00" fill="#000000">Expression</text>
</g>
<!-- n28&#45;&gt;n29 -->
<g id="edge24" class="edge">
<title>n28&#45;&gt;n29</title>
<path fill="none" stroke="#000000" d="M1293.5813,-866.1993C1268.5727,-855.2865 1235.1735,-840.7123 1208.6543,-829.1403"/>
<polygon fill="#000000" stroke="#000000" points="1209.7889,-825.8167 1199.2237,-825.0251 1206.9893,-832.2325 1209.7889,-825.8167"/>
</g>
<!-- n32 -->
<g id="node32" class="node">
<title>n32</title>
<ellipse fill="none" stroke="#000000" cx="1329.7912" cy="-810" rx="62.2891" ry="18"/>
<text text-anchor="middle" x="1329.7912" y="-806.3" font-family="Times,serif" font-size="14.00" fill="#000000">Expression</text>
</g>
<!-- n28&#45;&gt;n32 -->
<g id="edge26" class="edge">
<title>n28&#45;&gt;n32</title>
<path fill="none" stroke="#000000" d="M1329.7912,-863.8314C1329.7912,-856.131 1329.7912,-846.9743 1329.7912,-838.4166"/>
<polygon fill="#000000" stroke="#000000" points="1333.2913,-838.4132 1329.7912,-828.4133 1326.2913,-838.4133 1333.2913,-838.4132"/>
</g>
<!-- n30 -->
<g id="node30" class="node">
<title>n30</title>
<ellipse fill="none" stroke="#000000" cx="1141.7912" cy="-738" rx="100.1823" ry="18"/>
<text text-anchor="middle" x="1141.7912" y="-734.3" font-family="Times,serif" font-size="14.00" fill="#000000">PrimaryExpression</text>
</g>
<!-- n29&#45;&gt;n30 -->
<g id="edge23" class="edge">
<title>n29&#45;&gt;n30</title>
<path fill="none" stroke="#000000" d="M1158.9874,-791.8314C1156.5005,-784.0463 1153.5381,-774.7729 1150.7787,-766.1347"/>
<polygon fill="#000000" stroke="#000000" points="1154.0503,-764.874 1147.6732,-756.4133 1147.3823,-767.0041 1154.0503,-764.874"/>
</g>
<!-- n31 -->
<g id="node31" class="node">
<title>n31</title>
<ellipse fill="none" stroke="#000000" cx="1117.7912" cy="-666" rx="77.9862" ry="18"/>
<text text-anchor="middle" x="1117.7912" y="-662.3" font-family="Times,serif" font-size="14.00" fill="#000000">Identifier:num</text>
</g>
<!-- n30&#45;&gt;n31 -->
<g id="edge22" class="edge">
<title>n30&#45;&gt;n31</title>
<path fill="none" stroke="#000000" d="M1135.735,-719.8314C1133.14,-712.0463 1130.0489,-702.7729 1127.1695,-694.1347"/>
<polygon fill="#000000" stroke="#000000" points="1130.4117,-692.7933 1123.929,-684.4133 1123.7709,-695.0069 1130.4117,-692.7933"/>
</g>
<!-- n33 -->
<g id="node33" class="node">
<title>n33</title>
<ellipse fill="none" stroke="#000000" cx="1329.7912" cy="-738" rx="57.6901" ry="18"/>
<text text-anchor="middle" x="1329.7912" y="-734.3" font-family="Times,serif" font-size="14.00" fill="#000000">Number:1</text>
</g>
<!-- n32&#45;&gt;n33 -->
<g id="edge25" class="edge">
<title>n32&#45;&gt;n33</title>
<path fill="none" stroke="#000000" d="M1329.7912,-791.8314C1329.7912,-784.131 1329.7912,-774.9743 1329.7912,-766.4166"/>
<polygon fill="#000000" stroke="#000000" points="1333.2913,-766.4132 1329.7912,-756.4133 1326.2913,-766.4133 1333.2913,-766.4132"/>
</g>
<!-- n35 -->
<g id="node35" class="node">
<title>n35</title>
<ellipse fill="none" stroke="#000000" cx="1480.7912" cy="-810" rx="64.189" ry="18"/>
<text text-anchor="middle" x="1480.7912" y="-806.3" font-family="Times,serif" font-size="14.00" fill="#000000">Statements</text>
</g>
<!-- n34&#45;&gt;n35 -->
<g id="edge32" class="edge">
<title>n34&#45;&gt;n35</title>
<path fill="none" stroke="#000000" d="M1480.7912,-863.8314C1480.7912,-856.131 1480.7912,-846.9743 1480.7912,-838.4166"/>
<polygon fill="#000000" stroke="#000000" points="1484.2913,-838.4132 1480.7912,-828.4133 1477.2913,-838.4133 1484.2913,-838.4132"/>
</g>
<!-- n36 -->
<g id="node36" class="node">
<title>n36</title>
<ellipse fill="none" stroke="#000000" cx="1480.7912" cy="-738" rx="70.3881" ry="18"/>
<text text-anchor="middle" x="1480.7912" y="-734.3" font-family="Times,serif" font-size="14.00" fill="#000000">Statement:=</text>
</g>
<!-- n35&#45;&gt;n36 -->
<g id="edge31" class="edge">
<title>n35&#45;&gt;n36</title>
<path fill="none" stroke="#000000" d="M1480.7912,-791.8314C1480.7912,-784.131 1480.7912,-774.9743 1480.7912,-766.4166"/>
<polygon fill="#000000" stroke="#000000" points="1484.2913,-766.4132 1480.7912,-756.4133 1477.2913,-766.4133 1484.2913,-766.4132"/>
</g>
<!-- n37 -->
<g id="node37" class="node">
<title>n37</title>
<ellipse fill="none" stroke="#000000" cx="1312.7912" cy="-666" rx="99.3824" ry="18"/>
<text text-anchor="middle" x="1312.7912" y="-662.3" font-family="Times,serif" font-size="14.00" fill="#000000">Identifier:num_aux</text>
</g>
<!-- n36&#45;&gt;n37 -->
<g id="edge28" class="edge">
<title>n36&#45;&gt;n37</title>
<path fill="none" stroke="#000000" d="M1444.3377,-722.3771C1419.9282,-711.9158 1387.5317,-698.0316 1360.9969,-686.6596"/>
<polygon fill="#000000" stroke="#000000" points="1362.082,-683.3168 1351.5118,-682.5945 1359.3245,-689.7508 1362.082,-683.3168"/>
</g>
<!-- n38 -->
<g id="node38" class="node">
<title>n38</title>
<ellipse fill="none" stroke="#000000" cx="1492.7912" cy="-666" rx="62.2891" ry="18"/>
<text text-anchor="middle" x="1492.7912" y="-662.3" font-family="Times,serif" font-size="14.00" fill="#000000">Expression</text>
</g>
<!-- n36&#45;&gt;n38 -->
<g id="edge30" class="edge">
<title>n36&#45;&gt;n38</title>
<path fill="none" stroke="#000000" d="M1483.8193,-719.8314C1485.1027,-712.131 1486.6288,-702.9743 1488.0551,-694.4166"/>
<polygon fill="#000000" stroke="#000000" points="1491.5307,-694.8526 1489.7224,-684.4133 1484.6259,-693.7018 1491.5307,-694.8526"/>
</g>
<!-- n39 -->
<g id="node39" class="node">
<title>n39</title>
<ellipse fill="none" stroke="#000000" cx="1482.7912" cy="-594" rx="57.6901" ry="18"/>
<text text-anchor="middle" x="1482.7912" y="-590.3" font-family="Times,serif" font-size="14.00" fill="#000000">Number:1</text>
</g>
<!-- n38&#45;&gt;n39 -->
<g id="edge29" class="edge">
<title>n38&#45;&gt;n39</title>
<path fill="none" stroke="#000000" d="M1490.2678,-647.8314C1489.1983,-640.131 1487.9266,-630.9743 1486.738,-622.4166"/>
<polygon fill="#000000" stroke="#000000" points="1490.1911,-621.8367 1485.3486,-612.4133 1483.2577,-622.7997 1490.1911,-621.8367"/>
</g>
<!-- n41 -->
<g id="node41" class="node">
<title>n41</title>
<ellipse fill="none" stroke="#000000" cx="1647.7912" cy="-810" rx="59.5901" ry="18"/>
<text text-anchor="middle" x="1647.7912" y="-806.3" font-family="Times,serif" font-size="14.00" fill="#000000">Statement</text>
</g>
<!-- n40&#45;&gt;n41 -->
<g id="edge53" class="edge">
<title>n40&#45;&gt;n41</title>
<path fill="none" stroke="#000000" d="M1647.7912,-863.8314C1647.7912,-856.131 1647.7912,-846.9743 1647.7912,-838.4166"/>
<polygon fill="#000000" stroke="#000000" points="1651.2913,-838.4132 1647.7912,-828.4133 1644.2913,-838.4133 1651.2913,-838.4132"/>
</g>
<!-- n42 -->
<g id="node42" class="node">
<title>n42</title>
<ellipse fill="none" stroke="#000000" cx="1647.7912" cy="-738" rx="64.189" ry="18"/>
<text text-anchor="middle" x="1647.7912" y="-734.3" font-family="Times,serif" font-size="14.00" fill="#000000">Statements</text>
</g>
<!-- n41&#45;&gt;n42 -->
<g id="edge52" class="edge">
<title>n41&#45;&gt;n42</title>
<path fill="none" stroke="#000000" d="M1647.7912,-791.8314C1647.7912,-784.131 1647.7912,-774.9743 1647.7912,-766.4166"/>
<polygon fill="#000000" stroke="#000000" points="1651.2913,-766.4132 1647.7912,-756.4133 1644.2913,-766.4133 1651.2913,-766.4132"/>
</g>
<!-- n43 -->
<g id="node43" class="node">
<title>n43</title>
<ellipse fill="none" stroke="#000000" cx="1657.7912" cy="-666" rx="70.3881" ry="18"/>
<text text-anchor="middle" x="1657.7912" y="-662.3" font-family="Times,serif" font-size="14.00" fill="#000000">Statement:=</text>
</g>
<!-- n42&#45;&gt;n43 -->
<g id="edge51" class="edge">
<title>n42&#45;&gt;n43</title>
<path fill="none" stroke="#000000" d="M1650.3147,-719.8314C1651.3842,-712.131 1652.6559,-702.9743 1653.8445,-694.4166"/>
<polygon fill="#000000" stroke="#000000" points="1657.3248,-694.7997 1655.2338,-684.4133 1650.3913,-693.8367 1657.3248,-694.7997"/>
</g>
<!-- n44 -->
<g id="node44" class="node">
<title>n44</title>
<ellipse fill="none" stroke="#000000" cx="1657.7912" cy="-594" rx="99.3824" ry="18"/>
<text text-anchor="middle" x="1657.7912" y="-590.3" font-family="Times,serif" font-size="14.00" fill="#000000">Identifier:num_aux</text>
</g>
<!-- n43&#45;&gt;n44 -->
<g id="edge34" class="edge">
<title>n43&#45;&gt;n44</title>
<path fill="none" stroke="#000000" d="M1657.7912,-647.8314C1657.7912,-640.131 1657.7912,-630.9743 1657.7912,-622.4166"/>
<polygon fill="#000000" stroke="#000000" points="1661.2913,-622.4132 1657.7912,-612.4133 1654.2913,-622.4133 1661.2913,-622.4132"/>
</g>
<!-- n45 -->
<g id="node45" class="node">
<title>n45</title>
<ellipse fill="none" stroke="#000000" cx="1845.7912" cy="-594" rx="70.3881" ry="18"/>
<text text-anchor="middle" x="1845.7912" y="-590.3" font-family="Times,serif" font-size="14.00" fill="#000000">Expression:*</text>
</g>
<!-- n43&#45;&gt;n45 -->
<g id="edge50" class="edge">
<title>n43&#45;&gt;n45</title>
<path fill="none" stroke="#000000" d="M1697.2022,-650.9064C1726.2801,-639.7702 1766.0233,-624.5494 1797.0906,-612.6513"/>
<polygon fill="#000000" stroke="#000000" points="1798.3454,-615.9187 1806.4322,-609.0737 1795.8418,-609.3817 1798.3454,-615.9187"/>
</g>
<!-- n46 -->
<g id="node46" class="node">
<title>n46</title>
<ellipse fill="none" stroke="#000000" cx="1764.7912" cy="-522" rx="62.2891" ry="18"/>
<text text-anchor="middle" x="1764.7912" y="-518.3" font-family="Times,serif" font-size="14.00" fill="#000000">Expression</text>
</g>
<!-- n45&#45;&gt;n46 -->
<g id="edge37" class="edge">
<title>n45&#45;&gt;n46</title>
<path fill="none" stroke="#000000" d="M1826.1834,-576.5708C1815.836,-567.3732 1802.9832,-555.9484 1791.7156,-545.9328"/>
<polygon fill="#000000" stroke="#000000" points="1794.0179,-543.2964 1784.2185,-539.2687 1789.3673,-548.5283 1794.0179,-543.2964"/>
</g>
<!-- n49 -->
<g id="node49" class="node">
<title>n49</title>
<ellipse fill="none" stroke="#000000" cx="1926.7912" cy="-522" rx="62.2891" ry="18"/>
<text text-anchor="middle" x="1926.7912" y="-518.3" font-family="Times,serif" font-size="14.00" fill="#000000">Expression</text>
</g>
<!-- n45&#45;&gt;n49 -->
<g id="edge49" class="edge">
<title>n45&#45;&gt;n49</title>
<path fill="none" stroke="#000000" d="M1865.3991,-576.5708C1875.7464,-567.3732 1888.5993,-555.9484 1899.8669,-545.9328"/>
<polygon fill="#000000" stroke="#000000" points="1902.2151,-548.5283 1907.364,-539.2687 1897.5646,-543.2964 1902.2151,-548.5283"/>
</g>
<!-- n47 -->
<g id="node47" class="node">
<title>n47</title>
<ellipse fill="none" stroke="#000000" cx="1727.7912" cy="-450" rx="100.1823" ry="18"/>
<text text-anchor="middle" x="1727.7912" y="-446.3" font-family="Times,serif" font-size="14.00" fill="#000000">PrimaryExpression</text>
</g>
<!-- n46&#45;&gt;n47 -->
<g id="edge36" class="edge">
<title>n46&#45;&gt;n47</title>
<path fill="none" stroke="#000000" d="M1755.4546,-503.8314C1751.367,-495.8771 1746.4809,-486.369 1741.9603,-477.5723"/>
<polygon fill="#000000" stroke="#000000" points="1744.9374,-475.7078 1737.2536,-468.4133 1738.7113,-478.9074 1744.9374,-475.7078"/>
</g>
<!-- n48 -->
<g id="node48" class="node">
<title>n48</title>
<ellipse fill="none" stroke="#000000" cx="1727.7912" cy="-378" rx="77.9862" ry="18"/>
<text text-anchor="middle" x="1727.7912" y="-374.3" font-family="Times,serif" font-size="14.00" fill="#000000">Identifier:num</text>
</g>
<!-- n47&#45;&gt;n48 -->
<g id="edge35" class="edge">
<title>n47&#45;&gt;n48</title>
<path fill="none" stroke="#000000" d="M1727.7912,-431.8314C1727.7912,-424.131 1727.7912,-414.9743 1727.7912,-406.4166"/>
<polygon fill="#000000" stroke="#000000" points="1731.2913,-406.4132 1727.7912,-396.4133 1724.2913,-406.4133 1731.2913,-406.4132"/>
</g>
<!-- n50 -->
<g id="node50" class="node">
<title>n50</title>
<ellipse fill="none" stroke="#000000" cx="1945.7912" cy="-450" rx="100.1823" ry="18"/>
<text text-anchor="middle" x="1945.7912" y="-446.3" font-family="Times,serif" font-size="14.00" fill="#000000">PrimaryExpression</text>
</g>
<!-- n49&#45;&gt;n50 -->
<g id="edge48" class="edge">
<title>n49&#45;&gt;n50</title>
<path fill="none" stroke="#000000" d="M1931.5857,-503.8314C1933.6401,-496.0463 1936.0873,-486.7729 1938.3668,-478.1347"/>
<polygon fill="#000000" stroke="#000000" points="1941.7647,-478.9753 1940.9322,-468.4133 1934.9964,-477.1892 1941.7647,-478.9753"/>
</g>
<!-- n51 -->
<g id="node51" class="node">
<title>n51</title>
<ellipse fill="none" stroke="#000000" cx="1945.7912" cy="-378" rx="62.2891" ry="18"/>
<text text-anchor="middle" x="1945.7912" y="-374.3" font-family="Times,serif" font-size="14.00" fill="#000000">Expression</text>
</g>
<!-- n50&#45;&gt;n51 -->
<g id="edge47" class="edge">
<title>n50&#45;&gt;n51</title>
<path fill="none" stroke="#000000" d="M1945.7912,-431.8314C1945.7912,-424.131 1945.7912,-414.9743 1945.7912,-406.4166"/>
<polygon fill="#000000" stroke="#000000" points="1949.2913,-406.4132 1945.7912,-396.4133 1942.2913,-406.4133 1949.2913,-406.4132"/>
</g>
<!-- n52 -->
<g id="node52" class="node">
<title>n52</title>
<ellipse fill="none" stroke="#000000" cx="1780.7912" cy="-306" rx="30.5947" ry="18"/>
<text text-anchor="middle" x="1780.7912" y="-302.3" font-family="Times,serif" font-size="14.00" fill="#000000">This</text>
</g>
<!-- n51&#45;&gt;n52 -->
<g id="edge38" class="edge">
<title>n51&#45;&gt;n52</title>
<path fill="none" stroke="#000000" d="M1910.7074,-363.0111C1885.6185,-352.2515 1851.0734,-337.3535 1820.7912,-324 1818.7532,-323.1013 1816.6586,-322.1729 1814.5471,-321.2335"/>
<polygon fill="#000000" stroke="#000000" points="1815.8615,-317.9873 1805.3038,-317.1008 1813.0043,-324.3776 1815.8615,-317.9873"/>
</g>
<!-- n53 -->
<g id="node53" class="node">
<title>n53</title>
<ellipse fill="none" stroke="#000000" cx="1945.7912" cy="-306" rx="116.1796" ry="18"/>
<text text-anchor="middle" x="1945.7912" y="-302.3" font-family="Times,serif" font-size="14.00" fill="#000000">Identifier:ComputeFac</text>
</g>
<!-- n51&#45;&gt;n53 -->
<g id="edge39" class="edge">
<title>n51&#45;&gt;n53</title>
<path fill="none" stroke="#000000" d="M1945.7912,-359.8314C1945.7912,-352.131 1945.7912,-342.9743 1945.7912,-334.4166"/>
<polygon fill="#000000" stroke="#000000" points="1949.2913,-334.4132 1945.7912,-324.4133 1942.2913,-334.4133 1949.2913,-334.4132"/>
</g>
<!-- n54 -->
<g id="node54" class="node">
<title>n54</title>
<ellipse fill="none" stroke="#000000" cx="2160.7912" cy="-306" rx="80.6858" ry="18"/>
<text text-anchor="middle" x="2160.7912" y="-302.3" font-family="Times,serif" font-size="14.00" fill="#000000">ExpressionList</text>
</g>
<!-- n51&#45;&gt;n54 -->
<g id="edge46" class="edge">
<title>n51&#45;&gt;n54</title>
<path fill="none" stroke="#000000" d="M1986.7372,-364.2879C2020.6253,-352.9393 2069.061,-336.7189 2106.2373,-324.2692"/>
<polygon fill="#000000" stroke="#000000" points="2107.5445,-327.5226 2115.9155,-321.0282 2105.3216,-320.8849 2107.5445,-327.5226"/>
</g>
<!-- n55 -->
<g id="node55" class="node">
<title>n55</title>
<ellipse fill="none" stroke="#000000" cx="2160.7912" cy="-234" rx="68.4888" ry="18"/>
<text text-anchor="middle" x="2160.7912" y="-230.3" font-family="Times,serif" font-size="14.00" fill="#000000">Expression:&#45;</text>
</g>
<!-- n54&#45;&gt;n55 -->
<g id="edge45" class="edge">
<title>n54&#45;&gt;n55</title>
<path fill="none" stroke="#000000" d="M2160.7912,-287.8314C2160.7912,-280.131 2160.7912,-270.9743 2160.7912,-262.4166"/>
<polygon fill="#000000" stroke="#000000" points="2164.2913,-262.4132 2160.7912,-252.4133 2157.2913,-262.4133 2164.2913,-262.4132"/>
</g>
<!-- n56 -->
<g id="node56" class="node">
<title>n56</title>
<ellipse fill="none" stroke="#000000" cx="2089.7912" cy="-162" rx="62.2891" ry="18"/>
<text text-anchor="middle" x="2089.7912" y="-158.3" font-family="Times,serif" font-size="14.00" fill="#000000">Expression</text>
</g>
<!-- n55&#45;&gt;n56 -->
<g id="edge42" class="edge">
<title>n55&#45;&gt;n56</title>
<path fill="none" stroke="#000000" d="M2143.6041,-216.5708C2134.774,-207.6164 2123.8624,-196.551 2114.1779,-186.7302"/>
<polygon fill="#000000" stroke="#000000" points="2116.5798,-184.1811 2107.0662,-179.5182 2111.5955,-189.0961 2116.5798,-184.1811"/>
</g>
<!-- n59 -->
<g id="node59" class="node">
<title>n59</title>
<ellipse fill="none" stroke="#000000" cx="2240.7912" cy="-162" rx="62.2891" ry="18"/>
<text text-anchor="middle" x="2240.7912" y="-158.3" font-family="Times,serif" font-size="14.00" fill="#000000">Expression</text>
</g>
<!-- n55&#45;&gt;n59 -->
<g id="edge44" class="edge">
<title>n55&#45;&gt;n59</title>
<path fill="none" stroke="#000000" d="M2180.157,-216.5708C2190.2784,-207.4616 2202.8269,-196.1679 2213.8778,-186.2221"/>
<polygon fill="#000000" stroke="#000000" points="2216.5122,-188.5599 2221.6038,-179.2687 2211.8295,-183.3568 2216.5122,-188.5599"/>
</g>
<!-- n57 -->
<g id="node57" class="node">
<title>n57</title>
<ellipse fill="none" stroke="#000000" cx="2073.7912" cy="-90" rx="100.1823" ry="18"/>
<text text-anchor="middle" x="2073.7912" y="-86.3" font-family="Times,serif" font-size="14.00" fill="#000000">PrimaryExpression</text>
</g>
<!-- n56&#45;&gt;n57 -->
<g id="edge41" class="edge">
<title>n56&#45;&gt;n57</title>
<path fill="none" stroke="#000000" d="M2085.7538,-143.8314C2084.0426,-136.131 2082.0078,-126.9743 2080.106,-118.4166"/>
<polygon fill="#000000" stroke="#000000" points="2083.4691,-117.4159 2077.8831,-108.4133 2076.6358,-118.9344 2083.4691,-117.4159"/>
</g>
<!-- n58 -->
<g id="node58" class="node">
<title>n58</title>
<ellipse fill="none" stroke="#000000" cx="2073.7912" cy="-18" rx="77.9862" ry="18"/>
<text text-anchor="middle" x="2073.7912" y="-14.3" font-family="Times,serif" font-size="14.00" fill="#000000">Identifier:num</text>
</g>
<!-- n57&#45;&gt;n58 -->
<g id="edge40" class="edge">
<title>n57&#45;&gt;n58</title>
<path fill="none" stroke="#000000" d="M2073.7912,-71.8314C2073.7912,-64.131 2073.7912,-54.9743 2073.7912,-46.4166"/>
<polygon fill="#000000" stroke="#000000" points="2077.2913,-46.4132 2073.7912,-36.4133 2070.2913,-46.4133 2077.2913,-46.4132"/>
</g>
<!-- n60 -->
<g id="node60" class="node">
<title>n60</title>
<ellipse fill="none" stroke="#000000" cx="2249.7912" cy="-90" rx="57.6901" ry="18"/>
<text text-anchor="middle" x="2249.7912" y="-86.3" font-family="Times,serif" font-size="14.00" fill="#000000">Number:1</text>
</g>
<!-- n59&#45;&gt;n60 -->
<g id="edge43" class="edge">
<title>n59&#45;&gt;n60</title>
<path fill="none" stroke="#000000" d="M2243.0623,-143.8314C2244.0249,-136.131 2245.1694,-126.9743 2246.2392,-118.4166"/>
<polygon fill="#000000" stroke="#000000" points="2249.7221,-118.7702 2247.4896,-108.4133 2242.7762,-117.9019 2249.7221,-118.7702"/>
</g>
<!-- n62 -->
<g id="node62" class="node">
<title>n62</title>
<ellipse fill="none" stroke="#000000" cx="1822.7912" cy="-882" rx="62.2891" ry="18"/>
<text text-anchor="middle" x="1822.7912" y="-878.3" font-family="Times,serif" font-size="14.00" fill="#000000">Expression</text>
</g>
<!-- n61&#45;&gt;n62 -->
<g id="edge58" class="edge">
<title>n61&#45;&gt;n62</title>
<path fill="none" stroke="#000000" d="M1723.0868,-939.4297C1741.0274,-929.096 1765.3984,-915.0583 1785.5544,-903.4484"/>
<polygon fill="#000000" stroke="#000000" points="1787.5621,-906.3311 1794.4805,-898.307 1784.0682,-900.2654 1787.5621,-906.3311"/>
</g>
<!-- n63 -->
<g id="node63" class="node">
<title>n63</title>
<ellipse fill="none" stroke="#000000" cx="1827.7912" cy="-810" rx="100.1823" ry="18"/>
<text text-anchor="middle" x="1827.7912" y="-806.3" font-family="Times,serif" font-size="14.00" fill="#000000">PrimaryExpression</text>
</g>
<!-- n62&#45;&gt;n63 -->
<g id="edge57" class="edge">
<title>n62&#45;&gt;n63</title>
<path fill="none" stroke="#000000" d="M1824.0529,-863.8314C1824.5877,-856.131 1825.2236,-846.9743 1825.8179,-838.4166"/>
<polygon fill="#000000" stroke="#000000" points="1829.3113,-838.6317 1826.5125,-828.4133 1822.3281,-838.1467 1829.3113,-838.6317"/>
</g>
<!-- n64 -->
<g id="node64" class="node">
<title>n64</title>
<ellipse fill="none" stroke="#000000" cx="1829.7912" cy="-738" rx="99.3824" ry="18"/>
<text text-anchor="middle" x="1829.7912" y="-734.3" font-family="Times,serif" font-size="14.00" fill="#000000">Identifier:num_aux</text>
</g>
<!-- n63&#45;&gt;n64 -->
<g id="edge56" class="edge">
<title>n63&#45;&gt;n64</title>
<path fill="none" stroke="#000000" d="M1828.2959,-791.8314C1828.5098,-784.131 1828.7642,-774.9743 1829.0019,-766.4166"/>
<polygon fill="#000000" stroke="#000000" points="1832.5006,-766.5066 1829.2798,-756.4133 1825.5033,-766.3122 1832.5006,-766.5066"/>
</g>
</g>
</svg>
