<?xml version="1.0" encoding="UTF-8" standalone="no"?>
<!DOCTYPE svg PUBLIC "-//W3C//DTD SVG 1.1//EN"
 "http://www.w3.org/Graphics/SVG/1.1/DTD/svg11.dtd">
<!-- Generated by graphviz version 2.43.0 (0)
 -->
<!-- Title: %3 Pages: 1 -->
<svg width="8306pt" height="743pt"
 viewBox="0.00 0.00 8306.00 743.00" xmlns="http://www.w3.org/2000/svg" xmlns:xlink="http://www.w3.org/1999/xlink">
<g id="graph0" class="graph" transform="scale(1 1) rotate(0) translate(4 739)">
<title>%3</title>
<polygon fill="white" stroke="transparent" points="-4,4 -4,-739 8302,-739 8302,4 -4,4"/>
<text text-anchor="middle" x="4149" y="-719.8" font-family="Times,serif" font-size="14.00">Symbol Table</text>
<!-- n0 -->
<g id="node1" class="node">
<title>n0</title>
<polygon fill="none" stroke="black" points="738,-712 378,-712 378,-634 738,-634 738,-712"/>
<text text-anchor="start" x="529.5" y="-697.8" font-family="Arial" font-weight="bold" text-decoration="underline" font-size="14.00">Program</text>
<text text-anchor="start" x="456.5" y="-669.8" font-family="Arial" font-size="14.00">name: BT; record: Class; type: BT</text>
<text text-anchor="start" x="433" y="-655.8" font-family="Arial" font-size="14.00">name: BinaryTree; record: Class; type: int</text>
<text text-anchor="start" x="445" y="-641.8" font-family="Arial" font-size="14.00">name: Tree; record: Class; type: Tree</text>
</g>
<!-- n1 -->
<g id="node2" class="node">
<title>n1</title>
<polygon fill="none" stroke="black" points="360,-423 0,-423 0,-359 360,-359 360,-423"/>
<text text-anchor="start" x="122.5" y="-408.8" font-family="Arial" font-weight="bold" text-decoration="underline" font-size="14.00">Class: BinaryTree</text>
<text text-anchor="start" x="61.5" y="-380.8" font-family="Arial" font-size="14.00">name: main; record: Method; type: void</text>
<text text-anchor="start" x="44" y="-366.8" font-family="Arial" font-size="14.00">name: this; record: Variable; type: BinaryTree</text>
</g>
<!-- n0&#45;&#45;n1 -->
<g id="edge1" class="edge">
<title>n0&#45;&#45;n1</title>
<path fill="none" stroke="black" d="M436.39,-633.87C413.03,-623.96 389.49,-612.04 369,-598 297.33,-548.89 233.49,-467.74 201.56,-423.37"/>
</g>
<!-- n3 -->
<g id="node4" class="node">
<title>n3</title>
<polygon fill="none" stroke="black" points="738,-423 378,-423 378,-359 738,-359 738,-423"/>
<text text-anchor="start" x="526.5" y="-408.8" font-family="Arial" font-weight="bold" text-decoration="underline" font-size="14.00">Class: BT</text>
<text text-anchor="start" x="445.5" y="-380.8" font-family="Arial" font-size="14.00">name: Start; record: Method; type: int</text>
<text text-anchor="start" x="446.5" y="-366.8" font-family="Arial" font-size="14.00">name: this; record: Variable; type: BT</text>
</g>
<!-- n0&#45;&#45;n3 -->
<g id="edge3" class="edge">
<title>n0&#45;&#45;n3</title>
<path fill="none" stroke="black" d="M558,-633.95C558,-578.02 558,-474.7 558,-423.07"/>
</g>
<!-- n5 -->
<g id="node6" class="node">
<title>n5</title>
<polygon fill="none" stroke="black" points="4518,-598 4158,-598 4158,-184 4518,-184 4518,-598"/>
<text text-anchor="start" x="4301.5" y="-583.8" font-family="Arial" font-weight="bold" text-decoration="underline" font-size="14.00">Class: Tree</text>
<text text-anchor="start" x="4195" y="-555.8" font-family="Arial" font-size="14.00">name: Compare; record: Method; type: boolean</text>
<text text-anchor="start" x="4203.5" y="-541.8" font-family="Arial" font-size="14.00">name: Delete; record: Method; type: boolean</text>
<text text-anchor="start" x="4184.5" y="-527.8" font-family="Arial" font-size="14.00">name: GetHas_Left; record: Method; type: boolean</text>
<text text-anchor="start" x="4180" y="-513.8" font-family="Arial" font-size="14.00">name: GetHas_Right; record: Method; type: boolean</text>
<text text-anchor="start" x="4217" y="-499.8" font-family="Arial" font-size="14.00">name: GetKey; record: Method; type: int</text>
<text text-anchor="start" x="4210.5" y="-485.8" font-family="Arial" font-size="14.00">name: GetLeft; record: Method; type: Tree</text>
<text text-anchor="start" x="4206" y="-471.8" font-family="Arial" font-size="14.00">name: GetRight; record: Method; type: Tree</text>
<text text-anchor="start" x="4214" y="-457.8" font-family="Arial" font-size="14.00">name: Init; record: Method; type: boolean</text>
<text text-anchor="start" x="4206" y="-443.8" font-family="Arial" font-size="14.00">name: Insert; record: Method; type: boolean</text>
<text text-anchor="start" x="4209" y="-429.8" font-family="Arial" font-size="14.00">name: Print; record: Method; type: boolean</text>
<text text-anchor="start" x="4197" y="-415.8" font-family="Arial" font-size="14.00">name: RecPrint; record: Method; type: boolean</text>
<text text-anchor="start" x="4197.5" y="-401.8" font-family="Arial" font-size="14.00">name: Remove; record: Method; type: boolean</text>
<text text-anchor="start" x="4186" y="-387.8" font-family="Arial" font-size="14.00">name: RemoveLeft; record: Method; type: boolean</text>
<text text-anchor="start" x="4181.5" y="-373.8" font-family="Arial" font-size="14.00">name: RemoveRight; record: Method; type: boolean</text>
<text text-anchor="start" x="4218.5" y="-359.8" font-family="Arial" font-size="14.00">name: Search; record: Method; type: int</text>
<text text-anchor="start" x="4186" y="-345.8" font-family="Arial" font-size="14.00">name: SetHas_Left; record: Method; type: boolean</text>
<text text-anchor="start" x="4181.5" y="-331.8" font-family="Arial" font-size="14.00">name: SetHas_Right; record: Method; type: boolean</text>
<text text-anchor="start" x="4201" y="-317.8" font-family="Arial" font-size="14.00">name: SetKey; record: Method; type: boolean</text>
<text text-anchor="start" x="4201.5" y="-303.8" font-family="Arial" font-size="14.00">name: SetLeft; record: Method; type: boolean</text>
<text text-anchor="start" x="4197" y="-289.8" font-family="Arial" font-size="14.00">name: SetRight; record: Method; type: boolean</text>
<text text-anchor="start" x="4198" y="-275.8" font-family="Arial" font-size="14.00">name: has_left; record: Variable; type: boolean</text>
<text text-anchor="start" x="4193.5" y="-261.8" font-family="Arial" font-size="14.00">name: has_right; record: Variable; type: boolean</text>
<text text-anchor="start" x="4228" y="-247.8" font-family="Arial" font-size="14.00">name: key; record: Variable; type: int</text>
<text text-anchor="start" x="4222.5" y="-233.8" font-family="Arial" font-size="14.00">name: left; record: Variable; type: Tree</text>
<text text-anchor="start" x="4208" y="-219.8" font-family="Arial" font-size="14.00">name: my_null; record: Variable; type: Tree</text>
<text text-anchor="start" x="4218.5" y="-205.8" font-family="Arial" font-size="14.00">name: right; record: Variable; type: Tree</text>
<text text-anchor="start" x="4221" y="-191.8" font-family="Arial" font-size="14.00">name: this; record: Variable; type: Tree</text>
</g>
<!-- n0&#45;&#45;n5 -->
<g id="edge5" class="edge">
<title>n0&#45;&#45;n5</title>
<path fill="none" stroke="black" d="M738.09,-658.66C1375.54,-611.44 3520.69,-452.54 4158,-405.33"/>
</g>
<!-- n2 -->
<g id="node3" class="node">
<title>n2</title>
<polygon fill="none" stroke="black" points="360,-99 0,-99 0,-49 360,-49 360,-99"/>
<text text-anchor="start" x="135" y="-84.8" font-family="Arial" font-weight="bold" text-decoration="underline" font-size="14.00">Method: main</text>
<text text-anchor="start" x="55" y="-56.8" font-family="Arial" font-size="14.00">name: a; record: Parameter; type: String[]</text>
</g>
<!-- n1&#45;&#45;n2 -->
<g id="edge2" class="edge">
<title>n1&#45;&#45;n2</title>
<path fill="none" stroke="black" d="M180,-358.93C180,-296.23 180,-155.7 180,-99.2"/>
</g>
<!-- n4 -->
<g id="node5" class="node">
<title>n4</title>
<polygon fill="none" stroke="black" points="738,-113 378,-113 378,-35 738,-35 738,-113"/>
<text text-anchor="start" x="514" y="-98.8" font-family="Arial" font-weight="bold" text-decoration="underline" font-size="14.00">Method: Start</text>
<text text-anchor="start" x="432" y="-70.8" font-family="Arial" font-size="14.00">name: ntb; record: Variable; type: boolean</text>
<text text-anchor="start" x="451" y="-56.8" font-family="Arial" font-size="14.00">name: nti; record: Variable; type: int</text>
<text text-anchor="start" x="440" y="-42.8" font-family="Arial" font-size="14.00">name: root; record: Variable; type: Tree</text>
</g>
<!-- n3&#45;&#45;n4 -->
<g id="edge4" class="edge">
<title>n3&#45;&#45;n4</title>
<path fill="none" stroke="black" d="M558,-358.93C558,-300.88 558,-176.14 558,-113.11"/>
</g>
<!-- n6 -->
<g id="node7" class="node">
<title>n6</title>
<polygon fill="none" stroke="black" points="1116,-99 756,-99 756,-49 1116,-49 1116,-99"/>
<text text-anchor="start" x="897" y="-84.8" font-family="Arial" font-weight="bold" text-decoration="underline" font-size="14.00">Method: Init</text>
<text text-anchor="start" x="811" y="-56.8" font-family="Arial" font-size="14.00">name: v_key; record: Parameter; type: int</text>
</g>
<!-- n5&#45;&#45;n6 -->
<g id="edge6" class="edge">
<title>n5&#45;&#45;n6</title>
<path fill="none" stroke="black" d="M4157.95,-383.38C3569.92,-360.68 1710.16,-280.01 1125,-148 1076.45,-137.05 1023.83,-115.9 986.47,-99.17"/>
</g>
<!-- n7 -->
<g id="node8" class="node">
<title>n7</title>
<polygon fill="none" stroke="black" points="1494,-99 1134,-99 1134,-49 1494,-49 1494,-99"/>
<text text-anchor="start" x="1257.5" y="-84.8" font-family="Arial" font-weight="bold" text-decoration="underline" font-size="14.00">Method: SetRight</text>
<text text-anchor="start" x="1194" y="-56.8" font-family="Arial" font-size="14.00">name: rn; record: Parameter; type: Tree</text>
</g>
<!-- n5&#45;&#45;n7 -->
<g id="edge7" class="edge">
<title>n5&#45;&#45;n7</title>
<path fill="none" stroke="black" d="M4157.89,-381.3C3616.91,-354.13 2012.3,-265.57 1503,-148 1454.5,-136.8 1401.88,-115.68 1364.5,-99.03"/>
</g>
<!-- n8 -->
<g id="node9" class="node">
<title>n8</title>
<polygon fill="none" stroke="black" points="1872,-99 1512,-99 1512,-49 1872,-49 1872,-99"/>
<text text-anchor="start" x="1640.5" y="-84.8" font-family="Arial" font-weight="bold" text-decoration="underline" font-size="14.00">Method: SetLeft</text>
<text text-anchor="start" x="1573" y="-56.8" font-family="Arial" font-size="14.00">name: ln; record: Parameter; type: Tree</text>
</g>
<!-- n5&#45;&#45;n8 -->
<g id="edge8" class="edge">
<title>n5&#45;&#45;n8</title>
<path fill="none" stroke="black" d="M4157.99,-388.81C3748.09,-382.53 2716.05,-346.51 1881,-148 1832.75,-136.53 1780.31,-115.55 1742.94,-99.01"/>
</g>
<!-- n9 -->
<g id="node10" class="node">
<title>n9</title>
<polygon fill="none" stroke="black" points="2250,-92 1890,-92 1890,-56 2250,-56 2250,-92"/>
<text text-anchor="start" x="2012.5" y="-77.8" font-family="Arial" font-weight="bold" text-decoration="underline" font-size="14.00">Method: GetRight</text>
</g>
<!-- n5&#45;&#45;n9 -->
<g id="edge9" class="edge">
<title>n5&#45;&#45;n9</title>
<path fill="none" stroke="black" d="M4157.65,-384.29C3793.63,-369.45 2947.11,-318.02 2259,-148 2204.02,-134.42 2143.44,-109.04 2106.05,-92.09"/>
</g>
<!-- n10 -->
<g id="node11" class="node">
<title>n10</title>
<polygon fill="none" stroke="black" points="2628,-92 2268,-92 2268,-56 2628,-56 2628,-92"/>
<text text-anchor="start" x="2395" y="-77.8" font-family="Arial" font-weight="bold" text-decoration="underline" font-size="14.00">Method: GetLeft</text>
</g>
<!-- n5&#45;&#45;n10 -->
<g id="edge10" class="edge">
<title>n5&#45;&#45;n10</title>
<path fill="none" stroke="black" d="M4157.82,-377.88C3844.41,-353.82 3180.37,-289.62 2637,-148 2582.54,-133.81 2522.33,-108.84 2484.83,-92.11"/>
</g>
<!-- n11 -->
<g id="node12" class="node">
<title>n11</title>
<polygon fill="none" stroke="black" points="3006,-92 2646,-92 2646,-56 3006,-56 3006,-92"/>
<text text-anchor="start" x="2773" y="-77.8" font-family="Arial" font-weight="bold" text-decoration="underline" font-size="14.00">Method: GetKey</text>
</g>
<!-- n5&#45;&#45;n11 -->
<g id="edge11" class="edge">
<title>n5&#45;&#45;n11</title>
<path fill="none" stroke="black" d="M4157.96,-367.98C3901.11,-334.12 3416.16,-261.08 3015,-148 2961.34,-132.87 2901.67,-108.49 2864.01,-92.12"/>
</g>
<!-- n12 -->
<g id="node13" class="node">
<title>n12</title>
<polygon fill="none" stroke="black" points="3384,-99 3024,-99 3024,-49 3384,-49 3384,-99"/>
<text text-anchor="start" x="3152.5" y="-84.8" font-family="Arial" font-weight="bold" text-decoration="underline" font-size="14.00">Method: SetKey</text>
<text text-anchor="start" x="3079" y="-56.8" font-family="Arial" font-size="14.00">name: v_key; record: Parameter; type: int</text>
</g>
<!-- n5&#45;&#45;n12 -->
<g id="edge12" class="edge">
<title>n5&#45;&#45;n12</title>
<path fill="none" stroke="black" d="M4157.68,-350.5C3966.19,-307 3655.52,-231.99 3393,-148 3348.11,-133.64 3298.43,-114.31 3261.27,-99.15"/>
</g>
<!-- n13 -->
<g id="node14" class="node">
<title>n13</title>
<polygon fill="none" stroke="black" points="3762,-92 3402,-92 3402,-56 3762,-56 3762,-92"/>
<text text-anchor="start" x="3508" y="-77.8" font-family="Arial" font-weight="bold" text-decoration="underline" font-size="14.00">Method: GetHas_Right</text>
</g>
<!-- n5&#45;&#45;n13 -->
<g id="edge13" class="edge">
<title>n5&#45;&#45;n13</title>
<path fill="none" stroke="black" d="M4157.88,-314.95C3980.56,-241.07 3722.35,-133.48 3623.03,-92.1"/>
</g>
<!-- n14 -->
<g id="node15" class="node">
<title>n14</title>
<polygon fill="none" stroke="black" points="4140,-92 3780,-92 3780,-56 4140,-56 4140,-92"/>
<text text-anchor="start" x="3891" y="-77.8" font-family="Arial" font-weight="bold" text-decoration="underline" font-size="14.00">Method: GetHas_Left</text>
</g>
<!-- n5&#45;&#45;n14 -->
<g id="edge14" class="edge">
<title>n5&#45;&#45;n14</title>
<path fill="none" stroke="black" d="M4157.86,-239.88C4087.12,-180.93 4014.73,-120.6 3980.42,-92.02"/>
</g>
<!-- n15 -->
<g id="node16" class="node">
<title>n15</title>
<polygon fill="none" stroke="black" points="4518,-99 4158,-99 4158,-49 4518,-49 4518,-99"/>
<text text-anchor="start" x="4270" y="-84.8" font-family="Arial" font-weight="bold" text-decoration="underline" font-size="14.00">Method: SetHas_Left</text>
<text text-anchor="start" x="4205.5" y="-56.8" font-family="Arial" font-size="14.00">name: val; record: Parameter; type: boolean</text>
</g>
<!-- n5&#45;&#45;n15 -->
<g id="edge15" class="edge">
<title>n5&#45;&#45;n15</title>
<path fill="none" stroke="black" d="M4338,-183.85C4338,-149.87 4338,-119.25 4338,-99.2"/>
</g>
<!-- n16 -->
<g id="node17" class="node">
<title>n16</title>
<polygon fill="none" stroke="black" points="4896,-99 4536,-99 4536,-49 4896,-49 4896,-99"/>
<text text-anchor="start" x="4643.5" y="-84.8" font-family="Arial" font-weight="bold" text-decoration="underline" font-size="14.00">Method: SetHas_Right</text>
<text text-anchor="start" x="4583.5" y="-56.8" font-family="Arial" font-size="14.00">name: val; record: Parameter; type: boolean</text>
</g>
<!-- n5&#45;&#45;n16 -->
<g id="edge16" class="edge">
<title>n5&#45;&#45;n16</title>
<path fill="none" stroke="black" d="M4518.14,-239.88C4583.37,-185.53 4650,-130 4686.88,-99.27"/>
</g>
<!-- n17 -->
<g id="node18" class="node">
<title>n17</title>
<polygon fill="none" stroke="black" points="5274,-120 4914,-120 4914,-28 5274,-28 5274,-120"/>
<text text-anchor="start" x="5035.5" y="-105.8" font-family="Arial" font-weight="bold" text-decoration="underline" font-size="14.00">Method: Compare</text>
<text text-anchor="start" x="4968" y="-77.8" font-family="Arial" font-size="14.00">name: ntb; record: Variable; type: boolean</text>
<text text-anchor="start" x="4987" y="-63.8" font-family="Arial" font-size="14.00">name: nti; record: Variable; type: int</text>
<text text-anchor="start" x="4969.5" y="-49.8" font-family="Arial" font-size="14.00">name: num1; record: Parameter; type: int</text>
<text text-anchor="start" x="4969.5" y="-35.8" font-family="Arial" font-size="14.00">name: num2; record: Parameter; type: int</text>
</g>
<!-- n5&#45;&#45;n17 -->
<g id="edge17" class="edge">
<title>n5&#45;&#45;n17</title>
<path fill="none" stroke="black" d="M4518.12,-314.95C4663.77,-254.26 4864.01,-170.83 4985.93,-120.03"/>
</g>
<!-- n18 -->
<g id="node19" class="node">
<title>n18</title>
<polygon fill="none" stroke="black" points="5652,-134 5292,-134 5292,-14 5652,-14 5652,-134"/>
<text text-anchor="start" x="5425" y="-119.8" font-family="Arial" font-weight="bold" text-decoration="underline" font-size="14.00">Method: Insert</text>
<text text-anchor="start" x="5342.5" y="-91.8" font-family="Arial" font-size="14.00">name: cont; record: Variable; type: boolean</text>
<text text-anchor="start" x="5326" y="-77.8" font-family="Arial" font-size="14.00">name: current_node; record: Variable; type: Tree</text>
<text text-anchor="start" x="5347" y="-63.8" font-family="Arial" font-size="14.00">name: key_aux; record: Variable; type: int</text>
<text text-anchor="start" x="5334.5" y="-49.8" font-family="Arial" font-size="14.00">name: new_node; record: Variable; type: Tree</text>
<text text-anchor="start" x="5346" y="-35.8" font-family="Arial" font-size="14.00">name: ntb; record: Variable; type: boolean</text>
<text text-anchor="start" x="5347" y="-21.8" font-family="Arial" font-size="14.00">name: v_key; record: Parameter; type: int</text>
</g>
<!-- n5&#45;&#45;n18 -->
<g id="edge18" class="edge">
<title>n5&#45;&#45;n18</title>
<path fill="none" stroke="black" d="M4518.32,-350.5C4709.81,-307 5020.48,-231.99 5283,-148 5296.4,-143.71 5310.23,-138.98 5324.02,-134.05"/>
</g>
<!-- n19 -->
<g id="node20" class="node">
<title>n19</title>
<polygon fill="none" stroke="black" points="6030,-148 5670,-148 5670,0 6030,0 6030,-148"/>
<text text-anchor="start" x="5801" y="-133.8" font-family="Arial" font-weight="bold" text-decoration="underline" font-size="14.00">Method: Delete</text>
<text text-anchor="start" x="5720.5" y="-105.8" font-family="Arial" font-size="14.00">name: cont; record: Variable; type: boolean</text>
<text text-anchor="start" x="5704" y="-91.8" font-family="Arial" font-size="14.00">name: current_node; record: Variable; type: Tree</text>
<text text-anchor="start" x="5716.5" y="-77.8" font-family="Arial" font-size="14.00">name: found; record: Variable; type: boolean</text>
<text text-anchor="start" x="5713" y="-63.8" font-family="Arial" font-size="14.00">name: is_root; record: Variable; type: boolean</text>
<text text-anchor="start" x="5725" y="-49.8" font-family="Arial" font-size="14.00">name: key_aux; record: Variable; type: int</text>
<text text-anchor="start" x="5724" y="-35.8" font-family="Arial" font-size="14.00">name: ntb; record: Variable; type: boolean</text>
<text text-anchor="start" x="5705.5" y="-21.8" font-family="Arial" font-size="14.00">name: parent_node; record: Variable; type: Tree</text>
<text text-anchor="start" x="5725" y="-7.8" font-family="Arial" font-size="14.00">name: v_key; record: Parameter; type: int</text>
</g>
<!-- n5&#45;&#45;n19 -->
<g id="edge19" class="edge">
<title>n5&#45;&#45;n19</title>
<path fill="none" stroke="black" d="M4518.04,-367.98C4774.89,-334.12 5259.84,-261.08 5661,-148 5663.96,-147.16 5666.94,-146.3 5669.94,-145.41"/>
</g>
<!-- n20 -->
<g id="node21" class="node">
<title>n20</title>
<polygon fill="none" stroke="black" points="6408,-127 6048,-127 6048,-21 6408,-21 6408,-127"/>
<text text-anchor="start" x="6172.5" y="-112.8" font-family="Arial" font-weight="bold" text-decoration="underline" font-size="14.00">Method: Remove</text>
<text text-anchor="start" x="6103" y="-84.8" font-family="Arial" font-size="14.00">name: auxkey1; record: Variable; type: int</text>
<text text-anchor="start" x="6103" y="-70.8" font-family="Arial" font-size="14.00">name: auxkey2; record: Variable; type: int</text>
<text text-anchor="start" x="6092" y="-56.8" font-family="Arial" font-size="14.00">name: c_node; record: Parameter; type: Tree</text>
<text text-anchor="start" x="6102" y="-42.8" font-family="Arial" font-size="14.00">name: ntb; record: Variable; type: boolean</text>
<text text-anchor="start" x="6091.5" y="-28.8" font-family="Arial" font-size="14.00">name: p_node; record: Parameter; type: Tree</text>
</g>
<!-- n5&#45;&#45;n20 -->
<g id="edge20" class="edge">
<title>n5&#45;&#45;n20</title>
<path fill="none" stroke="black" d="M4518.18,-377.88C4831.59,-353.82 5495.63,-289.62 6039,-148 6060.78,-142.32 6083.49,-134.92 6105.29,-127.01"/>
</g>
<!-- n21 -->
<g id="node22" class="node">
<title>n21</title>
<polygon fill="none" stroke="black" points="6786,-113 6426,-113 6426,-35 6786,-35 6786,-113"/>
<text text-anchor="start" x="6533.5" y="-98.8" font-family="Arial" font-weight="bold" text-decoration="underline" font-size="14.00">Method: RemoveRight</text>
<text text-anchor="start" x="6470" y="-70.8" font-family="Arial" font-size="14.00">name: c_node; record: Parameter; type: Tree</text>
<text text-anchor="start" x="6480" y="-56.8" font-family="Arial" font-size="14.00">name: ntb; record: Variable; type: boolean</text>
<text text-anchor="start" x="6469.5" y="-42.8" font-family="Arial" font-size="14.00">name: p_node; record: Parameter; type: Tree</text>
</g>
<!-- n5&#45;&#45;n21 -->
<g id="edge21" class="edge">
<title>n5&#45;&#45;n21</title>
<path fill="none" stroke="black" d="M4518.35,-384.29C4882.37,-369.45 5728.89,-318.02 6417,-148 6451.83,-139.39 6488.91,-126.06 6520.92,-113.12"/>
</g>
<!-- n22 -->
<g id="node23" class="node">
<title>n22</title>
<polygon fill="none" stroke="black" points="7164,-113 6804,-113 6804,-35 7164,-35 7164,-113"/>
<text text-anchor="start" x="6916" y="-98.8" font-family="Arial" font-weight="bold" text-decoration="underline" font-size="14.00">Method: RemoveLeft</text>
<text text-anchor="start" x="6848" y="-70.8" font-family="Arial" font-size="14.00">name: c_node; record: Parameter; type: Tree</text>
<text text-anchor="start" x="6858" y="-56.8" font-family="Arial" font-size="14.00">name: ntb; record: Variable; type: boolean</text>
<text text-anchor="start" x="6847.5" y="-42.8" font-family="Arial" font-size="14.00">name: p_node; record: Parameter; type: Tree</text>
</g>
<!-- n5&#45;&#45;n22 -->
<g id="edge22" class="edge">
<title>n5&#45;&#45;n22</title>
<path fill="none" stroke="black" d="M4518.01,-388.81C4927.91,-382.53 5959.95,-346.51 6795,-148 6830.25,-139.62 6867.73,-126.17 6899.94,-113.08"/>
</g>
<!-- n23 -->
<g id="node24" class="node">
<title>n23</title>
<polygon fill="none" stroke="black" points="7542,-127 7182,-127 7182,-21 7542,-21 7542,-127"/>
<text text-anchor="start" x="7310.5" y="-112.8" font-family="Arial" font-weight="bold" text-decoration="underline" font-size="14.00">Method: Search</text>
<text text-anchor="start" x="7232.5" y="-84.8" font-family="Arial" font-size="14.00">name: cont; record: Variable; type: boolean</text>
<text text-anchor="start" x="7216" y="-70.8" font-family="Arial" font-size="14.00">name: current_node; record: Variable; type: Tree</text>
<text text-anchor="start" x="7244" y="-56.8" font-family="Arial" font-size="14.00">name: ifound; record: Variable; type: int</text>
<text text-anchor="start" x="7237" y="-42.8" font-family="Arial" font-size="14.00">name: key_aux; record: Variable; type: int</text>
<text text-anchor="start" x="7237" y="-28.8" font-family="Arial" font-size="14.00">name: v_key; record: Parameter; type: int</text>
</g>
<!-- n5&#45;&#45;n23 -->
<g id="edge23" class="edge">
<title>n5&#45;&#45;n23</title>
<path fill="none" stroke="black" d="M4518.11,-381.3C5059.09,-354.13 6663.7,-265.57 7173,-148 7195.88,-142.72 7219.67,-135.23 7242.36,-127.04"/>
</g>
<!-- n24 -->
<g id="node25" class="node">
<title>n24</title>
<polygon fill="none" stroke="black" points="7920,-106 7560,-106 7560,-42 7920,-42 7920,-106"/>
<text text-anchor="start" x="7696" y="-91.8" font-family="Arial" font-weight="bold" text-decoration="underline" font-size="14.00">Method: Print</text>
<text text-anchor="start" x="7594" y="-63.8" font-family="Arial" font-size="14.00">name: current_node; record: Variable; type: Tree</text>
<text text-anchor="start" x="7614" y="-49.8" font-family="Arial" font-size="14.00">name: ntb; record: Variable; type: boolean</text>
</g>
<!-- n5&#45;&#45;n24 -->
<g id="edge24" class="edge">
<title>n5&#45;&#45;n24</title>
<path fill="none" stroke="black" d="M4518.05,-383.38C5106.08,-360.68 6965.84,-280.01 7551,-148 7593.03,-138.52 7638.12,-121.39 7673.71,-106.11"/>
</g>
<!-- n25 -->
<g id="node26" class="node">
<title>n25</title>
<polygon fill="none" stroke="black" points="8298,-106 7938,-106 7938,-42 8298,-42 8298,-106"/>
<text text-anchor="start" x="8061.5" y="-91.8" font-family="Arial" font-weight="bold" text-decoration="underline" font-size="14.00">Method: RecPrint</text>
<text text-anchor="start" x="7989" y="-63.8" font-family="Arial" font-size="14.00">name: node; record: Parameter; type: Tree</text>
<text text-anchor="start" x="7992" y="-49.8" font-family="Arial" font-size="14.00">name: ntb; record: Variable; type: boolean</text>
</g>
<!-- n5&#45;&#45;n25 -->
<g id="edge25" class="edge">
<title>n5&#45;&#45;n25</title>
<path fill="none" stroke="black" d="M4518.18,-385.02C5150.77,-366.42 7267.65,-294.46 7929,-148 7971.24,-138.65 8016.52,-121.43 8052.17,-106.06"/>
</g>
</g>
</svg>
