<?xml version="1.0" encoding="UTF-8" standalone="no"?>
<!DOCTYPE svg PUBLIC "-//W3C//DTD SVG 1.1//EN"
 "http://www.w3.org/Graphics/SVG/1.1/DTD/svg11.dtd">
<!-- Generated by graphviz version 2.43.0 (0)
 -->
<!-- Title: %3 Pages: 1 -->
<svg width="1880pt" height="463pt"
 viewBox="0.00 0.00 1880.00 463.00" xmlns="http://www.w3.org/2000/svg" xmlns:xlink="http://www.w3.org/1999/xlink">
<g id="graph0" class="graph" transform="scale(1 1) rotate(0) translate(4 459)">
<title>%3</title>
<polygon fill="white" stroke="transparent" points="-4,4 -4,-459 1876,-459 1876,4 -4,4"/>
<text text-anchor="middle" x="936" y="-439.8" font-family="Times,serif" font-size="14.00">Symbol Table</text>
<!-- n0 -->
<g id="node1" class="node">
<title>n0</title>
<polygon fill="none" stroke="black" points="927,-432 567,-432 567,-368 927,-368 927,-432"/>
<text text-anchor="start" x="718.5" y="-417.8" font-family="Arial" font-weight="bold" text-decoration="underline" font-size="14.00">Program</text>
<text text-anchor="start" x="635" y="-389.8" font-family="Arial" font-size="14.00">name: BBS; record: Class; type: BBS</text>
<text text-anchor="start" x="621.5" y="-375.8" font-family="Arial" font-size="14.00">name: BubbleSort; record: Class; type: int</text>
</g>
<!-- n1 -->
<g id="node2" class="node">
<title>n1</title>
<polygon fill="none" stroke="black" points="549,-297 189,-297 189,-233 549,-233 549,-297"/>
<text text-anchor="start" x="310" y="-282.8" font-family="Arial" font-weight="bold" text-decoration="underline" font-size="14.00">Class: BubbleSort</text>
<text text-anchor="start" x="250.5" y="-254.8" font-family="Arial" font-size="14.00">name: main; record: Method; type: void</text>
<text text-anchor="start" x="232.5" y="-240.8" font-family="Arial" font-size="14.00">name: this; record: Variable; type: BubbleSort</text>
</g>
<!-- n0&#45;&#45;n1 -->
<g id="edge1" class="edge">
<title>n0&#45;&#45;n1</title>
<path fill="none" stroke="black" d="M658.85,-367.99C598.21,-346.65 517.96,-318.41 457.29,-297.06"/>
</g>
<!-- n3 -->
<g id="node4" class="node">
<title>n3</title>
<polygon fill="none" stroke="black" points="1116,-332 756,-332 756,-198 1116,-198 1116,-332"/>
<text text-anchor="start" x="899.5" y="-317.8" font-family="Arial" font-weight="bold" text-decoration="underline" font-size="14.00">Class: BBS</text>
<text text-anchor="start" x="829" y="-289.8" font-family="Arial" font-size="14.00">name: Init; record: Method; type: int</text>
<text text-anchor="start" x="824" y="-275.8" font-family="Arial" font-size="14.00">name: Print; record: Method; type: int</text>
<text text-anchor="start" x="825.5" y="-261.8" font-family="Arial" font-size="14.00">name: Sort; record: Method; type: int</text>
<text text-anchor="start" x="823.5" y="-247.8" font-family="Arial" font-size="14.00">name: Start; record: Method; type: int</text>
<text text-anchor="start" x="809.5" y="-233.8" font-family="Arial" font-size="14.00">name: number; record: Variable; type: int[]</text>
<text text-anchor="start" x="824.5" y="-219.8" font-family="Arial" font-size="14.00">name: size; record: Variable; type: int</text>
<text text-anchor="start" x="819.5" y="-205.8" font-family="Arial" font-size="14.00">name: this; record: Variable; type: BBS</text>
</g>
<!-- n0&#45;&#45;n3 -->
<g id="edge3" class="edge">
<title>n0&#45;&#45;n3</title>
<path fill="none" stroke="black" d="M791.31,-367.82C806.59,-357.07 824.33,-344.59 842.04,-332.12"/>
</g>
<!-- n2 -->
<g id="node3" class="node">
<title>n2</title>
<polygon fill="none" stroke="black" points="360,-106 0,-106 0,-56 360,-56 360,-106"/>
<text text-anchor="start" x="135" y="-91.8" font-family="Arial" font-weight="bold" text-decoration="underline" font-size="14.00">Method: main</text>
<text text-anchor="start" x="55" y="-63.8" font-family="Arial" font-size="14.00">name: a; record: Parameter; type: String[]</text>
</g>
<!-- n1&#45;&#45;n2 -->
<g id="edge2" class="edge">
<title>n1&#45;&#45;n2</title>
<path fill="none" stroke="black" d="M336.51,-232.71C299.25,-196.84 238.97,-138.79 205.13,-106.2"/>
</g>
<!-- n4 -->
<g id="node5" class="node">
<title>n4</title>
<polygon fill="none" stroke="black" points="738,-113 378,-113 378,-49 738,-49 738,-113"/>
<text text-anchor="start" x="514" y="-98.8" font-family="Arial" font-weight="bold" text-decoration="underline" font-size="14.00">Method: Start</text>
<text text-anchor="start" x="440" y="-70.8" font-family="Arial" font-size="14.00">name: aux01; record: Variable; type: int</text>
<text text-anchor="start" x="444" y="-56.8" font-family="Arial" font-size="14.00">name: sz; record: Parameter; type: int</text>
</g>
<!-- n3&#45;&#45;n4 -->
<g id="edge4" class="edge">
<title>n3&#45;&#45;n4</title>
<path fill="none" stroke="black" d="M798.73,-197.91C738.54,-168.93 670.77,-136.3 622.51,-113.06"/>
</g>
<!-- n5 -->
<g id="node6" class="node">
<title>n5</title>
<polygon fill="none" stroke="black" points="1116,-162 756,-162 756,0 1116,0 1116,-162"/>
<text text-anchor="start" x="893.5" y="-147.8" font-family="Arial" font-weight="bold" text-decoration="underline" font-size="14.00">Method: Sort</text>
<text text-anchor="start" x="818" y="-119.8" font-family="Arial" font-size="14.00">name: aux02; record: Variable; type: int</text>
<text text-anchor="start" x="818" y="-105.8" font-family="Arial" font-size="14.00">name: aux04; record: Variable; type: int</text>
<text text-anchor="start" x="818" y="-91.8" font-family="Arial" font-size="14.00">name: aux05; record: Variable; type: int</text>
<text text-anchor="start" x="818" y="-77.8" font-family="Arial" font-size="14.00">name: aux06; record: Variable; type: int</text>
<text text-anchor="start" x="818" y="-63.8" font-family="Arial" font-size="14.00">name: aux07; record: Variable; type: int</text>
<text text-anchor="start" x="835" y="-49.8" font-family="Arial" font-size="14.00">name: i; record: Variable; type: int</text>
<text text-anchor="start" x="835" y="-35.8" font-family="Arial" font-size="14.00">name: j; record: Variable; type: int</text>
<text text-anchor="start" x="830.5" y="-21.8" font-family="Arial" font-size="14.00">name: nt; record: Variable; type: int</text>
<text text-anchor="start" x="834.5" y="-7.8" font-family="Arial" font-size="14.00">name: t; record: Variable; type: int</text>
</g>
<!-- n3&#45;&#45;n5 -->
<g id="edge5" class="edge">
<title>n3&#45;&#45;n5</title>
<path fill="none" stroke="black" d="M936,-197.78C936,-186.19 936,-174.03 936,-162.11"/>
</g>
<!-- n6 -->
<g id="node7" class="node">
<title>n6</title>
<polygon fill="none" stroke="black" points="1494,-106 1134,-106 1134,-56 1494,-56 1494,-106"/>
<text text-anchor="start" x="1270" y="-91.8" font-family="Arial" font-weight="bold" text-decoration="underline" font-size="14.00">Method: Print</text>
<text text-anchor="start" x="1213" y="-63.8" font-family="Arial" font-size="14.00">name: j; record: Variable; type: int</text>
</g>
<!-- n3&#45;&#45;n6 -->
<g id="edge6" class="edge">
<title>n3&#45;&#45;n6</title>
<path fill="none" stroke="black" d="M1073.27,-197.91C1139.79,-165.88 1215.58,-129.39 1264.05,-106.05"/>
</g>
<!-- n7 -->
<g id="node8" class="node">
<title>n7</title>
<polygon fill="none" stroke="black" points="1872,-106 1512,-106 1512,-56 1872,-56 1872,-106"/>
<text text-anchor="start" x="1653" y="-91.8" font-family="Arial" font-weight="bold" text-decoration="underline" font-size="14.00">Method: Init</text>
<text text-anchor="start" x="1578" y="-63.8" font-family="Arial" font-size="14.00">name: sz; record: Parameter; type: int</text>
</g>
<!-- n3&#45;&#45;n7 -->
<g id="edge7" class="edge">
<title>n3&#45;&#45;n7</title>
<path fill="none" stroke="black" d="M1116.19,-242.03C1228.83,-225.74 1376.1,-199.76 1503,-162 1552.18,-147.37 1605.83,-123.88 1643.37,-106.14"/>
</g>
</g>
</svg>
