<?xml version="1.0" encoding="UTF-8" standalone="no"?>
<!DOCTYPE svg PUBLIC "-//W3C//DTD SVG 1.1//EN"
 "http://www.w3.org/Graphics/SVG/1.1/DTD/svg11.dtd">
<!-- Generated by graphviz version 2.43.0 (0)
 -->
<!-- Title: %3 Pages: 1 -->
<svg width="2636pt" height="477pt"
 viewBox="0.00 0.00 2636.00 477.00" xmlns="http://www.w3.org/2000/svg" xmlns:xlink="http://www.w3.org/1999/xlink">
<g id="graph0" class="graph" transform="scale(1 1) rotate(0) translate(4 473)">
<title>%3</title>
<polygon fill="white" stroke="transparent" points="-4,4 -4,-473 2632,-473 2632,4 -4,4"/>
<text text-anchor="middle" x="1314" y="-453.8" font-family="Times,serif" font-size="14.00">Symbol Table</text>
<!-- n0 -->
<g id="node1" class="node">
<title>n0</title>
<polygon fill="none" stroke="black" points="1210,-446 850,-446 850,-382 1210,-382 1210,-446"/>
<text text-anchor="start" x="1001.5" y="-431.8" font-family="Arial" font-weight="bold" text-decoration="underline" font-size="14.00">Program</text>
<text text-anchor="start" x="927" y="-403.8" font-family="Arial" font-size="14.00">name: BS; record: Class; type: BS</text>
<text text-anchor="start" x="897.5" y="-389.8" font-family="Arial" font-size="14.00">name: BinarySearch; record: Class; type: int</text>
</g>
<!-- n1 -->
<g id="node2" class="node">
<title>n1</title>
<polygon fill="none" stroke="black" points="643,-297 283,-297 283,-233 643,-233 643,-297"/>
<text text-anchor="start" x="397" y="-282.8" font-family="Arial" font-weight="bold" text-decoration="underline" font-size="14.00">Class: BinarySearch</text>
<text text-anchor="start" x="344.5" y="-254.8" font-family="Arial" font-size="14.00">name: main; record: Method; type: void</text>
<text text-anchor="start" x="319.5" y="-240.8" font-family="Arial" font-size="14.00">name: this; record: Variable; type: BinarySearch</text>
</g>
<!-- n0&#45;&#45;n1 -->
<g id="edge1" class="edge">
<title>n0&#45;&#45;n1</title>
<path fill="none" stroke="black" d="M910.1,-381.91C813.74,-356.93 679.05,-322.01 582.73,-297.04"/>
</g>
<!-- n3 -->
<g id="node4" class="node">
<title>n3</title>
<polygon fill="none" stroke="black" points="1494,-346 1134,-346 1134,-184 1494,-184 1494,-346"/>
<text text-anchor="start" x="1282" y="-331.8" font-family="Arial" font-weight="bold" text-decoration="underline" font-size="14.00">Class: BS</text>
<text text-anchor="start" x="1171" y="-303.8" font-family="Arial" font-size="14.00">name: Compare; record: Method; type: boolean</text>
<text text-anchor="start" x="1206" y="-289.8" font-family="Arial" font-size="14.00">name: Div; record: Method; type: int</text>
<text text-anchor="start" x="1207" y="-275.8" font-family="Arial" font-size="14.00">name: Init; record: Method; type: int</text>
<text text-anchor="start" x="1202" y="-261.8" font-family="Arial" font-size="14.00">name: Print; record: Method; type: int</text>
<text text-anchor="start" x="1177.5" y="-247.8" font-family="Arial" font-size="14.00">name: Search; record: Method; type: boolean</text>
<text text-anchor="start" x="1201.5" y="-233.8" font-family="Arial" font-size="14.00">name: Start; record: Method; type: int</text>
<text text-anchor="start" x="1187.5" y="-219.8" font-family="Arial" font-size="14.00">name: number; record: Variable; type: int[]</text>
<text text-anchor="start" x="1202.5" y="-205.8" font-family="Arial" font-size="14.00">name: size; record: Variable; type: int</text>
<text text-anchor="start" x="1202" y="-191.8" font-family="Arial" font-size="14.00">name: this; record: Variable; type: BS</text>
</g>
<!-- n0&#45;&#45;n3 -->
<g id="edge3" class="edge">
<title>n0&#45;&#45;n3</title>
<path fill="none" stroke="black" d="M1090.23,-381.83C1110.74,-371.21 1134.72,-358.8 1159.2,-346.13"/>
</g>
<!-- n2 -->
<g id="node3" class="node">
<title>n2</title>
<polygon fill="none" stroke="black" points="360,-99 0,-99 0,-49 360,-49 360,-99"/>
<text text-anchor="start" x="135" y="-84.8" font-family="Arial" font-weight="bold" text-decoration="underline" font-size="14.00">Method: main</text>
<text text-anchor="start" x="55" y="-56.8" font-family="Arial" font-size="14.00">name: a; record: Parameter; type: String[]</text>
</g>
<!-- n1&#45;&#45;n2 -->
<g id="edge2" class="edge">
<title>n1&#45;&#45;n2</title>
<path fill="none" stroke="black" d="M416.27,-232.79C360.07,-195.26 266.95,-133.07 216.01,-99.05"/>
</g>
<!-- n4 -->
<g id="node5" class="node">
<title>n4</title>
<polygon fill="none" stroke="black" points="738,-113 378,-113 378,-35 738,-35 738,-113"/>
<text text-anchor="start" x="514" y="-98.8" font-family="Arial" font-weight="bold" text-decoration="underline" font-size="14.00">Method: Start</text>
<text text-anchor="start" x="440" y="-70.8" font-family="Arial" font-size="14.00">name: aux01; record: Variable; type: int</text>
<text text-anchor="start" x="440" y="-56.8" font-family="Arial" font-size="14.00">name: aux02; record: Variable; type: int</text>
<text text-anchor="start" x="444" y="-42.8" font-family="Arial" font-size="14.00">name: sz; record: Parameter; type: int</text>
</g>
<!-- n3&#45;&#45;n4 -->
<g id="edge4" class="edge">
<title>n3&#45;&#45;n4</title>
<path fill="none" stroke="black" d="M1133.68,-235.04C1021.32,-215.05 874.39,-185.35 747,-148 713.92,-138.3 678.47,-125.33 647.31,-113.01"/>
</g>
<!-- n5 -->
<g id="node6" class="node">
<title>n5</title>
<polygon fill="none" stroke="black" points="1116,-148 756,-148 756,0 1116,0 1116,-148"/>
<text text-anchor="start" x="884.5" y="-133.8" font-family="Arial" font-weight="bold" text-decoration="underline" font-size="14.00">Method: Search</text>
<text text-anchor="start" x="818" y="-105.8" font-family="Arial" font-size="14.00">name: aux01; record: Variable; type: int</text>
<text text-anchor="start" x="805" y="-91.8" font-family="Arial" font-size="14.00">name: bs01; record: Variable; type: boolean</text>
<text text-anchor="start" x="827.5" y="-77.8" font-family="Arial" font-size="14.00">name: left; record: Variable; type: int</text>
<text text-anchor="start" x="811.5" y="-63.8" font-family="Arial" font-size="14.00">name: medium; record: Variable; type: int</text>
<text text-anchor="start" x="830.5" y="-49.8" font-family="Arial" font-size="14.00">name: nt; record: Variable; type: int</text>
<text text-anchor="start" x="815.5" y="-35.8" font-family="Arial" font-size="14.00">name: num; record: Parameter; type: int</text>
<text text-anchor="start" x="823" y="-21.8" font-family="Arial" font-size="14.00">name: right; record: Variable; type: int</text>
<text text-anchor="start" x="793.5" y="-7.8" font-family="Arial" font-size="14.00">name: var_cont; record: Variable; type: boolean</text>
</g>
<!-- n3&#45;&#45;n5 -->
<g id="edge5" class="edge">
<title>n3&#45;&#45;n5</title>
<path fill="none" stroke="black" d="M1153.97,-183.98C1130.11,-172.05 1105.62,-159.81 1082.06,-148.03"/>
</g>
<!-- n6 -->
<g id="node7" class="node">
<title>n6</title>
<polygon fill="none" stroke="black" points="1494,-120 1134,-120 1134,-28 1494,-28 1494,-120"/>
<text text-anchor="start" x="1274.5" y="-105.8" font-family="Arial" font-weight="bold" text-decoration="underline" font-size="14.00">Method: Div</text>
<text text-anchor="start" x="1196" y="-77.8" font-family="Arial" font-size="14.00">name: aux03; record: Variable; type: int</text>
<text text-anchor="start" x="1190.5" y="-63.8" font-family="Arial" font-size="14.00">name: count01; record: Variable; type: int</text>
<text text-anchor="start" x="1190.5" y="-49.8" font-family="Arial" font-size="14.00">name: count02; record: Variable; type: int</text>
<text text-anchor="start" x="1193.5" y="-35.8" font-family="Arial" font-size="14.00">name: num; record: Parameter; type: int</text>
</g>
<!-- n3&#45;&#45;n6 -->
<g id="edge6" class="edge">
<title>n3&#45;&#45;n6</title>
<path fill="none" stroke="black" d="M1314,-183.85C1314,-162.01 1314,-139.14 1314,-120.02"/>
</g>
<!-- n7 -->
<g id="node8" class="node">
<title>n7</title>
<polygon fill="none" stroke="black" points="1872,-120 1512,-120 1512,-28 1872,-28 1872,-120"/>
<text text-anchor="start" x="1633.5" y="-105.8" font-family="Arial" font-weight="bold" text-decoration="underline" font-size="14.00">Method: Compare</text>
<text text-anchor="start" x="1574" y="-77.8" font-family="Arial" font-size="14.00">name: aux02; record: Variable; type: int</text>
<text text-anchor="start" x="1567.5" y="-63.8" font-family="Arial" font-size="14.00">name: num1; record: Parameter; type: int</text>
<text text-anchor="start" x="1567.5" y="-49.8" font-family="Arial" font-size="14.00">name: num2; record: Parameter; type: int</text>
<text text-anchor="start" x="1559" y="-35.8" font-family="Arial" font-size="14.00">name: retval; record: Variable; type: boolean</text>
</g>
<!-- n3&#45;&#45;n7 -->
<g id="edge7" class="edge">
<title>n3&#45;&#45;n7</title>
<path fill="none" stroke="black" d="M1474.03,-183.98C1517.73,-162.14 1563.54,-139.23 1601.82,-120.09"/>
</g>
<!-- n8 -->
<g id="node9" class="node">
<title>n8</title>
<polygon fill="none" stroke="black" points="2250,-99 1890,-99 1890,-49 2250,-49 2250,-99"/>
<text text-anchor="start" x="2026" y="-84.8" font-family="Arial" font-weight="bold" text-decoration="underline" font-size="14.00">Method: Print</text>
<text text-anchor="start" x="1969" y="-56.8" font-family="Arial" font-size="14.00">name: j; record: Variable; type: int</text>
</g>
<!-- n3&#45;&#45;n8 -->
<g id="edge8" class="edge">
<title>n3&#45;&#45;n8</title>
<path fill="none" stroke="black" d="M1494.32,-235.04C1606.68,-215.05 1753.61,-185.35 1881,-148 1927.07,-134.49 1977.75,-114.63 2015.02,-99.04"/>
</g>
<!-- n9 -->
<g id="node10" class="node">
<title>n9</title>
<polygon fill="none" stroke="black" points="2628,-127 2268,-127 2268,-21 2628,-21 2628,-127"/>
<text text-anchor="start" x="2409" y="-112.8" font-family="Arial" font-weight="bold" text-decoration="underline" font-size="14.00">Method: Init</text>
<text text-anchor="start" x="2330" y="-84.8" font-family="Arial" font-size="14.00">name: aux01; record: Variable; type: int</text>
<text text-anchor="start" x="2330" y="-70.8" font-family="Arial" font-size="14.00">name: aux02; record: Variable; type: int</text>
<text text-anchor="start" x="2347" y="-56.8" font-family="Arial" font-size="14.00">name: j; record: Variable; type: int</text>
<text text-anchor="start" x="2345" y="-42.8" font-family="Arial" font-size="14.00">name: k; record: Variable; type: int</text>
<text text-anchor="start" x="2334" y="-28.8" font-family="Arial" font-size="14.00">name: sz; record: Parameter; type: int</text>
</g>
<!-- n3&#45;&#45;n9 -->
<g id="edge9" class="edge">
<title>n3&#45;&#45;n9</title>
<path fill="none" stroke="black" d="M1494.05,-255.11C1685.99,-242.58 1997.64,-213.45 2259,-148 2281.09,-142.47 2304.1,-135.06 2326.15,-127.09"/>
</g>
</g>
</svg>
