<?xml version="1.0" encoding="UTF-8" standalone="no"?>
<!DOCTYPE svg PUBLIC "-//W3C//DTD SVG 1.1//EN"
 "http://www.w3.org/Graphics/SVG/1.1/DTD/svg11.dtd">
<!-- Generated by graphviz version 2.43.0 (0)
 -->
<!-- Title: %3 Pages: 1 -->
<svg width="746pt" height="295pt"
 viewBox="0.00 0.00 746.00 295.00" xmlns="http://www.w3.org/2000/svg" xmlns:xlink="http://www.w3.org/1999/xlink">
<g id="graph0" class="graph" transform="scale(1 1) rotate(0) translate(4 291)">
<title>%3</title>
<polygon fill="white" stroke="transparent" points="-4,4 -4,-291 742,-291 742,4 -4,4"/>
<text text-anchor="middle" x="369" y="-271.8" font-family="Times,serif" font-size="14.00">Symbol Table</text>
<!-- n0 -->
<g id="node1" class="node">
<title>n0</title>
<polygon fill="none" stroke="black" points="549,-264 189,-264 189,-200 549,-200 549,-264"/>
<text text-anchor="start" x="340.5" y="-249.8" font-family="Arial" font-weight="bold" text-decoration="underline" font-size="14.00">Program</text>
<text text-anchor="start" x="261.5" y="-221.8" font-family="Arial" font-size="14.00">name: Fac; record: Class; type: Fac</text>
<text text-anchor="start" x="251" y="-207.8" font-family="Arial" font-size="14.00">name: Factorial; record: Class; type: int</text>
</g>
<!-- n1 -->
<g id="node2" class="node">
<title>n1</title>
<polygon fill="none" stroke="black" points="360,-164 0,-164 0,-100 360,-100 360,-164"/>
<text text-anchor="start" x="129.5" y="-149.8" font-family="Arial" font-weight="bold" text-decoration="underline" font-size="14.00">Class: Factorial</text>
<text text-anchor="start" x="61.5" y="-121.8" font-family="Arial" font-size="14.00">name: main; record: Method; type: void</text>
<text text-anchor="start" x="51" y="-107.8" font-family="Arial" font-size="14.00">name: this; record: Variable; type: Factorial</text>
</g>
<!-- n0&#45;&#45;n1 -->
<g id="edge1" class="edge">
<title>n0&#45;&#45;n1</title>
<path fill="none" stroke="black" d="M309.2,-199.99C287.14,-188.55 262.15,-175.59 240.06,-164.14"/>
</g>
<!-- n3 -->
<g id="node4" class="node">
<title>n3</title>
<polygon fill="none" stroke="black" points="738,-164 378,-164 378,-100 738,-100 738,-164"/>
<text text-anchor="start" x="524" y="-149.8" font-family="Arial" font-weight="bold" text-decoration="underline" font-size="14.00">Class: Fac</text>
<text text-anchor="start" x="421" y="-121.8" font-family="Arial" font-size="14.00">name: ComputeFac; record: Method; type: int</text>
<text text-anchor="start" x="443.5" y="-107.8" font-family="Arial" font-size="14.00">name: this; record: Variable; type: Fac</text>
</g>
<!-- n0&#45;&#45;n3 -->
<g id="edge3" class="edge">
<title>n0&#45;&#45;n3</title>
<path fill="none" stroke="black" d="M428.8,-199.99C450.86,-188.55 475.85,-175.59 497.94,-164.14"/>
</g>
<!-- n2 -->
<g id="node3" class="node">
<title>n2</title>
<polygon fill="none" stroke="black" points="360,-57 0,-57 0,-7 360,-7 360,-57"/>
<text text-anchor="start" x="135" y="-42.8" font-family="Arial" font-weight="bold" text-decoration="underline" font-size="14.00">Method: main</text>
<text text-anchor="start" x="55" y="-14.8" font-family="Arial" font-size="14.00">name: a; record: Parameter; type: String[]</text>
</g>
<!-- n1&#45;&#45;n2 -->
<g id="edge2" class="edge">
<title>n1&#45;&#45;n2</title>
<path fill="none" stroke="black" d="M180,-99.99C180,-86.2 180,-70.19 180,-57.29"/>
</g>
<!-- n4 -->
<g id="node5" class="node">
<title>n4</title>
<polygon fill="none" stroke="black" points="738,-64 378,-64 378,0 738,0 738,-64"/>
<text text-anchor="start" x="488" y="-49.8" font-family="Arial" font-weight="bold" text-decoration="underline" font-size="14.00">Method: ComputeFac</text>
<text text-anchor="start" x="437.5" y="-21.8" font-family="Arial" font-size="14.00">name: num; record: Parameter; type: int</text>
<text text-anchor="start" x="430" y="-7.8" font-family="Arial" font-size="14.00">name: num_aux; record: Variable; type: int</text>
</g>
<!-- n3&#45;&#45;n4 -->
<g id="edge4" class="edge">
<title>n3&#45;&#45;n4</title>
<path fill="none" stroke="black" d="M558,-99.99C558,-88.55 558,-75.59 558,-64.14"/>
</g>
</g>
</svg>
