<?xml version="1.0" encoding="UTF-8" standalone="no"?>
<!DOCTYPE svg PUBLIC "-//W3C//DTD SVG 1.1//EN"
 "http://www.w3.org/Graphics/SVG/1.1/DTD/svg11.dtd">
<!-- Generated by graphviz version 2.43.0 (0)
 -->
<!-- Title: %3 Pages: 1 -->
<svg width="1880pt" height="435pt"
 viewBox="0.00 0.00 1880.00 435.00" xmlns="http://www.w3.org/2000/svg" xmlns:xlink="http://www.w3.org/1999/xlink">
<g id="graph0" class="graph" transform="scale(1 1) rotate(0) translate(4 431)">
<title>%3</title>
<polygon fill="white" stroke="transparent" points="-4,4 -4,-431 1876,-431 1876,4 -4,4"/>
<text text-anchor="middle" x="936" y="-411.8" font-family="Times,serif" font-size="14.00">Symbol Table</text>
<!-- n0 -->
<g id="node1" class="node">
<title>n0</title>
<polygon fill="none" stroke="black" points="927,-404 567,-404 567,-340 927,-340 927,-404"/>
<text text-anchor="start" x="718.5" y="-389.8" font-family="Arial" font-weight="bold" text-decoration="underline" font-size="14.00">Program</text>
<text text-anchor="start" x="645.5" y="-361.8" font-family="Arial" font-size="14.00">name: LS; record: Class; type: LS</text>
<text text-anchor="start" x="614.5" y="-347.8" font-family="Arial" font-size="14.00">name: LinearSearch; record: Class; type: int</text>
</g>
<!-- n1 -->
<g id="node2" class="node">
<title>n1</title>
<polygon fill="none" stroke="black" points="549,-269 189,-269 189,-205 549,-205 549,-269"/>
<text text-anchor="start" x="304" y="-254.8" font-family="Arial" font-weight="bold" text-decoration="underline" font-size="14.00">Class: LinearSearch</text>
<text text-anchor="start" x="250.5" y="-226.8" font-family="Arial" font-size="14.00">name: main; record: Method; type: void</text>
<text text-anchor="start" x="226" y="-212.8" font-family="Arial" font-size="14.00">name: this; record: Variable; type: LinearSearch</text>
</g>
<!-- n0&#45;&#45;n1 -->
<g id="edge1" class="edge">
<title>n0&#45;&#45;n1</title>
<path fill="none" stroke="black" d="M658.85,-339.99C598.21,-318.65 517.96,-290.41 457.29,-269.06"/>
</g>
<!-- n3 -->
<g id="node4" class="node">
<title>n3</title>
<polygon fill="none" stroke="black" points="1116,-304 756,-304 756,-170 1116,-170 1116,-304"/>
<text text-anchor="start" x="905" y="-289.8" font-family="Arial" font-weight="bold" text-decoration="underline" font-size="14.00">Class: LS</text>
<text text-anchor="start" x="829" y="-261.8" font-family="Arial" font-size="14.00">name: Init; record: Method; type: int</text>
<text text-anchor="start" x="824" y="-247.8" font-family="Arial" font-size="14.00">name: Print; record: Method; type: int</text>
<text text-anchor="start" x="816.5" y="-233.8" font-family="Arial" font-size="14.00">name: Search; record: Method; type: int</text>
<text text-anchor="start" x="823.5" y="-219.8" font-family="Arial" font-size="14.00">name: Start; record: Method; type: int</text>
<text text-anchor="start" x="809.5" y="-205.8" font-family="Arial" font-size="14.00">name: number; record: Variable; type: int[]</text>
<text text-anchor="start" x="824.5" y="-191.8" font-family="Arial" font-size="14.00">name: size; record: Variable; type: int</text>
<text text-anchor="start" x="824.5" y="-177.8" font-family="Arial" font-size="14.00">name: this; record: Variable; type: LS</text>
</g>
<!-- n0&#45;&#45;n3 -->
<g id="edge3" class="edge">
<title>n0&#45;&#45;n3</title>
<path fill="none" stroke="black" d="M791.31,-339.82C806.59,-329.07 824.33,-316.59 842.04,-304.12"/>
</g>
<!-- n2 -->
<g id="node3" class="node">
<title>n2</title>
<polygon fill="none" stroke="black" points="360,-92 0,-92 0,-42 360,-42 360,-92"/>
<text text-anchor="start" x="135" y="-77.8" font-family="Arial" font-weight="bold" text-decoration="underline" font-size="14.00">Method: main</text>
<text text-anchor="start" x="55" y="-49.8" font-family="Arial" font-size="14.00">name: a; record: Parameter; type: String[]</text>
</g>
<!-- n1&#45;&#45;n2 -->
<g id="edge2" class="edge">
<title>n1&#45;&#45;n2</title>
<path fill="none" stroke="black" d="M333.89,-204.79C297.28,-172.25 240.65,-121.92 207.26,-92.23"/>
</g>
<!-- n4 -->
<g id="node5" class="node">
<title>n4</title>
<polygon fill="none" stroke="black" points="738,-106 378,-106 378,-28 738,-28 738,-106"/>
<text text-anchor="start" x="514" y="-91.8" font-family="Arial" font-weight="bold" text-decoration="underline" font-size="14.00">Method: Start</text>
<text text-anchor="start" x="440" y="-63.8" font-family="Arial" font-size="14.00">name: aux01; record: Variable; type: int</text>
<text text-anchor="start" x="440" y="-49.8" font-family="Arial" font-size="14.00">name: aux02; record: Variable; type: int</text>
<text text-anchor="start" x="444" y="-35.8" font-family="Arial" font-size="14.00">name: sz; record: Parameter; type: int</text>
</g>
<!-- n3&#45;&#45;n4 -->
<g id="edge4" class="edge">
<title>n3&#45;&#45;n4</title>
<path fill="none" stroke="black" d="M787.42,-169.96C738.63,-148.28 686.08,-124.92 643.6,-106.04"/>
</g>
<!-- n5 -->
<g id="node6" class="node">
<title>n5</title>
<polygon fill="none" stroke="black" points="1116,-92 756,-92 756,-42 1116,-42 1116,-92"/>
<text text-anchor="start" x="892" y="-77.8" font-family="Arial" font-weight="bold" text-decoration="underline" font-size="14.00">Method: Print</text>
<text text-anchor="start" x="835" y="-49.8" font-family="Arial" font-size="14.00">name: j; record: Variable; type: int</text>
</g>
<!-- n3&#45;&#45;n5 -->
<g id="edge5" class="edge">
<title>n3&#45;&#45;n5</title>
<path fill="none" stroke="black" d="M936,-169.6C936,-142.27 936,-112.34 936,-92.09"/>
</g>
<!-- n6 -->
<g id="node7" class="node">
<title>n6</title>
<polygon fill="none" stroke="black" points="1494,-134 1134,-134 1134,0 1494,0 1494,-134"/>
<text text-anchor="start" x="1262.5" y="-119.8" font-family="Arial" font-weight="bold" text-decoration="underline" font-size="14.00">Method: Search</text>
<text text-anchor="start" x="1196" y="-91.8" font-family="Arial" font-size="14.00">name: aux01; record: Variable; type: int</text>
<text text-anchor="start" x="1196" y="-77.8" font-family="Arial" font-size="14.00">name: aux02; record: Variable; type: int</text>
<text text-anchor="start" x="1196" y="-63.8" font-family="Arial" font-size="14.00">name: ifound; record: Variable; type: int</text>
<text text-anchor="start" x="1213" y="-49.8" font-family="Arial" font-size="14.00">name: j; record: Variable; type: int</text>
<text text-anchor="start" x="1185" y="-35.8" font-family="Arial" font-size="14.00">name: ls01; record: Variable; type: boolean</text>
<text text-anchor="start" x="1208.5" y="-21.8" font-family="Arial" font-size="14.00">name: nt; record: Variable; type: int</text>
<text text-anchor="start" x="1193.5" y="-7.8" font-family="Arial" font-size="14.00">name: num; record: Parameter; type: int</text>
</g>
<!-- n3&#45;&#45;n6 -->
<g id="edge6" class="edge">
<title>n3&#45;&#45;n6</title>
<path fill="none" stroke="black" d="M1084.58,-169.96C1111.14,-158.16 1138.83,-145.86 1165.39,-134.05"/>
</g>
<!-- n7 -->
<g id="node8" class="node">
<title>n7</title>
<polygon fill="none" stroke="black" points="1872,-120 1512,-120 1512,-14 1872,-14 1872,-120"/>
<text text-anchor="start" x="1653" y="-105.8" font-family="Arial" font-weight="bold" text-decoration="underline" font-size="14.00">Method: Init</text>
<text text-anchor="start" x="1574" y="-77.8" font-family="Arial" font-size="14.00">name: aux01; record: Variable; type: int</text>
<text text-anchor="start" x="1574" y="-63.8" font-family="Arial" font-size="14.00">name: aux02; record: Variable; type: int</text>
<text text-anchor="start" x="1591" y="-49.8" font-family="Arial" font-size="14.00">name: j; record: Variable; type: int</text>
<text text-anchor="start" x="1589" y="-35.8" font-family="Arial" font-size="14.00">name: k; record: Variable; type: int</text>
<text text-anchor="start" x="1578" y="-21.8" font-family="Arial" font-size="14.00">name: sz; record: Parameter; type: int</text>
</g>
<!-- n3&#45;&#45;n7 -->
<g id="edge7" class="edge">
<title>n3&#45;&#45;n7</title>
<path fill="none" stroke="black" d="M1116.02,-211.06C1228.28,-193.67 1375.19,-167.59 1503,-134 1518.63,-129.89 1534.82,-125.1 1550.85,-120.01"/>
</g>
</g>
</svg>
