<?xml version="1.0" encoding="UTF-8" standalone="no"?>
<!DOCTYPE svg PUBLIC "-//W3C//DTD SVG 1.1//EN"
 "http://www.w3.org/Graphics/SVG/1.1/DTD/svg11.dtd">
<!-- Generated by graphviz version 2.43.0 (0)
 -->
<!-- Title: %3 Pages: 1 -->
<svg width="1880pt" height="477pt"
 viewBox="0.00 0.00 1880.00 477.00" xmlns="http://www.w3.org/2000/svg" xmlns:xlink="http://www.w3.org/1999/xlink">
<g id="graph0" class="graph" transform="scale(1 1) rotate(0) translate(4 473)">
<title>%3</title>
<polygon fill="white" stroke="transparent" points="-4,4 -4,-473 1876,-473 1876,4 -4,4"/>
<text text-anchor="middle" x="936" y="-453.8" font-family="Times,serif" font-size="14.00">Symbol Table</text>
<!-- n0 -->
<g id="node1" class="node">
<title>n0</title>
<polygon fill="none" stroke="black" points="927,-446 567,-446 567,-382 927,-382 927,-446"/>
<text text-anchor="start" x="718.5" y="-431.8" font-family="Arial" font-weight="bold" text-decoration="underline" font-size="14.00">Program</text>
<text text-anchor="start" x="641.5" y="-403.8" font-family="Arial" font-size="14.00">name: QS; record: Class; type: QS</text>
<text text-anchor="start" x="625" y="-389.8" font-family="Arial" font-size="14.00">name: QuickSort; record: Class; type: int</text>
</g>
<!-- n1 -->
<g id="node2" class="node">
<title>n1</title>
<polygon fill="none" stroke="black" points="549,-311 189,-311 189,-247 549,-247 549,-311"/>
<text text-anchor="start" x="314" y="-296.8" font-family="Arial" font-weight="bold" text-decoration="underline" font-size="14.00">Class: QuickSort</text>
<text text-anchor="start" x="250.5" y="-268.8" font-family="Arial" font-size="14.00">name: main; record: Method; type: void</text>
<text text-anchor="start" x="236" y="-254.8" font-family="Arial" font-size="14.00">name: this; record: Variable; type: QuickSort</text>
</g>
<!-- n0&#45;&#45;n1 -->
<g id="edge1" class="edge">
<title>n0&#45;&#45;n1</title>
<path fill="none" stroke="black" d="M658.85,-381.99C598.21,-360.65 517.96,-332.41 457.29,-311.06"/>
</g>
<!-- n3 -->
<g id="node4" class="node">
<title>n3</title>
<polygon fill="none" stroke="black" points="1116,-346 756,-346 756,-212 1116,-212 1116,-346"/>
<text text-anchor="start" x="903.5" y="-331.8" font-family="Arial" font-weight="bold" text-decoration="underline" font-size="14.00">Class: QS</text>
<text text-anchor="start" x="829" y="-303.8" font-family="Arial" font-size="14.00">name: Init; record: Method; type: int</text>
<text text-anchor="start" x="824" y="-289.8" font-family="Arial" font-size="14.00">name: Print; record: Method; type: int</text>
<text text-anchor="start" x="825.5" y="-275.8" font-family="Arial" font-size="14.00">name: Sort; record: Method; type: int</text>
<text text-anchor="start" x="823.5" y="-261.8" font-family="Arial" font-size="14.00">name: Start; record: Method; type: int</text>
<text text-anchor="start" x="809.5" y="-247.8" font-family="Arial" font-size="14.00">name: number; record: Variable; type: int[]</text>
<text text-anchor="start" x="824.5" y="-233.8" font-family="Arial" font-size="14.00">name: size; record: Variable; type: int</text>
<text text-anchor="start" x="823" y="-219.8" font-family="Arial" font-size="14.00">name: this; record: Variable; type: QS</text>
</g>
<!-- n0&#45;&#45;n3 -->
<g id="edge3" class="edge">
<title>n0&#45;&#45;n3</title>
<path fill="none" stroke="black" d="M791.31,-381.82C806.59,-371.07 824.33,-358.59 842.04,-346.12"/>
</g>
<!-- n2 -->
<g id="node3" class="node">
<title>n2</title>
<polygon fill="none" stroke="black" points="360,-113 0,-113 0,-63 360,-63 360,-113"/>
<text text-anchor="start" x="135" y="-98.8" font-family="Arial" font-weight="bold" text-decoration="underline" font-size="14.00">Method: main</text>
<text text-anchor="start" x="55" y="-70.8" font-family="Arial" font-size="14.00">name: a; record: Parameter; type: String[]</text>
</g>
<!-- n1&#45;&#45;n2 -->
<g id="edge2" class="edge">
<title>n1&#45;&#45;n2</title>
<path fill="none" stroke="black" d="M337.79,-246.79C300.26,-209.26 238.07,-147.07 204.05,-113.05"/>
</g>
<!-- n4 -->
<g id="node5" class="node">
<title>n4</title>
<polygon fill="none" stroke="black" points="738,-120 378,-120 378,-56 738,-56 738,-120"/>
<text text-anchor="start" x="514" y="-105.8" font-family="Arial" font-weight="bold" text-decoration="underline" font-size="14.00">Method: Start</text>
<text text-anchor="start" x="440" y="-77.8" font-family="Arial" font-size="14.00">name: aux01; record: Variable; type: int</text>
<text text-anchor="start" x="444" y="-63.8" font-family="Arial" font-size="14.00">name: sz; record: Parameter; type: int</text>
</g>
<!-- n3&#45;&#45;n4 -->
<g id="edge4" class="edge">
<title>n3&#45;&#45;n4</title>
<path fill="none" stroke="black" d="M803.79,-211.9C741.41,-180.71 669.94,-144.97 620.2,-120.1"/>
</g>
<!-- n5 -->
<g id="node6" class="node">
<title>n5</title>
<polygon fill="none" stroke="black" points="1116,-176 756,-176 756,0 1116,0 1116,-176"/>
<text text-anchor="start" x="893.5" y="-161.8" font-family="Arial" font-weight="bold" text-decoration="underline" font-size="14.00">Method: Sort</text>
<text text-anchor="start" x="818" y="-133.8" font-family="Arial" font-size="14.00">name: aux03; record: Variable; type: int</text>
<text text-anchor="start" x="799" y="-119.8" font-family="Arial" font-size="14.00">name: cont01; record: Variable; type: boolean</text>
<text text-anchor="start" x="799" y="-105.8" font-family="Arial" font-size="14.00">name: cont02; record: Variable; type: boolean</text>
<text text-anchor="start" x="835" y="-91.8" font-family="Arial" font-size="14.00">name: i; record: Variable; type: int</text>
<text text-anchor="start" x="835" y="-77.8" font-family="Arial" font-size="14.00">name: j; record: Variable; type: int</text>
<text text-anchor="start" x="820" y="-63.8" font-family="Arial" font-size="14.00">name: left; record: Parameter; type: int</text>
<text text-anchor="start" x="830.5" y="-49.8" font-family="Arial" font-size="14.00">name: nt; record: Variable; type: int</text>
<text text-anchor="start" x="815.5" y="-35.8" font-family="Arial" font-size="14.00">name: right; record: Parameter; type: int</text>
<text text-anchor="start" x="834.5" y="-21.8" font-family="Arial" font-size="14.00">name: t; record: Variable; type: int</text>
<text text-anchor="start" x="833" y="-7.8" font-family="Arial" font-size="14.00">name: v; record: Variable; type: int</text>
</g>
<!-- n3&#45;&#45;n5 -->
<g id="edge5" class="edge">
<title>n3&#45;&#45;n5</title>
<path fill="none" stroke="black" d="M936,-211.9C936,-200.4 936,-188.29 936,-176.33"/>
</g>
<!-- n6 -->
<g id="node7" class="node">
<title>n6</title>
<polygon fill="none" stroke="black" points="1494,-113 1134,-113 1134,-63 1494,-63 1494,-113"/>
<text text-anchor="start" x="1270" y="-98.8" font-family="Arial" font-weight="bold" text-decoration="underline" font-size="14.00">Method: Print</text>
<text text-anchor="start" x="1213" y="-70.8" font-family="Arial" font-size="14.00">name: j; record: Variable; type: int</text>
</g>
<!-- n3&#45;&#45;n6 -->
<g id="edge6" class="edge">
<title>n3&#45;&#45;n6</title>
<path fill="none" stroke="black" d="M1068.21,-211.9C1136.76,-177.62 1216.3,-137.85 1265.9,-113.05"/>
</g>
<!-- n7 -->
<g id="node8" class="node">
<title>n7</title>
<polygon fill="none" stroke="black" points="1872,-113 1512,-113 1512,-63 1872,-63 1872,-113"/>
<text text-anchor="start" x="1653" y="-98.8" font-family="Arial" font-weight="bold" text-decoration="underline" font-size="14.00">Method: Init</text>
<text text-anchor="start" x="1578" y="-70.8" font-family="Arial" font-size="14.00">name: sz; record: Parameter; type: int</text>
</g>
<!-- n3&#45;&#45;n7 -->
<g id="edge7" class="edge">
<title>n3&#45;&#45;n7</title>
<path fill="none" stroke="black" d="M1116.29,-257.45C1229.13,-241.68 1376.58,-215.76 1503,-176 1554.69,-159.74 1610.69,-132.67 1648.21,-113.03"/>
</g>
</g>
</svg>
