<?xml version="1.0" encoding="UTF-8" standalone="no"?>
<!DOCTYPE svg PUBLIC "-//W3C//DTD SVG 1.1//EN"
 "http://www.w3.org/Graphics/SVG/1.1/DTD/svg11.dtd">
<!-- Generated by graphviz version 2.43.0 (0)
 -->
<!-- Title: %3 Pages: 1 -->
<svg width="9440pt" height="785pt"
 viewBox="0.00 0.00 9440.00 785.00" xmlns="http://www.w3.org/2000/svg" xmlns:xlink="http://www.w3.org/1999/xlink">
<g id="graph0" class="graph" transform="scale(1 1) rotate(0) translate(4 781)">
<title>%3</title>
<polygon fill="white" stroke="transparent" points="-4,4 -4,-781 9436,-781 9436,4 -4,4"/>
<text text-anchor="middle" x="4716" y="-761.8" font-family="Times,serif" font-size="14.00">Symbol Table</text>
<!-- n0 -->
<g id="node1" class="node">
<title>n0</title>
<polygon fill="none" stroke="black" points="4896,-754 4536,-754 4536,-648 4896,-648 4896,-754"/>
<text text-anchor="start" x="4687.5" y="-739.8" font-family="Arial" font-weight="bold" text-decoration="underline" font-size="14.00">Program</text>
<text text-anchor="start" x="4574.5" y="-711.8" font-family="Arial" font-size="14.00">name: MyVisitor; record: Class; type: MyVisitor</text>
<text text-anchor="start" x="4613.5" y="-697.8" font-family="Arial" font-size="14.00">name: TV; record: Class; type: TV</text>
<text text-anchor="start" x="4603" y="-683.8" font-family="Arial" font-size="14.00">name: Tree; record: Class; type: Tree</text>
<text text-anchor="start" x="4591" y="-669.8" font-family="Arial" font-size="14.00">name: TreeVisitor; record: Class; type: int</text>
<text text-anchor="start" x="4593.5" y="-655.8" font-family="Arial" font-size="14.00">name: Visitor; record: Class; type: Visitor</text>
</g>
<!-- n1 -->
<g id="node2" class="node">
<title>n1</title>
<polygon fill="none" stroke="black" points="1305,-430 945,-430 945,-366 1305,-366 1305,-430"/>
<text text-anchor="start" x="1067.5" y="-415.8" font-family="Arial" font-weight="bold" text-decoration="underline" font-size="14.00">Class: TreeVisitor</text>
<text text-anchor="start" x="1006.5" y="-387.8" font-family="Arial" font-size="14.00">name: main; record: Method; type: void</text>
<text text-anchor="start" x="989.5" y="-373.8" font-family="Arial" font-size="14.00">name: this; record: Variable; type: TreeVisitor</text>
</g>
<!-- n0&#45;&#45;n1 -->
<g id="edge1" class="edge">
<title>n0&#45;&#45;n1</title>
<path fill="none" stroke="black" d="M4535.79,-697.05C4046.45,-688.49 2700.19,-661.06 2259,-612 1891.68,-571.16 1464.8,-478.55 1255,-430.01"/>
</g>
<!-- n3 -->
<g id="node4" class="node">
<title>n3</title>
<polygon fill="none" stroke="black" points="2628,-430 2268,-430 2268,-366 2628,-366 2628,-430"/>
<text text-anchor="start" x="2417" y="-415.8" font-family="Arial" font-weight="bold" text-decoration="underline" font-size="14.00">Class: TV</text>
<text text-anchor="start" x="2335.5" y="-387.8" font-family="Arial" font-size="14.00">name: Start; record: Method; type: int</text>
<text text-anchor="start" x="2336.5" y="-373.8" font-family="Arial" font-size="14.00">name: this; record: Variable; type: TV</text>
</g>
<!-- n0&#45;&#45;n3 -->
<g id="edge3" class="edge">
<title>n0&#45;&#45;n3</title>
<path fill="none" stroke="black" d="M4535.66,-676.07C4111.12,-619.72 3052.55,-479.23 2628.17,-422.91"/>
</g>
<!-- n5 -->
<g id="node6" class="node">
<title>n5</title>
<polygon fill="none" stroke="black" points="4896,-612 4536,-612 4536,-184 4896,-184 4896,-612"/>
<text text-anchor="start" x="4679.5" y="-597.8" font-family="Arial" font-weight="bold" text-decoration="underline" font-size="14.00">Class: Tree</text>
<text text-anchor="start" x="4573" y="-569.8" font-family="Arial" font-size="14.00">name: Compare; record: Method; type: boolean</text>
<text text-anchor="start" x="4581.5" y="-555.8" font-family="Arial" font-size="14.00">name: Delete; record: Method; type: boolean</text>
<text text-anchor="start" x="4562.5" y="-541.8" font-family="Arial" font-size="14.00">name: GetHas_Left; record: Method; type: boolean</text>
<text text-anchor="start" x="4558" y="-527.8" font-family="Arial" font-size="14.00">name: GetHas_Right; record: Method; type: boolean</text>
<text text-anchor="start" x="4595" y="-513.8" font-family="Arial" font-size="14.00">name: GetKey; record: Method; type: int</text>
<text text-anchor="start" x="4588.5" y="-499.8" font-family="Arial" font-size="14.00">name: GetLeft; record: Method; type: Tree</text>
<text text-anchor="start" x="4584" y="-485.8" font-family="Arial" font-size="14.00">name: GetRight; record: Method; type: Tree</text>
<text text-anchor="start" x="4592" y="-471.8" font-family="Arial" font-size="14.00">name: Init; record: Method; type: boolean</text>
<text text-anchor="start" x="4584" y="-457.8" font-family="Arial" font-size="14.00">name: Insert; record: Method; type: boolean</text>
<text text-anchor="start" x="4587" y="-443.8" font-family="Arial" font-size="14.00">name: Print; record: Method; type: boolean</text>
<text text-anchor="start" x="4575" y="-429.8" font-family="Arial" font-size="14.00">name: RecPrint; record: Method; type: boolean</text>
<text text-anchor="start" x="4575.5" y="-415.8" font-family="Arial" font-size="14.00">name: Remove; record: Method; type: boolean</text>
<text text-anchor="start" x="4564" y="-401.8" font-family="Arial" font-size="14.00">name: RemoveLeft; record: Method; type: boolean</text>
<text text-anchor="start" x="4559.5" y="-387.8" font-family="Arial" font-size="14.00">name: RemoveRight; record: Method; type: boolean</text>
<text text-anchor="start" x="4596.5" y="-373.8" font-family="Arial" font-size="14.00">name: Search; record: Method; type: int</text>
<text text-anchor="start" x="4564" y="-359.8" font-family="Arial" font-size="14.00">name: SetHas_Left; record: Method; type: boolean</text>
<text text-anchor="start" x="4559.5" y="-345.8" font-family="Arial" font-size="14.00">name: SetHas_Right; record: Method; type: boolean</text>
<text text-anchor="start" x="4579" y="-331.8" font-family="Arial" font-size="14.00">name: SetKey; record: Method; type: boolean</text>
<text text-anchor="start" x="4579.5" y="-317.8" font-family="Arial" font-size="14.00">name: SetLeft; record: Method; type: boolean</text>
<text text-anchor="start" x="4575" y="-303.8" font-family="Arial" font-size="14.00">name: SetRight; record: Method; type: boolean</text>
<text text-anchor="start" x="4598" y="-289.8" font-family="Arial" font-size="14.00">name: accept; record: Method; type: int</text>
<text text-anchor="start" x="4576" y="-275.8" font-family="Arial" font-size="14.00">name: has_left; record: Variable; type: boolean</text>
<text text-anchor="start" x="4571.5" y="-261.8" font-family="Arial" font-size="14.00">name: has_right; record: Variable; type: boolean</text>
<text text-anchor="start" x="4606" y="-247.8" font-family="Arial" font-size="14.00">name: key; record: Variable; type: int</text>
<text text-anchor="start" x="4600.5" y="-233.8" font-family="Arial" font-size="14.00">name: left; record: Variable; type: Tree</text>
<text text-anchor="start" x="4586" y="-219.8" font-family="Arial" font-size="14.00">name: my_null; record: Variable; type: Tree</text>
<text text-anchor="start" x="4596.5" y="-205.8" font-family="Arial" font-size="14.00">name: right; record: Variable; type: Tree</text>
<text text-anchor="start" x="4599" y="-191.8" font-family="Arial" font-size="14.00">name: this; record: Variable; type: Tree</text>
</g>
<!-- n0&#45;&#45;n5 -->
<g id="edge5" class="edge">
<title>n0&#45;&#45;n5</title>
<path fill="none" stroke="black" d="M4716,-647.91C4716,-637.06 4716,-624.99 4716,-612.19"/>
</g>
<!-- n27 -->
<g id="node28" class="node">
<title>n27</title>
<polygon fill="none" stroke="black" points="6219,-444 5859,-444 5859,-352 6219,-352 6219,-444"/>
<text text-anchor="start" x="5995.5" y="-429.8" font-family="Arial" font-weight="bold" text-decoration="underline" font-size="14.00">Class: Visitor</text>
<text text-anchor="start" x="5931" y="-401.8" font-family="Arial" font-size="14.00">name: l; record: Variable; type: Tree</text>
<text text-anchor="start" x="5930.5" y="-387.8" font-family="Arial" font-size="14.00">name: r; record: Variable; type: Tree</text>
<text text-anchor="start" x="5917" y="-373.8" font-family="Arial" font-size="14.00">name: this; record: Variable; type: Visitor</text>
<text text-anchor="start" x="5929" y="-359.8" font-family="Arial" font-size="14.00">name: visit; record: Method; type: int</text>
</g>
<!-- n0&#45;&#45;n27 -->
<g id="edge27" class="edge">
<title>n0&#45;&#45;n27</title>
<path fill="none" stroke="black" d="M4896.15,-659.01C5148.92,-601.51 5606.15,-497.48 5858.9,-439.98"/>
</g>
<!-- n29 -->
<g id="node30" class="node">
<title>n29</title>
<polygon fill="none" stroke="black" points="8487,-444 8127,-444 8127,-352 8487,-352 8487,-444"/>
<text text-anchor="start" x="8254" y="-429.8" font-family="Arial" font-weight="bold" text-decoration="underline" font-size="14.00">Class: MyVisitor</text>
<text text-anchor="start" x="8199" y="-401.8" font-family="Arial" font-size="14.00">name: l; record: Variable; type: Tree</text>
<text text-anchor="start" x="8198.5" y="-387.8" font-family="Arial" font-size="14.00">name: r; record: Variable; type: Tree</text>
<text text-anchor="start" x="8176" y="-373.8" font-family="Arial" font-size="14.00">name: this; record: Variable; type: MyVisitor</text>
<text text-anchor="start" x="8197" y="-359.8" font-family="Arial" font-size="14.00">name: visit; record: Method; type: int</text>
</g>
<!-- n0&#45;&#45;n29 -->
<g id="edge29" class="edge">
<title>n0&#45;&#45;n29</title>
<path fill="none" stroke="black" d="M4896.26,-692.08C5179.88,-679.03 5747.54,-650.58 6228,-612 6931.66,-555.5 7766.6,-461.85 8126.83,-420.15"/>
</g>
<!-- n2 -->
<g id="node3" class="node">
<title>n2</title>
<polygon fill="none" stroke="black" points="360,-99 0,-99 0,-49 360,-49 360,-99"/>
<text text-anchor="start" x="135" y="-84.8" font-family="Arial" font-weight="bold" text-decoration="underline" font-size="14.00">Method: main</text>
<text text-anchor="start" x="55" y="-56.8" font-family="Arial" font-size="14.00">name: a; record: Parameter; type: String[]</text>
</g>
<!-- n1&#45;&#45;n2 -->
<g id="edge2" class="edge">
<title>n1&#45;&#45;n2</title>
<path fill="none" stroke="black" d="M1025.39,-365.96C880.27,-320.33 602.56,-231.51 369,-148 325.61,-132.49 277.14,-113.73 240.14,-99.12"/>
</g>
<!-- n4 -->
<g id="node5" class="node">
<title>n4</title>
<polygon fill="none" stroke="black" points="738,-120 378,-120 378,-28 738,-28 738,-120"/>
<text text-anchor="start" x="514" y="-105.8" font-family="Arial" font-weight="bold" text-decoration="underline" font-size="14.00">Method: Start</text>
<text text-anchor="start" x="432" y="-77.8" font-family="Arial" font-size="14.00">name: ntb; record: Variable; type: boolean</text>
<text text-anchor="start" x="451" y="-63.8" font-family="Arial" font-size="14.00">name: nti; record: Variable; type: int</text>
<text text-anchor="start" x="440" y="-49.8" font-family="Arial" font-size="14.00">name: root; record: Variable; type: Tree</text>
<text text-anchor="start" x="434" y="-35.8" font-family="Arial" font-size="14.00">name: v; record: Variable; type: MyVisitor</text>
</g>
<!-- n3&#45;&#45;n4 -->
<g id="edge4" class="edge">
<title>n3&#45;&#45;n4</title>
<path fill="none" stroke="black" d="M2312.26,-365.93C2100.34,-318.69 1677.49,-229.5 1314,-184 1063.45,-152.63 993.64,-202.12 747,-148 717.28,-141.48 686.07,-131.03 657.76,-120.05"/>
</g>
<!-- n6 -->
<g id="node7" class="node">
<title>n6</title>
<polygon fill="none" stroke="black" points="1116,-99 756,-99 756,-49 1116,-49 1116,-99"/>
<text text-anchor="start" x="897" y="-84.8" font-family="Arial" font-weight="bold" text-decoration="underline" font-size="14.00">Method: Init</text>
<text text-anchor="start" x="811" y="-56.8" font-family="Arial" font-size="14.00">name: v_key; record: Parameter; type: int</text>
</g>
<!-- n5&#45;&#45;n6 -->
<g id="edge6" class="edge">
<title>n5&#45;&#45;n6</title>
<path fill="none" stroke="black" d="M4535.98,-373.76C4176.02,-328.35 3341.53,-228.41 2637,-184 2301.57,-162.86 1454.65,-213.52 1125,-148 1075.32,-138.13 1021.73,-116.26 984.35,-99.02"/>
</g>
<!-- n7 -->
<g id="node8" class="node">
<title>n7</title>
<polygon fill="none" stroke="black" points="1494,-99 1134,-99 1134,-49 1494,-49 1494,-99"/>
<text text-anchor="start" x="1257.5" y="-84.8" font-family="Arial" font-weight="bold" text-decoration="underline" font-size="14.00">Method: SetRight</text>
<text text-anchor="start" x="1194" y="-56.8" font-family="Arial" font-size="14.00">name: rn; record: Parameter; type: Tree</text>
</g>
<!-- n5&#45;&#45;n7 -->
<g id="edge7" class="edge">
<title>n5&#45;&#45;n7</title>
<path fill="none" stroke="black" d="M4535.95,-374.24C4175.93,-329.69 3341.35,-231.2 2637,-184 2385.44,-167.14 1750.09,-198.13 1503,-148 1453.53,-137.96 1400.14,-116.24 1362.76,-99.09"/>
</g>
<!-- n8 -->
<g id="node9" class="node">
<title>n8</title>
<polygon fill="none" stroke="black" points="1872,-99 1512,-99 1512,-49 1872,-49 1872,-99"/>
<text text-anchor="start" x="1640.5" y="-84.8" font-family="Arial" font-weight="bold" text-decoration="underline" font-size="14.00">Method: SetLeft</text>
<text text-anchor="start" x="1573" y="-56.8" font-family="Arial" font-size="14.00">name: ln; record: Parameter; type: Tree</text>
</g>
<!-- n5&#45;&#45;n8 -->
<g id="edge8" class="edge">
<title>n5&#45;&#45;n8</title>
<path fill="none" stroke="black" d="M4535.88,-375.2C4175.74,-332.37 3340.95,-236.78 2637,-184 2301.56,-158.85 2210.12,-217.49 1881,-148 1831.78,-137.61 1778.58,-116.05 1741.2,-99.04"/>
</g>
<!-- n9 -->
<g id="node10" class="node">
<title>n9</title>
<polygon fill="none" stroke="black" points="2250,-92 1890,-92 1890,-56 2250,-56 2250,-92"/>
<text text-anchor="start" x="2012.5" y="-77.8" font-family="Arial" font-weight="bold" text-decoration="underline" font-size="14.00">Method: GetRight</text>
</g>
<!-- n5&#45;&#45;n9 -->
<g id="edge9" class="edge">
<title>n5&#45;&#45;n9</title>
<path fill="none" stroke="black" d="M4535.98,-378.12C4175.59,-340.42 3339.73,-253.46 2637,-184 2469.06,-167.4 2423.25,-186.76 2259,-148 2203.54,-134.91 2142.59,-109.15 2105.3,-92"/>
</g>
<!-- n10 -->
<g id="node11" class="node">
<title>n10</title>
<polygon fill="none" stroke="black" points="2628,-92 2268,-92 2268,-56 2628,-56 2628,-92"/>
<text text-anchor="start" x="2395" y="-77.8" font-family="Arial" font-weight="bold" text-decoration="underline" font-size="14.00">Method: GetLeft</text>
</g>
<!-- n5&#45;&#45;n10 -->
<g id="edge10" class="edge">
<title>n5&#45;&#45;n10</title>
<path fill="none" stroke="black" d="M4536,-390.51C4172.17,-374.12 3325.32,-319.29 2637,-148 2582.04,-134.32 2521.46,-108.98 2484.06,-92.05"/>
</g>
<!-- n11 -->
<g id="node12" class="node">
<title>n11</title>
<polygon fill="none" stroke="black" points="3006,-92 2646,-92 2646,-56 3006,-56 3006,-92"/>
<text text-anchor="start" x="2773" y="-77.8" font-family="Arial" font-weight="bold" text-decoration="underline" font-size="14.00">Method: GetKey</text>
</g>
<!-- n5&#45;&#45;n11 -->
<g id="edge11" class="edge">
<title>n5&#45;&#45;n11</title>
<path fill="none" stroke="black" d="M4535.83,-383.92C4222.42,-358.23 3558.4,-290.8 3015,-148 2960.57,-133.7 2900.35,-108.76 2862.84,-92.06"/>
</g>
<!-- n12 -->
<g id="node13" class="node">
<title>n12</title>
<polygon fill="none" stroke="black" points="3384,-99 3024,-99 3024,-49 3384,-49 3384,-99"/>
<text text-anchor="start" x="3152.5" y="-84.8" font-family="Arial" font-weight="bold" text-decoration="underline" font-size="14.00">Method: SetKey</text>
<text text-anchor="start" x="3079" y="-56.8" font-family="Arial" font-size="14.00">name: v_key; record: Parameter; type: int</text>
</g>
<!-- n5&#45;&#45;n12 -->
<g id="edge12" class="edge">
<title>n5&#45;&#45;n12</title>
<path fill="none" stroke="black" d="M4535.98,-373.76C4279.16,-338.21 3794.25,-262.21 3393,-148 3346.65,-134.81 3295.78,-114.83 3258.5,-99.1"/>
</g>
<!-- n13 -->
<g id="node14" class="node">
<title>n13</title>
<polygon fill="none" stroke="black" points="3762,-92 3402,-92 3402,-56 3762,-56 3762,-92"/>
<text text-anchor="start" x="3508" y="-77.8" font-family="Arial" font-weight="bold" text-decoration="underline" font-size="14.00">Method: GetHas_Right</text>
</g>
<!-- n5&#45;&#45;n13 -->
<g id="edge13" class="edge">
<title>n5&#45;&#45;n13</title>
<path fill="none" stroke="black" d="M4535.76,-355.81C4344.32,-310.6 4033.7,-233.05 3771,-148 3718.96,-131.15 3660.41,-107.84 3622.45,-92.13"/>
</g>
<!-- n14 -->
<g id="node15" class="node">
<title>n14</title>
<polygon fill="none" stroke="black" points="4140,-92 3780,-92 3780,-56 4140,-56 4140,-92"/>
<text text-anchor="start" x="3891" y="-77.8" font-family="Arial" font-weight="bold" text-decoration="underline" font-size="14.00">Method: GetHas_Left</text>
</g>
<!-- n5&#45;&#45;n14 -->
<g id="edge14" class="edge">
<title>n5&#45;&#45;n14</title>
<path fill="none" stroke="black" d="M4535.88,-320.28C4357.91,-244.48 4098.44,-133.96 3999.94,-92.01"/>
</g>
<!-- n15 -->
<g id="node16" class="node">
<title>n15</title>
<polygon fill="none" stroke="black" points="4518,-99 4158,-99 4158,-49 4518,-49 4518,-99"/>
<text text-anchor="start" x="4270" y="-84.8" font-family="Arial" font-weight="bold" text-decoration="underline" font-size="14.00">Method: SetHas_Left</text>
<text text-anchor="start" x="4205.5" y="-56.8" font-family="Arial" font-size="14.00">name: val; record: Parameter; type: boolean</text>
</g>
<!-- n5&#45;&#45;n15 -->
<g id="edge15" class="edge">
<title>n5&#45;&#45;n15</title>
<path fill="none" stroke="black" d="M4535.86,-243.54C4470.25,-187.66 4403.23,-130.56 4366.48,-99.26"/>
</g>
<!-- n16 -->
<g id="node17" class="node">
<title>n16</title>
<polygon fill="none" stroke="black" points="4896,-99 4536,-99 4536,-49 4896,-49 4896,-99"/>
<text text-anchor="start" x="4643.5" y="-84.8" font-family="Arial" font-weight="bold" text-decoration="underline" font-size="14.00">Method: SetHas_Right</text>
<text text-anchor="start" x="4583.5" y="-56.8" font-family="Arial" font-size="14.00">name: val; record: Parameter; type: boolean</text>
</g>
<!-- n5&#45;&#45;n16 -->
<g id="edge16" class="edge">
<title>n5&#45;&#45;n16</title>
<path fill="none" stroke="black" d="M4716,-183.57C4716,-149.53 4716,-119.01 4716,-99.06"/>
</g>
<!-- n17 -->
<g id="node18" class="node">
<title>n17</title>
<polygon fill="none" stroke="black" points="5274,-120 4914,-120 4914,-28 5274,-28 5274,-120"/>
<text text-anchor="start" x="5035.5" y="-105.8" font-family="Arial" font-weight="bold" text-decoration="underline" font-size="14.00">Method: Compare</text>
<text text-anchor="start" x="4968" y="-77.8" font-family="Arial" font-size="14.00">name: ntb; record: Variable; type: boolean</text>
<text text-anchor="start" x="4987" y="-63.8" font-family="Arial" font-size="14.00">name: nti; record: Variable; type: int</text>
<text text-anchor="start" x="4969.5" y="-49.8" font-family="Arial" font-size="14.00">name: num1; record: Parameter; type: int</text>
<text text-anchor="start" x="4969.5" y="-35.8" font-family="Arial" font-size="14.00">name: num2; record: Parameter; type: int</text>
</g>
<!-- n5&#45;&#45;n17 -->
<g id="edge17" class="edge">
<title>n5&#45;&#45;n17</title>
<path fill="none" stroke="black" d="M4896.14,-243.54C4949.01,-198.51 5002.79,-152.69 5040.92,-120.22"/>
</g>
<!-- n18 -->
<g id="node19" class="node">
<title>n18</title>
<polygon fill="none" stroke="black" points="5652,-134 5292,-134 5292,-14 5652,-14 5652,-134"/>
<text text-anchor="start" x="5425" y="-119.8" font-family="Arial" font-weight="bold" text-decoration="underline" font-size="14.00">Method: Insert</text>
<text text-anchor="start" x="5342.5" y="-91.8" font-family="Arial" font-size="14.00">name: cont; record: Variable; type: boolean</text>
<text text-anchor="start" x="5326" y="-77.8" font-family="Arial" font-size="14.00">name: current_node; record: Variable; type: Tree</text>
<text text-anchor="start" x="5347" y="-63.8" font-family="Arial" font-size="14.00">name: key_aux; record: Variable; type: int</text>
<text text-anchor="start" x="5334.5" y="-49.8" font-family="Arial" font-size="14.00">name: new_node; record: Variable; type: Tree</text>
<text text-anchor="start" x="5346" y="-35.8" font-family="Arial" font-size="14.00">name: ntb; record: Variable; type: boolean</text>
<text text-anchor="start" x="5347" y="-21.8" font-family="Arial" font-size="14.00">name: v_key; record: Parameter; type: int</text>
</g>
<!-- n5&#45;&#45;n18 -->
<g id="edge18" class="edge">
<title>n5&#45;&#45;n18</title>
<path fill="none" stroke="black" d="M4896.12,-320.28C5030.2,-263.17 5210.53,-186.36 5333.45,-134.01"/>
</g>
<!-- n19 -->
<g id="node20" class="node">
<title>n19</title>
<polygon fill="none" stroke="black" points="6030,-148 5670,-148 5670,0 6030,0 6030,-148"/>
<text text-anchor="start" x="5801" y="-133.8" font-family="Arial" font-weight="bold" text-decoration="underline" font-size="14.00">Method: Delete</text>
<text text-anchor="start" x="5720.5" y="-105.8" font-family="Arial" font-size="14.00">name: cont; record: Variable; type: boolean</text>
<text text-anchor="start" x="5704" y="-91.8" font-family="Arial" font-size="14.00">name: current_node; record: Variable; type: Tree</text>
<text text-anchor="start" x="5716.5" y="-77.8" font-family="Arial" font-size="14.00">name: found; record: Variable; type: boolean</text>
<text text-anchor="start" x="5713" y="-63.8" font-family="Arial" font-size="14.00">name: is_root; record: Variable; type: boolean</text>
<text text-anchor="start" x="5725" y="-49.8" font-family="Arial" font-size="14.00">name: key_aux; record: Variable; type: int</text>
<text text-anchor="start" x="5724" y="-35.8" font-family="Arial" font-size="14.00">name: ntb; record: Variable; type: boolean</text>
<text text-anchor="start" x="5705.5" y="-21.8" font-family="Arial" font-size="14.00">name: parent_node; record: Variable; type: Tree</text>
<text text-anchor="start" x="5725" y="-7.8" font-family="Arial" font-size="14.00">name: v_key; record: Parameter; type: int</text>
</g>
<!-- n5&#45;&#45;n19 -->
<g id="edge19" class="edge">
<title>n5&#45;&#45;n19</title>
<path fill="none" stroke="black" d="M4896.24,-355.81C5087.68,-310.6 5398.3,-233.05 5661,-148 5663.93,-147.05 5666.88,-146.08 5669.84,-145.1"/>
</g>
<!-- n20 -->
<g id="node21" class="node">
<title>n20</title>
<polygon fill="none" stroke="black" points="6408,-127 6048,-127 6048,-21 6408,-21 6408,-127"/>
<text text-anchor="start" x="6172.5" y="-112.8" font-family="Arial" font-weight="bold" text-decoration="underline" font-size="14.00">Method: Remove</text>
<text text-anchor="start" x="6103" y="-84.8" font-family="Arial" font-size="14.00">name: auxkey1; record: Variable; type: int</text>
<text text-anchor="start" x="6103" y="-70.8" font-family="Arial" font-size="14.00">name: auxkey2; record: Variable; type: int</text>
<text text-anchor="start" x="6092" y="-56.8" font-family="Arial" font-size="14.00">name: c_node; record: Parameter; type: Tree</text>
<text text-anchor="start" x="6102" y="-42.8" font-family="Arial" font-size="14.00">name: ntb; record: Variable; type: boolean</text>
<text text-anchor="start" x="6091.5" y="-28.8" font-family="Arial" font-size="14.00">name: p_node; record: Parameter; type: Tree</text>
</g>
<!-- n5&#45;&#45;n20 -->
<g id="edge20" class="edge">
<title>n5&#45;&#45;n20</title>
<path fill="none" stroke="black" d="M4896.06,-363.22C5256.31,-295.62 6032.1,-149.96 6039,-148 6059.89,-142.05 6081.7,-134.73 6102.77,-127.04"/>
</g>
<!-- n21 -->
<g id="node22" class="node">
<title>n21</title>
<polygon fill="none" stroke="black" points="6786,-113 6426,-113 6426,-35 6786,-35 6786,-113"/>
<text text-anchor="start" x="6533.5" y="-98.8" font-family="Arial" font-weight="bold" text-decoration="underline" font-size="14.00">Method: RemoveRight</text>
<text text-anchor="start" x="6470" y="-70.8" font-family="Arial" font-size="14.00">name: c_node; record: Parameter; type: Tree</text>
<text text-anchor="start" x="6480" y="-56.8" font-family="Arial" font-size="14.00">name: ntb; record: Variable; type: boolean</text>
<text text-anchor="start" x="6469.5" y="-42.8" font-family="Arial" font-size="14.00">name: p_node; record: Parameter; type: Tree</text>
</g>
<!-- n5&#45;&#45;n21 -->
<g id="edge21" class="edge">
<title>n5&#45;&#45;n21</title>
<path fill="none" stroke="black" d="M4896.11,-356.11C5118.89,-307.17 5510.36,-226.52 5850,-184 6100.55,-152.63 6170.36,-202.12 6417,-148 6452.9,-140.12 6490.99,-126.51 6523.49,-113.16"/>
</g>
<!-- n22 -->
<g id="node23" class="node">
<title>n22</title>
<polygon fill="none" stroke="black" points="7164,-113 6804,-113 6804,-35 7164,-35 7164,-113"/>
<text text-anchor="start" x="6916" y="-98.8" font-family="Arial" font-weight="bold" text-decoration="underline" font-size="14.00">Method: RemoveLeft</text>
<text text-anchor="start" x="6848" y="-70.8" font-family="Arial" font-size="14.00">name: c_node; record: Parameter; type: Tree</text>
<text text-anchor="start" x="6858" y="-56.8" font-family="Arial" font-size="14.00">name: ntb; record: Variable; type: boolean</text>
<text text-anchor="start" x="6847.5" y="-42.8" font-family="Arial" font-size="14.00">name: p_node; record: Parameter; type: Tree</text>
</g>
<!-- n5&#45;&#45;n22 -->
<g id="edge22" class="edge">
<title>n5&#45;&#45;n22</title>
<path fill="none" stroke="black" d="M4896.43,-354.57C5119.13,-304.19 5510.1,-222.19 5850,-184 6058.84,-160.54 6589.18,-190.44 6795,-148 6831.52,-140.47 6870.2,-126.66 6902.99,-113.06"/>
</g>
<!-- n23 -->
<g id="node24" class="node">
<title>n23</title>
<polygon fill="none" stroke="black" points="7542,-127 7182,-127 7182,-21 7542,-21 7542,-127"/>
<text text-anchor="start" x="7310.5" y="-112.8" font-family="Arial" font-weight="bold" text-decoration="underline" font-size="14.00">Method: Search</text>
<text text-anchor="start" x="7232.5" y="-84.8" font-family="Arial" font-size="14.00">name: cont; record: Variable; type: boolean</text>
<text text-anchor="start" x="7216" y="-70.8" font-family="Arial" font-size="14.00">name: current_node; record: Variable; type: Tree</text>
<text text-anchor="start" x="7244" y="-56.8" font-family="Arial" font-size="14.00">name: ifound; record: Variable; type: int</text>
<text text-anchor="start" x="7237" y="-42.8" font-family="Arial" font-size="14.00">name: key_aux; record: Variable; type: int</text>
<text text-anchor="start" x="7237" y="-28.8" font-family="Arial" font-size="14.00">name: v_key; record: Parameter; type: int</text>
</g>
<!-- n5&#45;&#45;n23 -->
<g id="edge23" class="edge">
<title>n5&#45;&#45;n23</title>
<path fill="none" stroke="black" d="M4896.36,-353.96C5118.99,-302.96 5509.89,-220.34 5850,-184 6142.44,-152.76 6884.63,-205.82 7173,-148 7197.06,-143.18 7222.03,-135.56 7245.64,-127.04"/>
</g>
<!-- n24 -->
<g id="node25" class="node">
<title>n24</title>
<polygon fill="none" stroke="black" points="7920,-106 7560,-106 7560,-42 7920,-42 7920,-106"/>
<text text-anchor="start" x="7696" y="-91.8" font-family="Arial" font-weight="bold" text-decoration="underline" font-size="14.00">Method: Print</text>
<text text-anchor="start" x="7594" y="-63.8" font-family="Arial" font-size="14.00">name: current_node; record: Variable; type: Tree</text>
<text text-anchor="start" x="7614" y="-49.8" font-family="Arial" font-size="14.00">name: ntb; record: Variable; type: boolean</text>
</g>
<!-- n5&#45;&#45;n24 -->
<g id="edge24" class="edge">
<title>n5&#45;&#45;n24</title>
<path fill="none" stroke="black" d="M4896.32,-353.62C5118.92,-302.28 5509.78,-219.31 5850,-184 6226.06,-144.97 7180.07,-221.21 7551,-148 7594.14,-139.49 7640.21,-121.88 7676.07,-106.09"/>
</g>
<!-- n25 -->
<g id="node26" class="node">
<title>n25</title>
<polygon fill="none" stroke="black" points="8298,-106 7938,-106 7938,-42 8298,-42 8298,-106"/>
<text text-anchor="start" x="8061.5" y="-91.8" font-family="Arial" font-weight="bold" text-decoration="underline" font-size="14.00">Method: RecPrint</text>
<text text-anchor="start" x="7989" y="-63.8" font-family="Arial" font-size="14.00">name: node; record: Parameter; type: Tree</text>
<text text-anchor="start" x="7992" y="-49.8" font-family="Arial" font-size="14.00">name: ntb; record: Variable; type: boolean</text>
</g>
<!-- n5&#45;&#45;n25 -->
<g id="edge25" class="edge">
<title>n5&#45;&#45;n25</title>
<path fill="none" stroke="black" d="M4896.3,-353.4C5118.87,-301.84 5509.72,-218.65 5850,-184 6079.85,-160.59 7702.25,-192.3 7929,-148 7972.15,-139.57 8018.23,-121.97 8054.08,-106.16"/>
</g>
<!-- n26 -->
<g id="node27" class="node">
<title>n26</title>
<polygon fill="none" stroke="black" points="8676,-106 8316,-106 8316,-42 8676,-42 8676,-106"/>
<text text-anchor="start" x="8446" y="-91.8" font-family="Arial" font-weight="bold" text-decoration="underline" font-size="14.00">Method: accept</text>
<text text-anchor="start" x="8389" y="-63.8" font-family="Arial" font-size="14.00">name: nti; record: Variable; type: int</text>
<text text-anchor="start" x="8374" y="-49.8" font-family="Arial" font-size="14.00">name: v; record: Parameter; type: Visitor</text>
</g>
<!-- n5&#45;&#45;n26 -->
<g id="edge26" class="edge">
<title>n5&#45;&#45;n26</title>
<path fill="none" stroke="black" d="M4896.29,-353.25C5118.84,-301.54 5509.67,-218.2 5850,-184 6121.66,-156.7 8038.97,-200 8307,-148 8350.34,-139.59 8396.61,-121.88 8432.52,-106.01"/>
</g>
<!-- n28 -->
<g id="node29" class="node">
<title>n28</title>
<polygon fill="none" stroke="black" points="9054,-106 8694,-106 8694,-42 9054,-42 9054,-106"/>
<text text-anchor="start" x="8831.5" y="-91.8" font-family="Arial" font-weight="bold" text-decoration="underline" font-size="14.00">Method: visit</text>
<text text-anchor="start" x="8756.5" y="-63.8" font-family="Arial" font-size="14.00">name: n; record: Parameter; type: Tree</text>
<text text-anchor="start" x="8767" y="-49.8" font-family="Arial" font-size="14.00">name: nti; record: Variable; type: int</text>
</g>
<!-- n27&#45;&#45;n28 -->
<g id="edge28" class="edge">
<title>n27&#45;&#45;n28</title>
<path fill="none" stroke="black" d="M6219.19,-376.17C6579.47,-335.04 7414.49,-242.35 8118,-184 8369.64,-163.13 8438.36,-202.12 8685,-148 8727.26,-138.73 8772.54,-121.51 8808.19,-106.13"/>
</g>
<!-- n30 -->
<g id="node31" class="node">
<title>n30</title>
<polygon fill="none" stroke="black" points="9432,-106 9072,-106 9072,-42 9432,-42 9432,-106"/>
<text text-anchor="start" x="9209.5" y="-91.8" font-family="Arial" font-weight="bold" text-decoration="underline" font-size="14.00">Method: visit</text>
<text text-anchor="start" x="9134.5" y="-63.8" font-family="Arial" font-size="14.00">name: n; record: Parameter; type: Tree</text>
<text text-anchor="start" x="9145" y="-49.8" font-family="Arial" font-size="14.00">name: nti; record: Variable; type: int</text>
</g>
<!-- n29&#45;&#45;n30 -->
<g id="edge30" class="edge">
<title>n29&#45;&#45;n30</title>
<path fill="none" stroke="black" d="M8450.91,-351.98C8603.55,-303.68 8851.39,-223.66 9063,-148 9099.76,-134.85 9140.18,-119.38 9174.17,-106.08"/>
</g>
</g>
</svg>
